<mxfile host="Electron" modified="2024-04-17T22:42:15.453Z" agent="Mozilla/5.0 (Windows NT 10.0; Win64; x64) AppleWebKit/537.36 (KHTML, like Gecko) draw.io/24.0.4 Chrome/120.0.6099.109 Electron/28.1.0 Safari/537.36" etag="XG6QP1BR-p2Pm9AVjQlo" version="24.0.4" type="device">
  <diagram name="PÃ¡gina-1" id="DmfNHX5GsUNYhlAwRAEZ">
    <mxGraphModel dx="1120" dy="572" grid="1" gridSize="10" guides="1" tooltips="1" connect="1" arrows="1" fold="1" page="1" pageScale="1" pageWidth="827" pageHeight="1169" math="0" shadow="0">
      <root>
        <mxCell id="0" />
        <mxCell id="1" parent="0" />
        <mxCell id="PZ8WvZYUdpvpFTueEGIm-1" value="" style="shape=image;verticalLabelPosition=bottom;labelBackgroundColor=default;verticalAlign=top;aspect=fixed;imageAspect=0;image=data:image/png,iVBORw0KGgoAAAANSUhEUgAAAu4AAABPCAYAAAC0wkCoAAAAAXNSR0IArs4c6QAAAARnQU1BAACxjwv8YQUAAAAJcEhZcwAADsMAAA7DAcdvqGQAAFrTSURBVHhe7Z15XFNX+v8/ZAOBACrIJoiCVllklUUWFfdanWpVRKt1BrV2VccuLhWntYtjbdW2X6tj/XWxuFWr1o3WulXBlYpUrTsiCAGEgARJQpLn98cNS0JyExSntXPerxevF+See85znu08uffciw0RERgMBoPBYDAYDMafGoHxBwwGg8FgMBgMBuPPByvcGQwGg8FgMBiMxwBWuDMYDAaDwWAwGI8BrHBnMBgMBoPBYDAeA1jhzmAwGAwGg8FgPAawwp3BYDAYDAaDwXgMYIU7g8FgMBgMBoPxGMAKd0br0alQLVdAbfw5468Bsy+DwWAwGH9K/kKFuxrlN37DpTu1xgceGPWJf2FA/DzuD+0dHMvYgCMFWuNmjx4LY6uzFyM5cSGOqoyPPDzaO8eQseEIGobWXvkC43p4wL93EKJePYD7Rsf/GNTIXpyMxIVH8QhU8OCos7E4ORELH4VhAABa3DmWgQ1HCtBW6je27yOR3II/txUG8ftfQ40T/xqA+HmHjQ/8xTCMOeM8YcifND7bHMN4bPC/w3/tSbeCts9XDMb/In+Zwl17czXGh4Sid9I8HFYaH30wqLoY168WcX/cz8KauXPx2bEq42aPHgtjU3Uxrl4phPxh/weu+hQ+mjQNay9oGj+6n7UGc+d+Bm5oDc598wl+9H0bOQUFyF05EFqD438UhOriq7hSKMfDqqBNoWoUX72Cwoc2jDnuI2vNXMz97BjaRv0t7Wtr3KQtsODPbYVB/P7XIFQXX8fVokc7tz8ew5gzzBPGtCI+TeSgPwPqUx9h0rS14BfLMB4b/K/K4qRNocapjyZh2toL4B3ysaKt8xWD8b/JIyvcNYoyFBdX4r7O+MijQIurW7bi94TxGKLYhYyDZq66axQoL60ysQVAB6W8BMVlCvNJUjoeGbIybHu2Y7MPdVDKZZBVtewR6mqUlpSj1opLC+rqUpSU15q/CmFybA0U5TLIzV7NUaO6tATlZgXQQFFeCgPRNYXIyTyAXFnTOdLxGZCVbQM3tAalsgo4+PrBXQAIBAKj4w39KFAuq4TyAW1vUR8NaBQol8nNX8WzZANtrXk5LZ1r1pcAjaIcMvOGsTg/jaIcpaZ8qoW/STE+Q4aybc/CwCuVcpQUl0FhwpnV1TKUVCphasqm7Gs1PPrQKeWQyZodM+nPgLa2AiUyuWl7gG8MK+K3EZ64UFdDVmLGH8yhU0IukxnGUQtaI19zHlZWY39p+FgJeUkxykw5CGA6NzQeMh1z5vNAy7YNmPRTEzkIsCCzVbqwEjPjaApzkHkgF8ZicQdrUF5RC52ZeAQAraIcpXJzcWcKDQpzMnEgV2YiT2hRW1ECmcn+1KiWlaDSCmWYzzNWxKIBWtSWy8yOqakpR0Wtzmy+gj4nltU06VynrESpmTzFJxt/fmMw/iJQG1N7bg1N7etLUpENATYkdo2gtA3XqN64YVtSf47SI9xp3MZbtH2yJ3lM2kZVDcdUWbSo/1OU/p90Gh7UjXzdHMk1ahbtKtYSEZHyxAc0pLsbufn2oAAPF3INS6ONNzXcsf3TqbPrpKZ+EqPptYNKIiLSlv5Mi4d2IzfPbuTv7U5dB75P2Uoioio6tWo8BXt6UtcAb3L17kuzvi8grkcjqk7RqvHB5OnZlQK8Xcm77yz6vsBES+OxZftpXpI3tffoQj5dYijthWHk7jaZdtRxzatOraLxwZ7k2TWAvF29qe+s74nrVkVZi/rTU+n/ofThQdTN140cXaNo1q5iqpd9RRP8XclBKCJpp87k4z+OvijSkiprESVGv0YHlRW0cUoAuTkKSejoRp27xNLC46pmx4mItCTbP4/6ebcnjy4+5Bv5d1o672mKe+0gKYlIefgNikl4i46pGuZ1nBYlxNAbh7h5Wa0P/ThJ+nG6xKTRC8PcyW3yDuJUwGMD1XF6q98oWvT5fBrSqyt183Yhl56ptO5ig1B85/L7EmlltH9eEnm396AuPl0oJu0FGubuRpObDGN2fqqsRdT/qXT6T/pwCurmS26OrhQ1axc1dm3S31SUtSiRovX6JeUJ+mBId3Jz86UeAR7k4hpGaRtvcrJrrtO3aWHk2akL+Xd2p67jv6QCfd8cpux7jw6/EUMJbx2jJpMtooSYN+iQ0hp9lNLPi4dSNzdP6ubvTe5dB9L72coW/kxVp+mzieHk2cmHuvu5UXvf/vTPHbes0rnV8csbFxq6/m0ahXl2oi7+ncm963j60lA5JtBS6c+LaWg3N/Ls5k/e7l1p4PvZpCQl7Z/emVwnfU/EI5/8uzQK6buAjupdg0hJWemJFPbiblK0gaym/UVJJz4YQt3d3Mi3RwB5uLhSWNpG4tRlPjdwvfPHnKk8YK6tOT9Vm8xB93lktkIXVdtoWnAczT/SqGhSZadTUvhLtFvRvKE53WhJ9tUE8nd1IKFISp06+5D/uC+oSMvpa8RbK+mlMCcSiINo3qkag3hU7p9OnTsMpVmvDaaefl3Jy6U9BT77/+h3FTee2di6L6OvJviTq4OQRNJO1NnHn8Z9UURaIqo6/RlNDPekTj7dyc+tPfn2/yftuMX5u+b6t5QW5kmduvhTZ/euNP7LguYT5MawkGd4Y9EAFR1/qx+NWvQ5zR/Si7p28yYXl56Uuu4iNx9VFi3qP4LeWvkShTkJSBw0j06pDPNVgyxr3xpGwQG+1NGlKz39f7/SbxumU3wPP3KXtqeQ6Vv0fm9BNov5jcH469DGhbuGbqz6G0U+9Sr9e/1m2rLmBYqS2pCwywv0s36NfhSoTrxBgR6ptFVOVPPD38m74xjaUKY/qNxP071tyTVhHh2QaYhqT9L8UHsKSz9H9USkyttFGceKuMJHdZmWJUmp1+sn9Kc2W/iV+2l6Z1ea9H0dEd2jPWm+5Dp4JV2sIyJtJf26bQ/lqYhqD8+iHu5DaOWFWiLSUNGmVPL1mkTbKhvF1VNLh2f1IPchK4lrWkSbUn3Ja9I2atHUYGwFZT7vRy5JSymvjkhT8hO9FiUlYUd94V57mGb1cKchKy8Q1+0mSvX1oknbKolISfune5OtawLNOyAjDdXSyfmhZB+WTufqNVRXuoHGtvehtF2lVHWvjjTNdPB9HZGmroy2PutBHs9updIqBamMjpMik573c6GkpXlURxoq+ek1ipIKqaN+wa7bOYXcvdNob8MaqtxH07wbCttW6MPCOLw2UO6n6d5isg9Mo+/yVUT1N2jtCDfq8LcvqURrzbnmfUmR+Tz5uSTRUs4w9NNrUSQVdrRqfsr908nb1pUS5h0gruv5FGofRunn6nn8ralIrCMiUuXRroxjVMQ5M11elkTSXq/TCRWR6ugs6t5pLGWUaYmolm5fK6BaI7W2tG8d7ZziTt5pe/VfiIiU+6aRd8OXRAv6uLcnjXxdB9NKTmiq/HUb7clTGflzLR16pQe5RC+k45VaIqqji58MI7eOo2j9Ha3FMayOX764UB2lWd070diMMtISUe3ta1RgrBxj7u2hNF9XGrzyInEm+ZW27ckjlVHhbk4+7e3/o8FOvjQjUz+Q8hC97N+envqihLQPLas5f1FR3q4MOsY5CKkuL6MkaS96/YTKQm6wHHOtyQPm/dRUDuKR2RpdaO/QmmHO5J22h7g6XUmHX/anDqO+JJlBYcczjqaOSjeMpfY+abSrtIru1Wka9WXXzpeeXH6cbt68RkUKw3hU7p9O3kI7CpzxPRXUE9Vf/5yedO1AT38lI7IQW5q6Utowtj35pO2i0qp7VKchotpD9EoPF4peeJy4ULlInwxzo46j1tMdrYqOzupOncZmEBfit+laC2VYyjMWYtGwJ9o/3ZvE9oGU9l0+qaiebqwdQW4d/kZfljTErR21832Slh+/STevFZGiWWw06sfWlRIXHqYyrZaKvx5Nbo4dKXjCOrpYS6TMW0LRDoH0xkmVRdmsyW8Mxl+FVtwLtwYhur26E2d3r8I/x/VDzIBnkBwggq70Dorqjdu2FSpkb9yBqkFjMcQFcEweh+H2h7BpV0nT7TIbKYbOWYxB7kLAPgyD4jvh9rXrUAOQhIzCxARvCBWlKCjUwsPHCeXFJYZDGKM6jp2Z99Bv6lQE2gEQtEf4MyMQIlHh9PbdKIsagf6iQly5ch2KoHiE3j+BI+eNbhirTmP77jJEjegPUeEVXLmuQFB8KO6fOALjpgaoc7DvYAXip/wDIXaA0GMwlqSPRSe9JVWnt2N3WRRG9Beh8MoVXFcEIT70Pk4cOa+/ZW0D6dA5WDzIHULYI2xQPDrdvobraiHsHO0gtrGB2N4ZzlI7CA1HhtBOCjuxDWzEdnBydoDE6Lg6Zx8OVsRjyj9CYAchPAYvQfrYTtbtx2qFPvjHscIGNlI8lb4CY/0kgKgbUiYkQJN1ECfU1p1r2pfUyNl3EBXxU/APzjAYvCQdY5sMY3F+NtKhmLN4ELiuByG+021cu67m8TfuvEYkIRg1MQHeQgVKCwqh9fCBU3kxSnSAwNkFTnUXcGDfBVTp7OET4At7o9Mt2dckZvWhwvGdmbjXbyqmckKjffgzGGEstCoLW3bKkDBzDuLbCwDYITBtJoaLjmDPoRoLY1gfv7xxIXCGi1MdLhzYhwtVOtj7BMDXWDlGqI7vROa9fpg6NRCcScLxzIiQFjozJ5/AezTGJ97Dvu+OoBaAMmsb9lYPQMooD9Q/rKxm/UWCkFETkeAthKK0AIVaD/g4laO4pCFTmssNlmLOEIttzfqpqRzEI7M1uhB4YMzEZNTt24oDNQCUWfhu3z0kp4yCu4HwPOMI7eBoJ4aNjRj2zs6Q2jVlRkniPKyZE4+uXQPg7dC8Pw4b51FI/2g0fEWAyD8VqYkaHD94wrhZC4R2jvpYtIezsxR2QkCVtQU7ZQmYOSceXKgEIm3mcIiO7MGhGgGcXZxQd+EA9l2ogs7eBwEtlMFhPs9YEYuGPUH6VDpWjPWDBCJ0S5mABE0WDp5o2H4jQeK8NZgT3xVdA7xhQj2wkQ7F7Lf6w00ggHu/RPTS+WLM/KkItAdse8Qhyu0ObuZrLMpmTX5jMP4qmMq7D4Ui53NM6eMNJxcv+D0xCMvO1YO7sm/cso2oPYSMnYVoX5+H1R98gA8+OQOVqxpHN23D7eYb3WyafhFLxNBpuJ2Dujt7sWBoD3j5x2L4mFQs+ekudGRhh5y6FKVyF7h72Bkd0EImK8f9U59gSkoKUlJSkDJ5HQr9Q+DnbFQGa2WQld/HqU+mcO1SUjB5XSH8Q/xg3NQATSlK7zrC3UPa+JGNSNhoSK1MhvL7p/DJFP34KZOxrtAfIX7OzQrxRmXARiyBWKcxsY+y9WhKS3HX0R1NotlAJLTSxVqhD/5xrLGBAGKJuOFk2Lm5walWDrnKmnPN+ZIGpaV34ejugSaxRGgSy7r5NXUthkSsg0bL529G6O5g74Kh6OHlj9jhY5C65Cfc1RF0AEShc7FueTwuL4hD18CRWLgr38Re8QfEpD7UKC2Vw8XdA7xSq++guMIJXl6OTZ+JPOHZUYOK8maPsJkcw/r45Y0LUSjmrluO+MsLENc1ECMX7kK+BeWoS0shd3GHZZOYkU/gjr+NH4D7md/jSK0Sx7ftx/1BKRjh1gaymvUXHe7sXYChPbzgHzscY1KX4Ke7Ohiqy3Ru4I85Qyy25fHTlvDIbI0uIIDbyIkYRpnYklmF+8e3Yf/9wUh5soNRO55xzGIDiZsH3EyrgUMghkTU8Icd3NycUFtZadjGStR3ilHh5AXDUPFER00FyqsECJ27DsvjL2NBXFcEjlyIXS2V0YjpPGNlLDZDIJagMZPaucHNqRbyhud7bCRw83CzWGQ0yiKRQGxj00w2CSRiHbRWyPZI8xuD8SfDUky1Dt0dfD1vLr79zRMv7LmGSsVl/Du+qUDC/Xxk792HM3faLqSqf9qEfapIxHbToLa2FrW1avjExsLl5GZsvWapHFXh0HsvYbV6Bo4U5OPS+dNYM87LslLEUkjtalBVZdy/AFJnKRwGvo/s3Fzk6n/Ond2JueGN2VvfVApnqQMGvp/d2C439xzO7pwL46YGCB3gaF8LeWXTZWhq9q1IIHWG1GEg3s9uGj/33FnsnBsOvm4BvTc0rdutRujgCIdaOeSNd1eMvrAJhLCpr0fTYV3T8VboQ+jgCPtaOZpU0HwcK23QTC61vBIKxw7oYGvluSYRwsHRHrXyyqaH8YiahmnF/Fpg1t8MUR16Dy+tVmPGkQLkXzqP02vGwavRmaUIn/EFTty4iK2pdVg/9RVskPFWJQAAgdAG9fVNt8tI12xOvIghldqhpqqK/0uh2AlO7RSolDfLCbpy3K2SwNXdpXlLE1gfv5biQho+A1+cuIGLW1NRt34qXtkgM+7CALFUCruaKvCbhE8+AdxGjscgdSa27fsR2/arMWzCcLRvC1nN+YvqEN57aTXUM46gIP8Szp9eg3FNDsILf8wZYqktr58a5yALMlvUBQC4DMekEbb4ecv32LN1H+qHT8AwY9eyMI6xWK2haepqyOUKOHbgvjTwx1bLEcVOTminqIRhqNxFlcQV7i4CQBqOGV+cwI2LW5Fatx5TX9nQ/HTLPFAsGiRSVCoc0aHDI3gXlUXZHiy/MRiPI9ZlbWuhOihquSfDSVWKc5tXYuuFhsVDh+Ivp2PgyKcw5LUfDE57cCqwd2MmbEa8iVXvv4t33+V+3lv5DlI6n8PWzZeMTzBCiyr5PYjdfeBlB+gqT+HnsxVmrvw0QxKNpGgtjm7bDS43VCM3YyOyFBL06R8L0S+b8V2zFxqrq6twv/n5ACDpg/6xIvyy+btm7z5Wo7qqRUtDxBGIixDg5O693NiKHHz68U69HICkT3/Ein7B5u+avStXXQ1L3XK0g72tAhV3H+yLlTgiDuGCk9i9RwZOtE/x8U7udwAQ+fjAQ3ERuVfVABQ4s+Ij7ChrFNxqfYgj4hAhOInde02NY4UNqAr7P12B0zXcl83vtx6DIH4g4iRWnGsWMSLiIiA4uRt7OcMg59OPsbPJMFbPrwVm/c2wmbZKjntid/hwzoxTP59FhX545dUzyC3XAnZ+SE5JRpf6GlRbfG2qCD4+HlBczAVnsjNY8dEONJiMHwmik6KhPboNu/U6qM7NwEZjoSVxGBgvwLHNW3FLCwBaFG7/GpmaZIxObrqrZBrr45c3LpRXcSa3HFrYwS85Bcld6lGjV47y9Od49bWvW7wGUBKdhGjtUWzbrfe76lxkbMyC4ewsyNd+OFKG6rAnfR5205OYMJib74PK2og5f6mugvyeGO4+XrCDDpWnfsbZBgexAH/Mta4tn5+2yEFaHpmt0QUAwAHJzz4NlwP/wus/2ODJlIFodt2Wg28cAGhnD1tFBVqbGqlqPz5bcRo1AHTFO/HdMSHiB8ZZFVvt7G2hqLjbeOVYEjcQ8YJj2Lz1FucX2kJs/zoTmuTRSJYqcfVMLrgQT0ZKchfU11Q3dWYNrY5FQtX+T7GCS6S48/1WHBPEY2Cc8YaxNsCCbObym65wN5a8tBjf5/N+w2YwHivatnAXdkXKS+PRTfArVoxOwJDXT8Mn2h9iiQS2AgHauXujo7gdPLzdjM98MKoPYOfRdhg+Ntlw/5ykD8Y/44/Lu3cAEEMssW12uxIQicUQi0UQwB6Dpk2D748vIqZvPCIS0yHr0h3tRPrGYjHEkoYk1KwfgQ+eW/oOIrJnIipyAJIjwzFmfT4EAgE6TViGVU/exOtRgeg7eCiSY3siIOFtZBvvWxd0woRlq/DkzdcRFdgXg4cmI7ZnABLezjbx+rTmY3sgdfFCBB1/ETExAxAbMwM5fccg0l4EEQBBpwlYtupJ3Hw9CoF9B2Nocix6BiTgbb0AYrEEtobKgFgshkgAQBKLkcNdsP+fieiXOBXrC3WAWAyJrUR/td4GIpEIYpG46VpQs+MCj1QsXhCIX16IQcyAWESnZcMtpEOjk4lCnsPspyqwfFA44mPi8OKlJIwLt4eIE9xqfQg8UrF4YRCOv8iNEzMjB33HRMKe68iyDWwc0M3hMJ6LikZSn1jMPp+AD95LhbtF+/H5kgAeqYuxMOg4XoyJwYDYGMzI6YsxkVbOz0DPACCCWCyGWCTg8TdDe9oPmoZpvj/ixZi+iI9IRLqsC7q34/yi7vJ6pIT2QtzAAYgatBJ1k2djgq9x+BvbV4SQ52bjqYrlGBQej5i4F3EpaRzC9b5mSR8+zy3FOxHZmBkViQHJkQgfsx75AoGRP3ti8rIVGHr9DcQEJ2JgUm/EvFmIsWtXItXDqG2LMayPX964qLuM9Smh6BU3EAOiBmFl3WTMnuALQAf5me1Yl/ELCowKd4HPc1j6TgSyZ0YhckAyIsPHYH2+AAIAYrEYEokIsCQfnDF04ig43rgJxzGT0F+/KffBZG2GOX9xHIRp03zx44sx6BsfgcR0Gbp0b8f5p4XcwB9zJvIAT1s+P22RgyqSzctsjS702PV9FuN8ZSh2HInUBkU3x55fN5LYkRjush//TOyHxKnrwaVGI30Z61AsQrueAxBweDIi+vRDn5hXcS7uPbyX6m5FbEkQO3I4XPb/E4n9EjF1fSHgORnLVgzF9TdiEJw4EEm9Y/Bm4VisXZkKD0EdLq9PQWivOAwcEIVBK+swefYEA9kAS3nGUiwaYwOHbg44/FwUopP6IHb2eSR88B5S3U3HLVrox0gWIedvElHD6iKCRCyGWGQ5T5jLb5qiLGzZsAm/GAcwg/EYY0PN91m0EaqyK8i7fg8dAiPg78K3YfvPgabyJs5fqYBLr0j4u5hKUGZQynDx3DVUOwUgIsiz2V5eHRSFF5CXXw2hqz+Ce3rBwVy3OgUKL+Qhv1oIV/9g9PRysOrblK6mAOfziiHxj0CQR8tbkzpFIS7k5aNa6Ar/4J7wMiuAEbpq5OfkodjWH+G9vR7gAR8dam6dw/liCfwjuiP3lQA8p/oMt795mtOPrhaFv51HkdgfkYHuLR7ms14fOtQUnEdesQT+EUFoqQIzNlBlYkbAZNz/pABro64it0gM//Ago73KZs61Bl0NCs7noVjij4ggj5b/wMjq+ZnArL81Q1OJm+evoMKlFyL9XQz6VldcRe6lUgi8QxDezaXFw8fm0NUW4rfzRRD7RyLQvYXFLKCE7OI5XKt2QkBEEDxNCg1AW41beRdwW+mM7qHB8GyF47Umfs3GhboCV3MvoVTgjZDwbnARAtDdwfrR0Vgdsh1Z78aa1LdSdhHnrlXDKSACQWYm1xr5mtMqWU1h0l80qLx5HlcqXNAr0h+tEMeKmGuOhbY8ftoyB/HIbK0udAX4dEhvfNZ7L377OKFl3gEs6kZXnY+cvGLY+oejt1crHFSnwO3z53FH3A3hwYZxyx9bOlTn5yCv2Bb+4b3RMKS2+hbyLtyG0rk7QoM9m+VoNSqu5uJSqQDeIeHoZlYZFrAqFlXInBGAyfc/QcHaKFzNLYLYPxxBLZ6raGN4ZHvQ/MZgPG48ksKdweBQYf90f8PC/Y+msXAvxLej/xQSMf6kqE8tQMKrAqw69C7iTL0Sg/HYoL28FIlRXyP+wHl8+Ci2cvzP0VS4F347+s+R2xmM/xFadb2FwWgdQnQKjEdikMefx9GEbujVNxHBJm/9MhhNSMIX4vAxVrQ//uhQ9XsZnJ5+GZP7sKK9bRDCrVdfJAb/iXI7g/E/ArvizmAwGAwGg8FgPAawL8sMBoPBYDAYDMZjACvcGQwGg8FgMBiMxwBWuDMYDAaDwWAwGI8BrHBnMBgMBoPBYDAeA1jhzmAwGAwGg8FgPAawwp3BYDAYDAaDwXgMYIU7g8FgMBgMBoPxGMAKdwaDwWAwGAwG4zGAFe4MBoPBYDAYDMZjACvcGQwGg8FgMBiMxwBWuDMYDAaDwWAwGI8BrHBnMBgMBoPBYDAeA1jhzmAwGAwGg8FgPAawwp3BYDAYDAaDwXgMYIU7g8FgMBiPBVrcr66ByvhjA3RQVcuhUBt/zmAw/gq0ceGuQ0nGPxD6RARe3lVtfPARoUDhxRzknD2Ls/qfnN9uo8a42SNBizvHMrDhSAG0xoceFvUJ/GtAPOYd5k/RjxL1iX9hQPw8449bwSPUz2OA9s4xZGw4ggKTk1cje3EyEhcetbAI/xdQZ2NxciIWHn14SR7OZzQov3AAW/7ff7B+80FcrtI1O2Yc5znIvSnXH7uPkt/zcL3MSH6lDFevlxp+xoe6DL8d2Iov132BTT//DrnB8IW4mJPTmGPO5uTipr7B/ZLfkXe9zMiOSsiuXkfpQ6pUUXgROTlnkZOTiws3y6E0bgAAUKEkZx82rl+Hr7YfwRV5g8NZp5eGMRrzZ+5Nw7k/KNo7OJaxAUdMB4AFDOODP5b+V9ChfMc09I6ahf1lZgykvYIvxvWAh39vBEW9igMP6X//Kzxc3mK0Jcb56GzOb7j93ynoWqDOXozkxIVog6WxbaE2RUPXl8WTGLY0dE2Z8cFHgubGh5RgK6UuEX2pb1/uJ35IOh1SGrd8FNyjLRPdye2ZDXTX+NDDotxP0zu70qTv64yP/NdQ7p9OnV0nGX/cCh6hfh4D7m2ZSO5uz9AGk5NX0r5p3uQ2eQf9cRbWo9xH07zdaPKOh5fkwX1GSUfm9SYXp84UEhVGfs4ikvim0Df5GqKGOBfbkEAoJKFQSEKhiOwHfsodu7mcEsU2JPROpc0l2sYe63ZOIXff5xv/5kV1nN6K9KYeyZPo+RnPUISrHXVJzaDbWiIiDd34MIHENgL92EISiuxp4Ke3iTQ3aXmimGyE3pS6uYQaR6/bSVPcfen5nx4iEWlu0IcJtiT1i6S+fWMotEt7at8zhdbkNevz3hlaOTqAHGw7UkB4FIX5d6B27fvQomN11ulFc4M+TBCTjaBBr0IS2Q+kT7mJPxz3ttBEdzd6xnQAWMAwPvhj6X+EqgP0Ukg4/fOg3PhII/VnFlCIdACtuqUl0mqb/JHBy4Pnrb8eqpPLaWLaGvqt3vjIf4GGnNclorGe6xs/hNL/OwVdC5T7ppG322Rqg6WxTWnjK+6G6DQ1KCuVQ2Xm4kCboNNCK+yOqV8eRVZWFrKysnD8x7cxwNa4oTE6KOUlKC5TQGN8SI+6uhRlNU1HdcpKlFYq0TQdKcZnyFC27Vl0bPxMj0aB8tIqmLxbqa5GaUk5alt99YhPZjWqZSWoVFqjbA1qyitQ27yplTLplHKUFJdB0VIAvXwyyKoaZm1GP9paVJTIIDcrqwaK8lI0dmOEuroUJeW1La/iq6shK6mE2W6boVPKIZOZsM9DyKaulqGkmX9Ix2dAVrYNzzafvEaBcpnc/FV2C3bQ1JSjopnh+O3B74caRTlkcrOSQFtbgRKZ3Cp98mFRRgCAEB5DluJYQQHyzpzDtVPLEC//Hp9mXOXsrNNCKw7Hol+V0Gg00GjqUfvzy9ypWg00Ij90t/8B6e8fgaJ5t0TN/zKPwBVDPs5C3sFvsWbtNvy04knc2/H/8IOMm7xOq4U4fBF+VWq48etr8fPLPgC00GhE8Otujx/S38cRw8FBD6U7HbRaIZ5I+wa/ZJ1E7vXTWOy1Hwvf26W/o1iNA/NS8ebpYHx4+hau/XoG564X4revxsBdrbFSLzpotWKEL/oVSg03t/ran/Gyj+WlwWwcNiAdjwxZGbYZBAB4Y8hcfJiPJevi3RQW5W9EjerSEpSbC0q++RiggaJcZmWObomOvDD2s2+xqJ+L8aFGNKUyVDj4ws9dAAgETbfULeU1TQ3KK2qbrW3Qz7sMTUugDsrKUpPyWxfjDfDpS4vaihLI5M3XWUOMcyCgz5tlNU3rok6JylJTvsG3hvJgdm2x5BvNsJDb+XK12fXKEg8wpqYwB5kHciEzdY6xn+iUkJcUo8ys4flsbQou53Wf+iWO6uu5rOM/4m3jgs6E3CbRKSGXyVqOzys3F6fmlsbW+fqjwXJ2fiB0KP3pDST4uMLD0w0eoX/Ht9f/y7PU3sCaMUHov+gXbsHSXsGaseF4+rMrUJ1ciqE9POAb1h/9Qn3gGT4Nm/I5L1Vnp2PAyMX4z6LhiIyKRqBvD4xefQ4Xvp2BpNBIhPp5IWzGVtzWAoAa2elJiHn9ELfQqLORPmAkFq9bjCfDQhEV4gPvPrPxQ0mDm1fj9CcpCPHrhbikcPh1icfsHbetWDjAK7P2RgamhfuhR2wiQv0CkPLVbePTgYa5PbUIq17ug84enohZeNp6mVQnsXRoD3j4hqF/v1D4eIZj2qb8xna6soP417Du8A2KR0KwL7oN+gAnVEb6QTXO/N8kRPh0Q3i/ODzh1RUD5u7U3/5WIzt9AEYuXofFT4YhNCoEPt59MPuHkqYkUX0an6SEwK9XHJLC/dAlfjZ23NYC0OJGxjSE+/VAbGIo/AJS8NXtFhmWQ1eGg/8ahu6+QYhPCIZvt0H44ITq4WTT3kDGtHD49YhFYqgfAlK+wm0dp++kmNdxSAUuJjLno5+fL3rHhuKJ2Jewu6h5TPDYQZ2N9AFPYdGql9Gnswc8YxbidA2PPSz5oa4UmfP7wc+3N2JDn0DsS7thKMoZ/N+kCPh0C0e/uCfg1XUA5u58gO1OFnzGEBGeGDAcwS5cShL59UavDgJo1GpYVXoL/TDpjXFQfvUWPv3tAXKN6AkkJnVBw/JgJ5VCYmMDGxujdiYRwm/SGxin/ApvffqbhYKgGtunh6DvgqNN217UJ7C4XwRe3lNr2NQYkQ9CAzuirrIS93UAyndi9cZSJM5fied7O+ob2cN/1Dy8lKz/+2H1YgqzcWiEOhvpSTF4/ZDKcgxZiA9TsdTfzxe9Y8PwRPQ/8O/5o9FXn2dUR95EbOIiHG9YrNVZSE+MxZsN2w6tlR9A9elPkBLih15xSQj364L42Tua5X6++RiiK83E/P5+8O0di7AnovGPf8/H6L76+aiO4M3YRCxqEhhZ6YmIffNwY948/UkKQgMH4R9pQ9DdTI6u3PQcQv6+FaXl2zGtux/i3sqC2oq89tSiVXi5T2d4eMZg4WmFfl7/waLhkYiKDoRvj9FYfe4Cvp2RhNDIUPh5hWHGVv34Vse4ZX1Vn/k/TIrwQbfwfoh7wgtdB8zFzoa9UaZyoEKf5/6zCMMjoxAd6Iseo1fj3IVvMSMpFJGhfvAKm4GtetvyraHmMb+2mPcNYyzldr5cbWa9stJnWjemBqVfp6L3Cz+gujgDkwJ8ETB+Pe7oTPlJDU4uHYoeHr4I698PoT6eCJ+2CZw6Ldv6gTArt6ledSg7+C8M6+6LoPgEBPt2w6APTkAFFY/c+jjtx8Vp6BOxeGl3UVM+t9rX/wsYX4J/OBq2yoBsxF4UP/klei7Bi8Q2AnIdt9G4cZugubaU4tp1p8mrd9IPP/xAP+zeS9k3ufsa8p9epB7SSFp0WkE3144gjx4zaX8lkSpvF2UcKyIlEZHqMi1LklKv108Q6W+Zedu6UuLCw1Sm1VLx16PJzbEjBU9YRxdriZR5SyjaIZDeOKkiIiXtn96ZXCd9z213UO6n6d625Jowjw7INES1J2l+qD2FpZ+jeiKqPTyLergPoZUXaolIQ0WbUsnXaxJtqzSYEofRVhnzMqvo6Kzu1GlsBpVpiaj2Nl0rqDXujahhbnbtyPfJ5XT85k26VqTglcng9qEqj3ZlHKMiTgC6vCyJpL1epxMqIqJ7tCfNl1wHr6SLdUSkraRft+2hPJWhfmoPvUI9XKJp4fFK0hJR3cVPaJhbRxq1/o5el95k65pA8w7ISEO1dHJ+KNmHpdO5eiKiWjo8qwe5D1lJnKhFtCnVl7wmbaNK1VGa1b0Tjc0oI04F18iMCujenjTydR1MKzlBqfLXbbQnT/VQsqmOzqLuncZSBmcAun2tgGqb3X79vo6IFJn0vJ8LJS3NozrSUMlPr1GUVEgd9VsB+OzA+ZUdtfN9kpYfv0k3rxWRgs8eFvxQkfk8+bkk0dK8OiJNCf30WhRJhR31W2Vq6dArPcgleiEdr9QSUR1d/GQYuXUcRevvWL7xbr3P8KM6l05htr40I5MzpObaUoqzD6UF2XdJLpeTXF5FCn0/mmtLKc6hP63Iv0GfD+tAnUZ/RUVa/ZYQnxmGHfOhVVKN/C7d/nUTvRLVkbpO3kLclDV0bWkc2YcuoOy7cm78KgWpiIg012hpnAP1X5FPNz4fRh06jaavuMFpirsPzcg0vsWrpTtrhpGzdxrtUXCfKA+/TP4dRtGXMiP9aq7R0jh7ikw/TRXyCio6/R9K6eZJI9fdIA0RKQ/MJF/baHr3EredyBir9KIfI3RBNt2Vc3OralCsSXji0LipQQ7jjyFL8dGaWKrbOYXcvdNob8PtbYOtYK2Qv/YwzerhTkNWXiCu6SZK9fWiSVxQ8s/HAAVlPu9HLklLiQu5n+i1KCkJO+pvwdftpCnu3pTWJLDBNiHe3NAcTR2VbX2WPDyepa2lXHxYk9fs2vnSk8uP082b16hI0TCvRFp4uIy02mL6erQbOXYMpgnrLlItKSlvSTQ5BL5BJ1WtiXEL+qo9RK/0cKHohceJSzsX6ZNhbtRx1HouBk3lwIY8l7iQDpdpSVv8NY12c6SOwRNoHbdY05JoBwp84yRxoppbQ3m2yphbW3h9wxBe+1nI1ebWq4fyGb4xNXVUumEstfdJo12lVXSvTmPGT1SUtyuDjnGGJ9XlZZQk7UWvcwsQv6350FyjpXHtqPvk1bTzhx/ohx92097sm1bVVwbc20Npvq40eOVFqiMibeWvtG1PHqmIT24LcWq1rz96HtEVdzHC5+/FwW8+w//b9jYGOxDk2YeMG7Udugrk/rAB33zzDb75ZgN2n6uADoDLwHfw4bhKfPrCGDz39iUMX/YOhrQHJCGjMDHBG0JFKQoKtfDwcUJ5cUljdzbSoZj9Vn+4CQRw75eIXjpfjJk/FYH2gG2POES53cHNfDNXr2ykGDpnMQa5CwH7MAyK74Tb165DDRVOb9+NsqgR6C8qxJUr16EIikfo/RM4ct7MPZlmmJdZAGcXJ9RdOIB9F6qgs/dBgK+98elNSBIxb80cxHftigBvkfUySUIwamICvIUKlBYUQuvhA6fyYpToAKiOY2fmPfSbOhWBdgAE7RH+zAiESJp3oELWlp2QJczEnPj2EACwC0zDzOEiHNnT4Bs2kA6dg8WD3CGEPcIGxaPT7Wu4rgagOo3tu8sQNaI/RIVXcOW6AkHxobh/4gjO1zvDxakOFw7sw4UqHex9AmBaBSoc35mJe/2mYionKNqHP4MRIfRQsgmcXeBUdwEH9l1Alc4ePgG+MB5enbMPByviMeUfIbCDEB6DlyB9bCf9LS9rfEOCxHlrMCe+K7oGeMOBzx7g80M1cvYdREX8FPwjxA4QemDwknSM7aRPBaosbNkpQ8LMOYhvLwBgh8C0mRguOoI9h1r5hJAlGc2h+g2f/vMzyIamY96gZprU/I7Vz4QhJCQEISGhGPLuiWYnESDww9/ffRk+Py3BuweqW311R/XTG+jbOxRR/Z/DupLeGDOyN/Q3AAAAmt9X45mwEG780CF490TT/VeCAH5/fxcv+/yEJe8eQLXZwQXwGDMRyXX7sPVADQAlsr7bh3vJKRjlbioda/DbJ39DaEhvRA2ZhR2qnnjCuR71ALTyKtyDMzp04LstYI1eNPh99TMIC+HmFjrkXTSbmiF8cWgxjZmPIf74MKQ1bVvQCvlVp7djd1kURvQXofDKFVxXBCE+9D5OHDmvv6ppfj4GqHOw72AF4qf8A1zIDcaS9LFoCDl+rMkNeoR2kNqJYWMjhp2TMxwk1uRcQJI4D2vmxKNr1wB4O0A/r9l4q78bBAJ39EvsBZ3vGMyfGgh72KJHXBTc7txEvqa1MW5eX6qsLdgpS8DMOfHg0k4g0mYOh+jIHjSlHaMcCH2em/0W+rsJIHDvh8ReOviOmY+p3GKNuCg33LmZD05Uc2soDwLTa4tl32jACvuZzdXm1iuDhdUEDzGm0A6Oeh+yd3aG1E7Y2Kuhn0gQMmoiEryFUJQWoFDrAR+nchQ3LUBmbW0ZHSpyf8CGb77BN998gw27z6HC4rpmiOr4TmTe64epUwPBlSTheGZECCTgkdtSnLbK1x8tVqWO1iOAm5c3bAEIXLrBr6MAuuqGN0A8AoR+GPPvzfjuu+/w3dZNeH+MNzcxQUeMmJuG7nkHcLLTZMwa4QYBAN2dvVgwtAe8/GMxfEwqlvx0FzqjzaiNS6FEArGNTdPfNhJIxDpo+e6PNDWGWCKGTqMFoIVMVo77pz7BlJQUpKSkIGXyOhT6h8DPuSk4zGFeZhFC567D8vjLWBDXFYEjF2JXvrEbN2EjcYOHW4PZWyGT7g72LhiKHl7+iB0+BqlLfsJdHXFFgLoUpXIXuHvYGZ5jgBp3iivg5OWFhpv6gAienh2hqShv1q6pCLERSyDWabhbUVoZZOX3ceqTKZycKSmYvK4Q/iF+cLYNxdx1yxF/eQHiugZi5MJdMK0CNUpL5XBx94ChpA8nmyh0LtYtj8flBXHoGjgSC3flt0gkmtJS3HV0h4e04RMbiIStsIONBG4enP8CFuzRgEk/1KC09C4c3T3QJIoIjaKo76C4wgleXk2agMgTnh01qCivavrMGqyR0RhdMXa+koL3yidi/X/+jq7N3VAUjFmZ+SgsLERh4S1kvRPX7CCHbeQcLJlIyFj8GS5qDExmEdthq5B3uwillTJkL2yP754dhlf3NM1ZFDwLmfmF3Pi3svBOnNECahuJOUsmgjIW4zOewQVuIzFxGCFzSyaq7h/Htv33MTjlSXQwbggAEKH33J9xq7AIJfIy5Cx0wqa/T8FHFzQQSqVwgBwVFZY3E/HrRYTgWZnIL+TmdivrHRhPrRG+OLScxszGEH98GNKati1ohfxamQzl90/hkyn6mEyZjHWF/gjxc0ZTU9PzMUBTitK7jnBvEhg2IqGVi68VucEs1uQ1G0jcPNC4JDTSNC+JRAybZnvGbCQSiHVabp6tjnHT+lLfKUaFkxcM044nOmoqUN7wdinjHNhA02INibj59jYbSCRi6PSLtfk1lAeR6bXFOt+A9fYzmavNrVeWeJgxzWHsJzrc2bsAQ3t4wT92OMakLsFPd3VGz/SYtrVlhPAb829s/u47fPfdVmx6fwy8mxvdCrnVpaWQu7ijZUnCI7elOG21rz86WsRA26BDTfU9zkiKQtyR6yBw5p4qup+fjb37zuCOcWXzKNCVY8/y9ShOGImogvVYur0EOqhw6L2XsFo9A0cK8nHp/GmsGef1qBTRDAGkzlI4DHwf2bm5yNX/nDu7E3PDRcaNjbAgszQcM744gRsXtyK1bj2mvrLB8HSzWC+T6tB7eGm1GjOOFCD/0nmcXjMOXg0CiKWQ2tWgqqplADUhhpNTOygq5c2KWh3K71ZB4upu0NIkAimcpQ4Y+H52o5y5uedwdudchIsAafgMfHHiBi5uTUXd+ql4ZYPMuAcAYkildqipqjJKIA8pG6QIn/EFTty4iK2pdVg/9RVs0D/U2IDQwRH2tXJUNl6OoWbPTVpvhwZ47cGLEA6O9qiVVzZdGSJq2kcudoJTOwUq5c0CVFeOu1USuLqbfyjOFK2WUVeGA2+MwrTDEfh01wo8afIKtCVcMHTRQgy4+SmW7K0yUzpbQNge4WmzMaZLCY4dvtjiSxgfLkMXYeGAm/h0yV5UmR3cBcMnjYDtz1vw/Z6t2Fc/HBOGWaNbRwRPSUGs4AJyzqsgDuuDUMnvOPiTNc8ftIFeYDkOHxT++DBE6OAIh1o55PUNnxi1FQhhU8/dleAO65qOt0J+gdQZUoeBeD+7KSZzz53FzrnhaNVUhQ5wdKiFvElgkKHAENrUo77ZfHRNArc6NzTxsHnNMq2OcTOInZzQTlEJw7RzF1USV7g3v+31wFhYQ3kwtbZY7xsPZz/T6xUeoc9wRaHF/KA6hPdeWg31jCMoyL+E86fXYNyDGP4RIZZKYVdThRYlCZ/cQgc42tdC3pSEDOK0rXy9LXhEw9bjxDtPYdyb72He1H9hX40NOiQkA7pifDl9IEY+NQSv/XDf+KQ2pzLzLby2pwcWrtuCz//ZGfvmLcTu8npUye9B7O4DLztAV3kKP5/lttY8WiTo0z8Wol8247tmLyNWV1fBsia0PDIrcfVMLsq1gJ1fMlKSu6C+xtp36Fsvk7ZKjntid/hwAuDUz2ebbl9JopEUrcXRbbvB1avVyM3YiCyD11hIEDcwHoJjm7H1FjeWtnA7vs7UIHl0cvOGppH0Qf9YEX7Z/F2zdzmrUV11H1BexZnccmhhB7/kFCR3qUdNtak3XksQnRQN7dFt2K0vrKtzM7AxS/1QsimvnkEuZwAkpySjS30NjIcXR8QhQnASu/fKoAOgyPkUH+/kfm+NHRrgtQcvYkTERUBwcjf2ynQAFMj59GPsbPiiIYnDwHgBjm3eCk4VWhRu/xqZmmSMTm66EmENrZOxFiffHY2Ur+ww8+PXEFZ3BRcvXsSlm+Ut3jBiCYHPFCyZ5YfDGzMhb8y7Spz+/FW89vUFkw+P6krO4cSVmsY8oLyajRyZAwJ7B7SuSBP4YMqSWfA7vBGZTYO3wCH5WTztcgD/ev0H2DyZgoHNrjSaR4FLG7fhFMIQE24HgcdYvDDeDVkfTMM7mbdwH4BOcQM/fjwDb2wubZHTTOvFNMrTn+PV177GBWNl8cXhQ8AfHy3bhgtOYvce021FPj7wUFxE7lU1AAXOrPgIOxree94K+SV9+iNW9As2f9fsi5G6Giaa8iOOQFy4ACd37+HyoyIHn368U58ruYeOfTwUuJh7FWoAijMr8NGOsgfODU08ZM61gtbFuHkkcQMRLziGzVtv6e+wFmL715nQJI9GK9OOGfjWUB7MrC3W+8bD2c/0eqV4hD4DoJ09bBUVuMt3xUJbBfk9Mdx9vGAHHSpP/Yyz1hpeV4jdS17C4u8f3YOdkugkRGuPYttufV6ozkXGxiwo+OQWRyAuQoCTu/eajNO28vW2oI0LdxuIbCUQ24Vj3PgOOP7xIvx7TwFE3cZh6dvPAIJ2cPfuCHE7D3i7tWo5NIuNrRSONr/hw6RO6NChAzp06ICOPpOwqewE/v3mdnjO/RBp/nYInfMRXnTZjvnL8jBo2jT4/vgiYvrGIyIxHbIu3dFOpJdHLIbEVtK0WAvFEIvFkIgavoOKIBGLIW5sLoGtpKG1GGKJLRr/BCASiyEWiyCAAJ0mLMOqJ2/i9ahA9B08FMmxPRGQ8DayTVYmYojFEn1f9jwy1+Hy+hSE9orDwAFRGLSyDpNnTzDujMN4bpZkEoshlnD3zO0HTcM03x/xYkxfxEckIl3WBd3bibi+BD54buk7iMieiajIAUiODMeY9fkQCJrrRwDPycuwYuh1vBETjMSBSegd8yYKx67FylQPvXjNdQlAxOleJAAg6IQJy1bhyZuvIyqwLwYPTUZszwAkvJ0NVd1lrE8JRa+4gRgQNQgr6yZj9gTfpn4aEcDnuaV4JyIbM6MiMSA5EuFj1iNfIHoo2eour0dKaC/EDRyAqEErUTd5Nib4Cgz0LfBIxeKFQTj+YgxiBsQiZkYO+o6JhL2I0w2vHUz4Fa89TLRv7oceqYuxMOg4XoyJwYDYGMzI6YsxkfbgRPHE5GUrMPT6G4gJTsTApN6IebMQY9euRKqHFenCWp8xRnMV+3acQVVFFt4bFY7g4GAEBwejd9JCHFbp41AkgrgxDpuhj1Fx411gEXrP+hCvBtsBjs7cRzo5zmxfh4xfCkwX7mUHsWhgN3SLSMKg5GgEJn2E2pRP8WGqOwQAhGIxRCIxWg4v5MZuGhyi3rPw4avBsIMjnKUtTuCw64tnx/lCVuyIkan9WzwTAQCwsYXU0QbnP4iHW8eO6Ni+C4au1mLKhm8xN1AIoD2e+mgLlveXYdVT/nBxdIa0Qy+kflmNLk84Q2CNXiCEWCyCSCxqdpVNB/mZ7ViX8QsKjJXFF4dGTY39kC+G+OPDMHcJPFKxeEEgfnmBaxudlg23kA6Ni5ko5DnMfqoCyweFIz4mDi9eSsK48Ab/tl5+QacJWLbqSdx8PQqBfQdjaHIsegYk4G19wuabjwECD6QuXoDAX15ATMwAxEanIdstBB2aBMZzs59CxfJBCI+PQdyLl5A0LtzK3GCIjYizpdgGD5ZzTXwmFHNrUdMSKOHm2coYN+7XwP6ek7FsxVBcfyMGwYkDkdQ7Bm8WjsXalang0k7LnNbyM30sSpp8WSTh8h7/GmqYtwwws7ZY8o0mLNnPeA6Gudr0eiV4SJ/hGxOQxI7EcJf9+GdiPyROXY9CnQnb2Q/CtGm++PHFGPSNj0BiugxdurfjYsyCraEpQtaWDdhkKhfrc95vHyahk76e69DRB5M2VVmUuzkCn+ew9J0IZM+MQuSAZESGj8H6fAEEfHILPJC6eCGCjr/IxWnMDOT0HYNIe86fW+PrjxobMrxn14boUHPrV5wvaYeAiCB4WHyv+n8XTeVNnL9SAZdekfBvk1tx1qKDovAC8vKrIXT1R3BPLzhYObx5mdWouJqLS6UCeIeEo5uLpb2Pxlgpk6YSN89fQYVLL0T6u7QIFihluHjuGqqdAhAR5GlmX54W1bfycOG2Es7dQxHsabJkMY9OgcILecivFsLVPxg9vRw4OdQVuJp7CaUCb4SEdwO/CpSQXTyHa9VOCIgIgmejoA8um7riKnIvlULgHYLwbi5G+xwb0KGm4DzyiiXwNxkTVtqhAUv24ENXg4LzeSiW+CMiyKPxNYiNaKtxK+8Cbiud0T00GK1QhSEPI2MboruzHqOjVyNkexbejTXtmdBUIf/CJRTeE6Bj994IeuBJW4MOBZ8OQe/PemPvbx8jwUTN0Bpqiy8g73oF0PEJhAe1dk+sEbo7WD86GqtDtiPr3VjTfZmLw4fCUnw0R4eaW+dwvlgC/4juyH0lAM+pPsPtb57m5NXVovC38ygS+yMy0B0t1NsK+XWKQlzIy0e10BX+wT3hxRuU5tHV3MK588WQ+Eege+4rCHhOhc9uf4OnOYFRW/gbzheJ4R8ZCPeWArcuNxjw4HnNKtowxrXVt5B34TaUzt0RGuxp+gvtQ2B+DeWBZ22x3jcexn7m1qtH5zO66nzk5BXD1j8cvb3MWUGDypvncaXCBb0i/Q0e5P+zoJRdxLlr1XAKiEBQo+L45dbVFOB8HhenQcZJqA19/WF4hIU7g8Fg/BlQ49SCBLwqWIVD78Zxb6P4o9FextLEKHwdfwDnP4xrWVj+gahPLUDCqwKsOvQu4v4UyrKECvun+xsW7n9yVPunw9+gcGcwGAzr+KO+MDAYDMZ/CQnCFx7GsT9L0Q5AV/U7ypyexsuT+/ypinYAkIQvxOFjj0vRDgBCdAqMR2KQx2OzoAk7BSI+MUi/DYTBYDCsh11xZzAYDAaDwWAwHgPY930Gg8FgMBgMBuMxgBXuDAaDwWAwGAzGYwAr3BkMBoPBYDAYjMcAVrgzGH8RNIoqKFq8GJfBYDAYDMZfBVa4P3LUyF6cjMSFR1v8gw9Ga9DizrEMbDhizb93t4A6G4uTE7Hw6F/HItorqzCs5xB8+Kup/xjbdqhP/AsD4ucZf8ywFvUJ/GtAPOYdfnDf0945howNR5r958+/AA+sFwUKL+Yg5+xZnD17FmfP5iD3plx/7D5Kfs/D9TKjPpUyXL1eavjZn4i2ta8aJ/41AH3nHf5TrD8G+eOBbf4H8MCyPrx/KgovIifnLHJycnHhZjlMZ3gVSnL2YeP6dfhq+xFckbeJ8zD+pLDC/ZFDqC6+iiuFcrDX9zwM95G1Zi7mfnYMVcaHWgtVo/jqFRRa+r/vjwu62/hm/ucQvv4lFkY/2pdCU3Uxrl8tMv6YYS1UjeLrV1FU9eC+dz9rDebO/QzHHjoQ/kQ8oF60N9dgYngfRMfGIlb/Ez8jgzuW/zlSQsPQM+Lv2NLwf8sBKH98E0kDFzfr5c9F29qXUF18HdeKqtpu/VGfwkeTpmHthdbf3jPIHw9o8z+EB5T1of1TexNrJkZiwNiZePXVmXg2+Ql49ZqAtb81K/ZrzmLVmGB0j5+Cxf/3H6x68xmE+8ch/bjpEp/x+POXKdx1SjlksiqoDT+FUl6C4jJFy3+tCzWqZSWoVDYFTAPa2gqUyOQwcch6NAqUy+Tmr3Koq1FaUo5aS1+M1dWQlVSakEWN6tISlJvrQFOD8opatDitORoFykuNdaaHTz6dEnKZDFUtTuSRycw8dEo5SorLzG7x0NSUo6JWB0CK8RkylG17Fh2bN9DWoqJEBrlxxybQKMohk5u1CNTVpSgprzVxRd+cr+iglMsga6kIyz6krkZpWU2TX+qUqCxtqZ9GtLUol5k5rhMi6IUvsXZ6LzPvBNdAUV5qwl56Pyk3FR98sWOIJRu2Hg1qysvN9MfjYwD/XC2dayJmzPtES5p8VQ9fDDVHp4S8pBhlJifc0sek4zMgK9uGZw0DAbUVJZDJlWZjXqMoR6lpxfDM05zvG2Fprny5xhy8etGj00IrDseiX5XQaDTQaOpR+/PL3DGtBhqRH7rb/4D0949A0fw8vrcgm8lV1qCtLYes0rQNzOsYep+vQK3OnH0t55QW/tcCDWrKTMcGXwyrq2UoaT4nTSFyMg8gV2Y0E2vsZQV8etLUlKPcVP+WxjYR201Yn+sMsDQm2sI/ddBqhXgi7Rv8knUSuddPY7HXfix8bxdqAADVODAvFW+eDsaHp2/h2q9ncO56IX77agzc1TxyMR5v6HFHW0o/Lx5K3dw8qZu/N7l3HUjvZytJeeIDGtLdjdx8e1CAhwu5hqXRxpsaIiLSXP+W0sI8qVMXf+rs3pXGf1nA9VV1mj6bGE6enXyou58btfftT//ccYu4s6xFS7L98yjJuz15dPGhLjFp9MIwd3KbvIPqiIioik6tGk/Bnp7UNcCbXL370qzvC0yMoaHr36ZRmGcn6uLfmdy7jqcvC7RcD6dW0fhgT/LsGkDert7Ud9b3VKAhIlJR1qL+NOKtlfRSmBMJxEE075TKsFtVFi3q/xSl/yedhgd1I183R3KNmkW7irm++eXTUunPi2loNzfy7OZP3u5daeD72aTklcnMPJQn6IMh3cnNzZd6BHiQi2sYpW28yY2jyqJF/UfQWytfojAnAYmD5tEplYqyFiVS9GsHSamX8/RnEyncsxP5dPcjt/a+1P+fO+hWS0USaWW0f14Sebf3oC4+XSgm7QUa5u5Gk3dwFqGqU7RqfDB5enalAG9X8u47i77nhDfrK9rSn2nx0G7k5tmN/L3dqevA9ylbacGHGnS/9i0aFhxAvh1dqOvT/0e//raBpsf3ID93KbUPmU5b9GOT6ji91W8ULfp8Pg3p1ZW6ebuQS89UWnexwaZ8OuB84an0/1D68CDq5utGjq5RNGtXMem9iLL/PYIC3Dyoi48HdfLqTJ19utHoz/Oplid2lPunU2fXSdzwfDZsRtW2aRQcN5+O6NVNpKLs9CQKf2k3KQybUlX2v2lEgBt5dPEhj05e1LmzD3Ub/Tnla/h8zNJcLZ/bImZ4fMIAk77KE0PK/TS9sytN+r6OiJR04oMh1N3NjXx7BJCHiyuFpW0kvarN+pgqaxElRr9GB7lAoKrTn9HEcE/q5NOd/Nzak2//f9IOfSCoshZR/6fS6T/pwymomy+5ObpS1Kxd1BTu5udpzvcN4ZmrxVzTjFbopTmaa0spzj6CFp+vNz7EHXMcQEvWTSVfaRy9n8e1qds5hdx9Zhg358lVh+mNmAR661hD3Kno+KIEinnjECmJSHX8Leo3ahF9Pn8I9erajbxdXKhn6jpqClPzOlZlLaL+I96ilS+FkZNATEHzTrWwr+WcYux/+vOIiEhJ+6d3pg6DX6LZA3tSV+PY4IthzXX6Ni2MPDt1If/O7tR1/JeUX/wVTfB3JQehiKSdOpOP/zj6oui+1fYyzB/Nbc6vJ6rKpn+PCCA3jy7k49GJvDp3Jp9uo+nz/Fqesc3EdjP46gTDhn+Qf2qu0dI4e4paclGfV5V0+OWuZD/4c5JpiajsK3raRUqDPrvVmOsYf30e+8L93p408nUdTCsv1hGRlip/3UZ78lSkyttFGceKuCJPdZmWJUmp1+sniEhFR2d1p05jM6hMS0S1t+laQS0R1dKhV3qQS/RCOl6pJaI6uvjJMHLrOIrW32lFSCgy6Xk/F0pamkd1pKGSn16jKKmQOuoL99rDs6iH+xBaeaGWiDRUtCmVfL0m0bZKo35UR2lW9040NqOMODGvESfmYZrVw52GrLxAtUSkKdpEqb5eNGlbpT5Je5NdO196cvlxunnzGhUZV0bK/TTd25ZcE+bRAZmGqPYkzQ+1p7D0c1RvSb57eyjN15UGr7xIdUSkrfyVtu3JIxWfTObmocqjXRnHqIgzEF1elkTSXq/TCVWDjHbUzvdJWn78Jt28VkQK/QLkOul7To+HXqEeLtG08HglaYmo7uInNMytI41af8dowkSKzOfJzyWJlubVEWlK6KfXokgq7Kgv3Gvp8Kwe5D5kJXFTLqJNqb7kNWkbVZr1lXu0J82XXAevJM7tKunXbXsoT2XBhxp0n7iQDpdpSVv8NY12c6SOwRNo3cVaImUeLYl2oMA3TpKq0VZisg9Mo+/yVUT1N2jtCDfq8LcvqURrSQecL9i6JtC8AzLSUC2dnB9K9mHpdK6eSHNtOSU6R1L62Toi7V3aMy2AOk/ZRnfriSd2jBZePhs2Q3tnDQ1z9qa0PXpnVB6ml/070KgvZYaLjeYaLU90psj0s1RHWrq7ZxoFdJ5C2+7WW+X35uZqzbmGMcPnE0aY8NUyvhgyKABUlLcrg45xCiTV5WWUJO1Fr59Q8fhYkw2+5wKBXunhQtELjxPnchfpk2Fu1HHUeuJcbjp527pSwrwDxIX7fAq1D6N0TjE88zTn+4bw5gsLucYAq/ViCFcYhdKC7Lskl8tJLq8ihb6Z5tpSinPoTyvyb9DnwzpQp9FfUZGWp3A3l6vqdtIUd29K29vwzVNJ+6Z5N16MUe6fTt5iewpM+464MF1LI9w60N++LLGgY/25du3I98nldPzmTbpWpDC0r6V1yYT/GaZ8zr9FLrGmY4MnhlVHZ1H3TmMpg3MAun2tgGpJQ3WlG2hsex9K21VKVffqSNMKe5kv3Pn0pKFryxPJOTKduHS1h6YFdKYp2+5SPe/YpmLbUB6+XGfAH+Wf+sI9Mv00VcgrqOj0fyilmyeNXHeDNESkPDCTfG2j6d1LJr41MP6yPOZbZVQ4vjMT9/pNxdRAOwACtA9/BiNCJJCEjMLEBG8IFaUoKNTCw8cJ5cUlAARwdnFC3YUD2HehCjp7HwT42gOqLGzZKUPCzDmIby8AYIfAtJkYLjqCPYe4m1LWoM7Zh4MV8ZjyjxDYQQiPwUuQPraTfk+SCqe370ZZ1Aj0FxXiypXrUATFI/T+CRw5b7SFQ+AMF6c6XDiwDxeqdLD3CYCvPaA6vR27y6Iwor8IhVeu4LoiCPGh93HiyPnGbTmSxHlYMyceXbsGwNvUvy23kWLonMUY5C4E7MMwKL4Tbl+7DrUF+VTHdyLzXj9MnRoIOwCC9uF4ZkQIiE8mM/OAJASjJibAW6hAaUEhtB4+cCovRknjvUwJEuetwZz4ruga4G30r+pVyNqyE7KEmZgT3x4CAHaBaZg5XIQjew4ZtATUyNl3EBXxU/CPEDtA6IHBS9IxtpPe9VWnsX13GaJG9Ieo8AquXFcgKD4U908cwXmVOV85jp2Z99Bv6lRwbtce4c+MQAhZ4UM2Ugyd/Rb6uwkgcO+HxF46+I6Zj6mB9oBtD8RFueHOzfymW7Y2UjyVvgJj/SSAqBtSJiRAk3UQJ9TW6MAG0qFzsHiQO4SwR9igeHS6fQ3X1YCmqAAljqHoE2QHCNojrLcPqm4XoVYAntgxwqINOQQeYzAxuQ77th5ADQBl1nfYdy8ZKaPcDffqaYpQUOKI0D5BsIMA7cN6w6fqNopqBVb4vfm5Wj7XKGZEfD7RXOAGmvuqKy7yxJDxeSGjJiLBWwhFaQEKtR7wcSpHcYnOvI8Z7YVSZW3BTlkCZs6JB+dygUibORyiI3vQ5HJDMWfxIHDhPgjxnW7jGqcYnnma8X3D0XnzhX5wM7mGDx69mELzO1Y/E4aQkBCEhIRiyLsnmh0kQOCHv7/7Mnx+WoJ3D1Sb2S5hPudag430KaSvGAsuTFMwIUGDrIMnLOhYf7IkEfPWzEF8164IME7YVq1LfLkSAGzgMuJ1k7HBF8MCZxc41V3AgX0XUKWzh0+AL+whhJ2jHcQ2NhDbO8NZagdha+1lCl49aVBUUALH0D7g0lUYevtU4XZRLQRWjM23Hlqd6wywPKYBD+2fGvz2yd8QGtIbUUNmYYeqJ55wrkc9AK28CvfgjA4dbIxPYvyFecwLdzVKS+VwcfeA8SN5ujt7sWBoD3j5x2L4mFQs+ekudKQDIELo3HVYHn8ZC+K6InDkQuzKVwPqOyiucIKXl2NTJyJPeHbUoKLc+qeENKWluOvoDg9pwyc2EAkb1KyFTFaO+6c+wZSUFKSkpCBl8joU+ofAz1nY1AkAiEIxd91yxF9egLiugRi5cBfy1YBWJkP5/VP4ZIr+/JTJWFfojxA/Z3A92EDi5gE3S5ZtjHMbiCVi6DRai/KpS0shd3GHh5GyeWUyMw/o7mDvgqHo4eWP2OFjkLrkJ9zVUVPSspHAzcPNjIOqcae4Ak5eXmiylgienh2hqSg3aAloUFp6F47uHmgyiQhNJpFBVn4fpz6Zopc9BZPXFcI/xA/OQnO+UopSuQvcjRVhrQ816l4CidgGNs1sIZGIodM2390pgFgibvzLzs0NTrVyyFXW6qApoduIJRDrNNACsA0dgDhkYtX7m/Dj3i+w+Ivz6Nk/CV4CvtgxwpINGxC4YeTEYaDMLcisuo/j2/bj/uAUPNnBqJ1tKAbEAZmr3semH/fii8Vf4HzP/kjyEvD7WGMHpudq+VyjmOH1icYhmjDwVf4YMkSHO3sXYGgPL/jHDseY1CX46a4OpIN5HzNCfacYFU5eMHQ5T3TUVKC8qskSTS4mhkSsAxfufPM04/sGWDlXk7mGDx69mEIUjFmZ+SgsLERh4S1kvRNn3AK2kXOwZCIhY/FnuKgxcJUmzOUqaxCI0RSmdnBzc0KtXG5Bx1xrG4kbPMwlbGtyCm+ubMB0bPDFsCh0LtYtj8flBXHoGjgSC3flm/nC1Up7mYJXT7YI5RID3t/0I/Z+sRhfnO+J/kleEFgcm389tDrXGWBpTCMe2j9F6D33Z9wqLEKJvAw5C52w6e9T8NEFDYRSKRwgR0UFzzMbjL8cZtz5cUEMqdQONVVVRg+yqHDovZewWj0DRwrycen8aawZ59U0WWk4ZnxxAjcubkVq3XpMfWUDIHaCUzsFKuXNUpOuHHerJHB1d2n6zAJCB0fY18pR2XhxjZo9ByWA1FkKh4HvIzs3F7n6n3Nnd2JuuKixjwak4TPwxYkbuLg1FXXrp+KVDTIIpM6QOgzE+9lN5+eeO4udc8PRsofWwi+fWCqFXU0VqozWXUsymZqH6tB7eGm1GjOOFCD/0nmcXjMOXlZ7oxhOTu2gqJQ3W0h0KL9bBYmru0FLQAgHR3vUyiubHhQmanrDgkAKZ6kDBr6f3SR77jmc3TkX4ZzwJnxFCqldDaqMFdFGPtSCZjlZLa+EwrEDOti2RgctUV/Kxq/SSPQo3YHVaw/CdspmbJ8fDpGl2GlGa2zoMnwSRtj+jC3f78HWffUYPmEYWmhEfQnZv0oR2aMUO1avxUHbKdi8fT7CRZZ9jI9Wn2vJJ3jhjyEDVIfw3kuroZ5xBAX5l3D+9BqMa1CgOR8zQuzkhHaKShi63F1USVzh7mLGGA1Ymqcp3zfswPq5tgY+vTwwLhi6aCEG3PwUS/ZWmazbYSZXAQIIbepRX9/QiqAz8XBr0ydqyCsVcOzQwbKOLfGocooe/hiWInzGFzhx4yK2ptZh/dRXsEGm46qG5gpsC3vx6kmNS9m/QhrZA6U7VmPtQVtM2bwd88NFDzm29bnOgIca0xzW+SfgiOApKYgVXEDOeRXEYX0QKvkdB39qg9ckMx4bHtbb/mAkiE6KhvboNuzWv06pOjcDG7OqUSW/B7G7D7zsAF3lKfx8tkJ/JVCJq2dyUa4F7PySkZLcBfU11YAkDgPjBTi2eStuaQFAi8LtXyNTk4zRyVJAeRqfv/oavrbwCixxRBwiBCexe68MOgCKnE/x8U7ud0CCPv1jIfplM75r9pJedXUV7jfrAwCgvIozueXQwg5+ySlI7lKPmmolJH36I1b0CzZ/1yxQ1dWoatHBg8AvnyQ6CdHao9i2Wz+f6lxkbMyCmk8mM/PQVslxT+wOH85AOPXzWVSYu2LRAgniBsZDcGwztnLGgrZwO77O1CB5dLJRWzEi4iIgOLkbe2U6AArkfPoxdja8fkvSB/1jRfhl83fN3pusRjUnvBlfiUZStBZHt+0G1001cjM2IkttwYceBKrC/k9X4HQNd3Xs+63HIIgfiDhJa3TQEnVxEUrv10MaOBhPjx+NQcFO0NzXAtDyxI4hrbKhQzKefdoFB/71On6weRIpA5tdQWxAXYyi0vuolwZi8NPjMXpQMJw096EFHsrvW30ur09Ygj+GDNBWQX5PDHcfL9hBh8pTP+NsgwLN+ZjBqycASdxAxAuOYfPWW9zctIXY/nUmNMmjYdHleOdpxvcNaMVcWwOfXh4Cgc8ULJnlh8MbM2HyTbBmchVEPvDxUOBi7lWoASjOrMBHO8oMYoKq9uPTFafBhen32HpMgPiBcRZ0bAWW1qWHhC+GlVfPIJdzACSnJKNLfQ2qlQDQDva2ClTc1X+ZaAt78epJjeKiUtyvlyJw8NMYP3oQgp004NLVw4xtfa4z4KHGNI9F/wQAKHBp4zacQhhiwu0g8BiLF8a7IeuDaXgn8xbuA9ApbuDHj2fgjc2l0BTuxpKXFuP7/Kb4ZDz+POaFuwA+zy3FOxHZmBkViQHJkQgfsx75AkcMmjYNvj++iJi+8YhITIesS3e0E4kA1OHy+hSE9orDwAFRGLSyDpNnTwAEnpi8bAWGXn8DMcGJGJjUGzFvFmLs2pVI9RBAJz+D7esy8EsBf+Eu8EjF4oVBOP5iDGIGxCJmRg76jomEvUgEQIBOE5Zh1ZM38XpUIPoOHork2J4ISHgb2cbbX+suY31KKHrFDcSAqEFYWTcZsyf4QtBpApatehI3X49CYN/BGJoci54BCXhb34FYLIGthO9SjhhiiS2aNxGJxRCLRRBYkE/g8xyWvhOB7JlRiByQjMjwMVifL4CITyYz87AfNA3TfH/EizF9ER+RiHRZF3RvJ9JfAW0pIwzmJoDn5GVYMfQ63ogJRuLAJPSOeROFY9diZaqH4UkQwCN1MRYGHceLMTEYEBuDGTl9MSbSHpxJOmHCslV48ubriArsi8FDkxHbMwAJb2dDZdZXfPDc0ncQkT0TUZEDkBwZjjHr8yEQ8ftQy3kJIRaLIZaIGq+wiCScLRqxcUA3h8N4LioaSX1iMft8Aj54LxXuAss6aOELIjHEYjFEAsA+eggStJdx6tczyDq0Fxn/noKooFFYfdmWJ3YAiMUQS7iN1vw2NMYOfZ8dB19ZMRxHpqK/qb3D9tEYkqDF5VO/4kzWIezN+DemRAVh1OrLID4fszDXVscMr08YY2xT/hgCxBCLJVx7+0GYNs0XP74Yg77xEUhMl6FL93Z6vzTjYwLOBhJbCUQABJ6TsWzFUFx/IwbBiQOR1DsGbxaOxdqVqeBcrqkth4jzOU4xPPM04/sGWDFXs7nGGCv1YoxQDLFIBLHIxDVKIecD4sZdOyL0nvUhXg22AxydDdvCfM6FKATPzX4KFcsHITw+BnEvXkLSuHB9TuewcegGh8PPISo6CX1iZ+N8wgd4L9Xdgo5N2cfoMwvrkikdGyMWi83GBl8M111ej5TQXogbOABRg1aibvJsTPAVAJJYjBzugv3/TES/xKlYX5Fsvb2a5Q8Dm/PqyR7RQxKgvXwKv57JwqG9Gfj3lCgEjVqNy7b8vtIitg2w5891BvxB/mljC6mjDc5/EA+3jh3RsX0XDF2txZQN32JuoBBAezz10RYs7y/Dqqf84eLoDGmHXkj9shpdnnCGrigLWzZssli3MB4vbIhM3PNjGKHDnfWjEb06BNuz3kUs/7ZTBqNtUGViRsBk3P+kAGujriK3SAz/8KAWzxi0HjWOzQnBONm7uLJpHJwBQJOL9KgEnHz+BjJfMHpotI3QFXyKIb0/Q++9v+HjhJZvnFcfm4OQcTK8e2UTxnFCITc9Cgknn8eNzBfg/iiEYjAeElXmDARMvo9PCtYi6mouisT+CA9q+dwV4wFRH8OckHGQvXsFm7jEAE1uOqISTuL5G5l4gSUGxv8YzOOtQX0G/7dWhr9/Np8V7Yw/AAEcfMIQH9cWRTuHrZ0Yityd+GrXLzh18gi2f/wethSFIjmh4yNKClpc3bQJJ71GYVx0y6IdAGBrB7EiFzu/2oVfTp3Eke0f470tRQhNTkDHRyMUg9F2CBzgExaPOFa0tzG2sBMrkLvzK+z65RROHtmOj9/bgqLQZCSwxMD4H4RdcbcKNWprAQcHMwUHg/Eo0ORgxaT3oJq9GfPi2tj3an/H9o9XYGPWNdxViuDi1wd/e2EOpsZYejvFA6KrwI7XJmG7/zJ89VJvM9tpavH79o+xYmMWrt1VQuTihz5/ewFzpsaYfSsEg/FHo8lZgUnvqTB78zy0dZgyOGp/346PV2xE1rW7UIpc4Nfnb3hhzlTEsMTA+B+EFe4MBoPBYDAYDMZjAPu6ymAwGAwGg8FgPAawwp3BYDAYDAaDwXgMYIU7g8FgMBgMBoPxGMAKdwaDwWAwGAwG4zGAFe4MBoPBYDAYDMZjACvcGQwGg8FgMBiMxwBWuDMYDAaDwWAwGI8BrHBnMBgMBoPBYDAeA1jhzmAwGAwGg8FgPAb8f0fnVUWOB67tAAAAAElFTkSuQmCC;" vertex="1" parent="1">
          <mxGeometry x="10" y="20" width="664.55" height="70" as="geometry" />
        </mxCell>
        <mxCell id="PZ8WvZYUdpvpFTueEGIm-2" value="" style="shape=image;verticalLabelPosition=bottom;labelBackgroundColor=default;verticalAlign=top;aspect=fixed;imageAspect=0;image=data:image/png,iVBORw0KGgoAAAANSUhEUgAAAvsAAAFZCAYAAAAGveA2AAAAAXNSR0IArs4c6QAAAARnQU1BAACxjwv8YQUAAAAJcEhZcwAADsMAAA7DAcdvqGQAAP+lSURBVHhe7N13eFPVGwfwb9O0lO5NJy0tpUApbVqgZckGRYbgxAHK8qeACIiTJSoqqCgOVARExIEoKigge1Rmm25W2XTTpqUNTZrx/f2RdKVNWoaAeD7Pw/Nocu8957znPeee3N6bWJEkBEEQBEEQBEG440hMXxAEQRAEQRAE4c4gFvuCIAiCIAiCcIcSi31BEARBEARBuEOJxb4gCIIgCIIg3KHEYl8QBEEQBEEQ7lBisS8IgiAIgiAIdyix2BcEQRAEQRCEO5RY7AuCIAiCIAjCHUos9gVBEARBEAThDiUW+4IgCIIgCIJwhxKLfUEQBEEQBEG4Q4nFviAIgiAIgiDcocRiXxAEQRAEQRDuUGKxLwiCIAiCIAh3qNtnsa/KQeKm77Fi2Qr8uC0DRTrTDf5pWpScy0BKSjrOFKlN32yQuvAU0tPPQqE1feffRI/CHe/hf09Nwid/l5q+KQiCIAiCIPyL3QaLfT0Kdr6Ou9uEovPgRzFu4jg8MjAKrePnIqFpa+4bonzXC4gPi0R0dEe0e2I1ik03qOcKfnkmGh2je+Ll7U2oqD4H61+8D4MfWoS/K03fvJW0OPnnV1j+9TJ8vf2i6ZuCIAiCIAjCv9gtX+zrL3yLZ0bNx5ZsB8Q9+wnWb92Knz+eBFlREtIvV22lRXlBDnKKr0Bfd3cAWpTmZSO/rP7ldd2VYuTmFKK8/lt1VSZj8UvLcNqtBTysCZCg6TYNIAmAYAMba8sKkFdS60OAvgipO/7Ept8TcKpefSpRmp+DArMVVUNRoIDpR4p6ZdS8YyFeANQlyMurOp4tus3bgiMHk/D7jIg6mzUlfubrYKFN2lLkZeejgS4TBEEQBEEQbqBbvNjX4uiqT7CxAPAY9h5+/ngS7uvfHyMnfYRtmT9ijNcVJH/xFLoHucPNxx/+nq5oETse32YZVonKxI/xYHsvePoFwNfdExHTtkAJQF+0F+89HA0fN0/4+beAu1c7DJ+/DfkNrnx1OL38ZSyWt8Do2U8ipHZE9Nn4fnwMwjs9g18KGty5hj4Hqx5ri7YPvoUvpt2Flp4+8PPygeyZn3FBcxwf3XcvPkzTApVbMS28Jdo98zuuQI+8rfMwJNwbnr7+8HH3RsSDH+FQWa3jPTAXbz/YDr6+wRj9/SnzZegBwHK8oM/GxlcGIMTTE35+XvAMHYLFiSrkrJ+NRx99FG9sMdzGYzF+ltqpB2CpTVAi8eMH0d7LE34BvnD3jMC0LcpaQRQEQRAEQRBupFu82L+MgwfToYEd4ocOg1+t2kjs7GGny8OeTWlwv28Wvvj+R3z+vyio5V9j1ge7odYX4Id5r+KXM8F46vMfsWbJVNzlBVCfj7WTHsJL6y6izdOf4vs1i/BIwAVseH00Zqyvf3OOvuAXzHlrB5oNfwNz+zjCqs6bxTiRnI6TaSk4oWjg8n1trEDBudM4sX4unvtBjbueGIGOjpeR/NVsfHLYFbFDhiDaUwJYB6LHI4/hsb5hkOZ9jymPv4Etqp54dfl3+GxiGHJ+eRETFx6Btup4vy3A3L0t8MDE0egZWGm+jEOVgKV4QY+cbybhyYU7oew8DZ+v+Qovdy3D0dNqVOSdxslTJ3CmoBJoLH6W2nmoEnoLbaos+AHzXv0FZ4Kfwuc/rsGSqXfBq0l/QxEEQRAEQRCuCW8l7Sku6mFDSDz5xPoK03dr0fBy7lke3/YiZTZWtBv2Nct0efzyHgda2QRxyBvrmVakNWx6aTmHOFhR2vYF/q02vHR57SN0l0jo/eTvrFtKGXc814Y2rn350XEttZlvsosN2OzuL3nJuIUq7yiTjxfQeKhalFwz0oFW1v6csElFarO4sLsNYSPjrCNKkirunBJCayt7jlyjJDWpnBdrQzQbzm+UhiMUrRxGRysbRr/wFzOPHeOx5A95j6MVbe96n2cqjceThvLpTQrDDo2VUa2BeLGAywbb08omirPlmlrbapm1sDtt0IyDPi9oPH6N1MFSm07lfMl7HKxoEzSEb6xPY1WXCYIgCIIgCP+MW3tl39oFLo7WsKIShYVlpu8CKEfi0tHo7O8MV79ghPdfCLmGIAlKWmDUvNdxr38B/pg9EtEhkXj0yzQocy4gp5KQ+AUhWGo4SjN/f3hJ9CgtKoKm9uEV6/Hx11loHhaMkp8X4t0VfyNPD+jPbsXnP6UZ9m3RFlFtvGBbez9LJN4IaGkPwBoeHm6QUAddg98spENedi7U1CD5vYFo37Yt2kY/j03lgLVEAn3VBW/r1pDFutbd1WwZFuKlzUN2ngaU+MDf3xiYBmibGr8G62C5TfAehXmv3wv/gj8we2Q0QiIfxZdpDd3vLwiCIAiCINwIt3axDxfExIZBSjX2/7QWp2svinU6aLJX4eUZ3yLN9xlsPFmM8mPvortNzSaOXWZgw9Hj2LN8MuKkx/HDS/PwC1zgZAWwqKD6Hn3tpUso0Uvg7u2FWrtDX1GKUpUelw+vwNxXX8Vr7/2J8zpAc+wnvP7RZuNGKihVDa7Wr5KV8RYhPfR6w/87OTnCCjbosfA4KtRqqNVqqDWVKNv+PEKsTfdvnN5SvCROcHIAoLuIs2eqnozVQ2fyKILEpenxq6+xNjmiy4wNOHp8D5ZPjoP0+A94ad46KEwPIwiCIAiCINwQt3ixL0X0U8+gnztQuu1F3D1sKhZ8tAQLX30SvdoOw2enL0OpBQBCnS/HDx+uRXrVult3CssnjcWb60/Btm1nhHtIAAIS3z7oE2kLbcZqvPnZNhzevw6vL/wNhVa+uHtYD9jVKl3i9yRWJh7B4cOHcfjwYRz8ZQoibQCbHnOwY/UEQHccH/T1hHOLe/DZ2etc8Euc4exoBWiP4Nt5i/Dej2nwuqsnOthqceir1/HVzhQcyzyMv1YtxEd/XGj4W3QawYpy8/GSBKBnz7aw0R3F58+Ow+vvv41pQ6Lw4LL8OseQ+DU9fvVJ4GuhTZpTyzFp7JtYf8oWbTuHw9hldZ+TEARBEARBEG4c0/t6bja9XsvcbfM5NMyJxrUfASk9Ymbyr+LTXP1oCO0My3i6yoazf2spHUeuYZk2l989FkDbqn1s/Thw4UGW6fUs3b+IQ4KbG48FolkA+8/eyjytnnq9+X+aE4vY005Cp/tWsVivp15zkksGuNLGYwi/PKs12f4Kf37cgxJpa07dqaJee4Yf9bWnxGk4vy7SU6/X8Oi73WknceFDP5RTr9fw5OdD2MLaUCfnB39gmb6Ufy8cwlb2VjV1lXrx3s+yqKl3PH3jZWgsxEuvp/bSDs7p7UOpsSwrpwhO/6uEZz7qS3uJE4d/XUR9Y/FrrA4W2qTO/Y6PBdhWv27rN5ALD5ZRr9ebpoUgCIIgCIJwA1jR8GXxt8yDDz6IdevWmb4s/Ic8+OCDWLt2renLgiAIgiAIwnW65Yv9/fv34+JF8cut/2UBAQHo2rWr6cuCIAiCIAjCdbrli31BEARBEARBEP4Zt/gBXUEQBEEQBEEQ/ilisS8IgiAIgiAIdyix2BcEQRAEQRCEO5RY7AuCIAiCIAjCHUos9gVBEAThH6GFsqQcVb9ZLgiCcCvcPot9dS4S//wOy5d9jZ93HYfiOn+w9t+m8u+56NvzNexWm77zT6nE33P7oudru3HTirwuldg/rw+6v7zT9I0m0CF77xqs3nUOt09a3Y51ulp3Qhvqq9w/D326vYydN3Fg6LL3Ys3qXTh3DYGs3D8Pfbq/bPryDXPz56Y7hQ6nvxiO8D5vYL/S9D1BEISb57ZY7Jcd+QgjO4Sh++i5+PTLj/DS/TKEdp2DfSrTLe9cLM3BieMXoLhpX4RKlOacwPELCjRWZOXB9/HY+C+QfksvTxGlOVk4cbHE9I166tf3ChI+n4EZn+xF43vfLFdXp/ptuh1cXRv+LViag6yTF1HS2MC4ga4kfI4ZMz7B3hIAqMTB9x/D+C/Sm3RFmKU5yDrxz/1Wyc2fm67V1cXtn6bP+QGvLFZi8srX0dPB9F1BEISb59Yv9ku34uVRL+FQh0U4dPYkkg7LkXUhDV+PbIHKWjO2TlmE3DwFVPraO9fQlhWiSGnyprYMhUVK1LxaidL8XBQqG7h8VlmKvNziho+vU6Iwz/x7Rbl5UDT4poG2vBD5JZWmLwPQorwwDwqzV8ws1LcOPVSKXOQUNOHPxdpyFOYpzFzNb/g42guJ2Lw1GXkNVMNSv1SW5iG3WFUr/g2r33fX1+769XXCQ2vyULDucXjU2s6S622XXqVAbk4Bys12iPk6NZQv9dtUpZFY1RsDMOZdPhpKSYv11qugyMurtZ+ZNjQ6JsyXb7E9lsZoLZWl+cgtVJr9a0ND8TVHW1ZgdltLOWKxrg3MJ04PrUFewTo87gEAWlxI3IytyXkmbWg43xt2vXG8UXOTwdXEvC4L5dRrh7m4Gd81nWcazVMTDfSbgZl+se+KVzf+ghej7apfasrcIQiCcMPxFiv4+j66OvXnJ2d1pm8ZlBziJ4/K6OsdyLBgL7q17M3p689SS5LqBM7ufS9nfTiJ0c4S2kS8zINqNRNm9+a9sz7kpGhnSmwi+PJBNUsOfsSHOvjSt1Vr+nv6s9vUX3hOS5JaZn07jtG+3gwKDWCLVg9x5Tkdqd7HWb2GcfbSVziwXSuG+LvSte0oLstQV1WMhz55lDJfbwaGBdPLrSV7T1/Ps1rDu+qE2ew9ZA6/nHMPI0Ja0svRk52m/sYcYzN1eZv48l3+dPMJYmBQHMc9czdbeD3B9RXGo5utb12q/W9zYJgXvVq2YWsfV3pGj+N3pxvYkDrmbXqZd/m70ScokEFx4/jM3S3o9cR6Vpg9TiXzvn6EoZ4OtJY60TsgkKEPfsWLukb6RZvFb8dF09c7iKEBLdjqoZU8Z9q9DfadpXaruGlCAD0f+4W86vqqmTC7J7u8sJ0qxU8cF9mNr+42BpqkKmEOe0Y/yw3lN6Bdqv18e2AYvbxask1rH7p6RnPcd6cN+9dRq04W80Vnpk2WYtXQGChjwuzeHDLnS865J4IhLb3o6NmJU3/Loa7ReuuYv20uB4V40TcklP4tWrHfgr+pMmmD5TFhqJPZ8i3mvJkxaqrkID96qAN9fVuxtb8n/btN5S/GQWM+vqYHIVWbJjDAfQAnPd+PbVs1sK2lHDFX10bmE3XCbPbs8gK3X8nj14+E0tPBmlInbwYEhvLBry7ySoP5bihRtWkCAzwfq67/9cbxRs1NlmOu4s4X49hj1l5WzajqfbPZI+5F7jAkk4VyGmjHmZwG46ZrcJ6xlKcmGum3huehmpzr2eUFblc1ce4QBEH4h9zixb6KW//Xks26vMnMhiZaKrljShu6dnmN+4p1JCuYseRuenkM4/JsHanaxAn+dmzecjDf23eap09eZDlV3DTBn3bNW3Lwe/t4+vRJXizYyaltWnDgh+lUktRe/J6jWvrxsXXFpHo3p4Z584E1BdSRVJ4/yXNKGo9tQ/v24/jTGTWpOcUv7vWi+/CVzNWRyh1T2Ma1C1/bV0wdyYqMJbzby4PDlmeTxhOwfzNP9nh5K/O0pPLAK4yyj+YcuYZkOTc/HUzXu95hagWpzf2LL3RyorWH8YSqtFBfE+rU37hm70XDYkt9jAvvcmK7mftNNyPLN/PpYFfe9U4qK6hl7l8vsJOTNT2Mi32zx9FWMH/1A3QLHMff8kt4uULbaL+od09lmPcDXFOgI6nk+ZPnqDStT0N9Z7HddRf7V1ffmn0rdOf56QBntpy42VgnFXdMDqXbkK+Yq7sB7VKn8rc1e3nRUDEeW3gXndrN5P6qFU21WnVqLF8aalOjsTIZA+WG15p59uDLW/OopZIHXomiffQcyjWN1PvyRo5r6ckBH2awgqSuOInrNqZSbdIGy2OikfIttcfcGK1DyZ1T27DFwA+ZbjgAvx/Vkn6PrWNxY/E1odo0gf5SV8Y3uK3lHDFb10bmk6oF+y8VpLYin6sfcGPguN+YX3KZFVoL+W6sb/Vi/7rjeOPmJssxr+Cvo1vQf9wfrPrYrfpzPP2rPlRYKsdMOxqKW0PzTIHFPDXRSL81pV9+qWDT5g5BEIR/yC2+jUcHRcllwMUd7lam7wFQJ+DHX/PQ43/T0N1NAsAO7cf9D/dId2HjjjLjRrbo+fLnmNa9FVq19kfVrZG2PV/G59O6o1Wr1vDM+BkbCjrh3t5SXDh+HFnlEegedQX7d6VALXGBq3MF0rf+ifQSPewDW6OlvfEgVk4YMmcxHgi2BaQhePiRHtAmbMf+SjUSfvwVeT3+h2nd3SABYNd+HP53jxS7Nu4w7gxYOQ3CtLn90cIasI/uj+7e53EyqxKoTMSf24vQffRYRNoB1j4D8MacB+Bt7A31IQv1rT66gW3kMDzawx/W5fk4d0EHn0BnFObkmmwFVCb+ie1F3TF6bCTsYA2fAW9gzgPe1fdxmT2OtR0c7WxgZWUDexcXONlZN9ovEhdXOFekY+uf6SjR2yOwdUtUhbSuun0nvRHtbqi+tUn8MeKhnrj850/YpQSgSsC6P0rR5+Fh8NHcgHbZRmLYoz3gb12O/HMXoPMJhHNhDnKb8Hd7s/nSQJuakiO1x4C/AwBYwWnQNMzt3wLWsEd0/+7wPn8SWZWW663e9ys2X+6FJ59sDzsAEjcZ7r83ErZ1at+UMWG+fIvtsTRGq4s/hJ83FKDTvb0hvXAcx7PKEdE9Clf270KKMSBm49sAK9d7MbOhbRvJfViqq9n5pG7Z1naOsLOxgpWNPVxcnGBnbSHfTVx3HG/g3ISrjHltFssx046G4mZQe57xRHKjeWrCQr81tV+aNHcIgiD8Q27xYt8aTk4OgKIIRQ09/FWZjZwiZ/j5Oda8JvWFr4cWRYXGRwKtbOHl42XSECvYevnAy/iiLi8PhVcOYsnoh/Hwww/j4YefwLILoYgMdoG1NAozlr2H7sdeRddW7TH0td9wpvpcJIGNrU31Ue28vOCsVEChrkR2ThGc/fxQUzMpfH09oC0qrH4FAKo/w1jZwNZGD60OgDYf+Zcc0cLHqWY7qXV1GyzWt3oPA332H3h1UBv4hcbjnpGj8MZfl6Bn/ZWlNj8flxxboKZIK0ita6LW1OMAjfeLNGoGlr3XHcde7YpW7Yfitd/OoMHTu0nf/RPtrk+CFsMfQp8rm/HLLiVU+9Zh05X+ePherxvTLn02/nh1ENr4hSL+npEY9cZfuKRnk+/RbTBfGtB4rOqOgRo1n6qtbGxho9ca7m+2UO/K/HwoXFvAp+bW4wY0dUw0XL7F9lgco0a6POQVXsHBJaON+z+MJ5ZdQGhkMFxqJU9T4wtz2zaSI7BYV3PzSfVLZjU13687jjdwbqrSYBwbYbGcprSjtjrzTFPztDbz/dbUfmnS3CEIgvAPqbcUuLlsEN05CrZHt+Ovhr5zzsYZzs3LUayoNS3qC3GpxBaeLVxrb2mRxMkFTg79sODvZCQnG//Jj+DXGTJIATjJJuKr/aeQsXYUKpY/iSmr82p2rvUhpFJRjHJHd7g3s4Gzc3OUFytqTdh6FF4qga1ni5odzLF2gKO9EorimrM8WVNQY/WtocaOtybhs8qJ2HXuDDJTDuHzB/0a7FRrB0fYKxWoKZKoKdLycSR1lmhN6RcnyCZ+hf2nMrB2VAWWPzkFq/PqnwBN3ah216uvCYnXUDzUvxKb1/2JLes2ofLuR3CP241pl3rHW5j0WSUm7jqHM5kpOPT5g/BrqEOukmmbmh6rprFUbxsnJ9iVlaCkgSFa4/rGRGPtsThGDQeAi5MD+i34u2b/ZDmO/DoDsmsJiDmN5kgjdW1wPql5zcC0ty3ne23XHccbNjc1TmJtBY1GU/3/1LM6PI2V03A7TOPWkGvM0wb7ren90pS5QxAE4Z/S8Lx000jg88AzeMgrAW+Pn4/NZ68A0KP81BZ8MPFF/KCIQ7/uEuz9YS3O6gBAhws/r8JmbV+M6Ftz5akxtp17I166Bz/8VOv7wCtLUXIFgOoEDicXQgc7BPd9GH2DNCgrNX7nJ0uw6ePFOFRmuPL5y9q9kHTvh662tujarzske3/AWkPFoLvwM1Zt1qLviL7V5ZplE4OuMRIc2PAH8vQAyhPx8Qe/Gv67sfrWoUOJ4jJsWgTCzw7QFx/EtiNFDV5FtonpihjJAWz4Iw+GIj/GB78a/rvR4zS3R7PyIlyqOjvadrXYL6oTh5FcqAPsgtH34b4I0pShKqSW3LB2m9a3Hjfc8/Ag6DfOwcsbiMGPDIATbky7dCUKXLZpgUBDxXBw2xEUNdQhV8ukTU2PVdNYqrdtl7vQRbcb6zYY86U0GWu+S0B5nSNc35iw2B5LY7TmAOgdL8WeH36q9V31lSi91oCY00iOWKyr2fnEpAwAze2bobzoknFB2ki+13Ldcbxhc1NjpAgM9EF5RjJOVAIoP4zF769HQVPKsdCOunFryDXkqdl+a3q/mJs79Bc24I1Jc/HLmepWCoIg3HC3eLEPwG0I3v/xPfTO+whDQl3h6OIE93ajsLI0COFu/nhi4WIMynoRcR16ot9dHRH30gU88MWHGOUjAWADG9tmsDW5pGRjY4tmtV6UeD+ChR8NxumZndC+2wAM6huPtq174PW/1UDFMSx/OArtuvZDn0798WHFE3j+kZaGHa0cEOKwE2M6dcFdnePxfEoPvP3WKLSQSOD7xEIsHpSFF+M6oGe/u9Ax7iVceOALfDjKp6oSsG1mW+tqlxQ2NjawkUoAiQ9GzX0NEfueRVxcH8THTURit5GItZdC2lh967BH//Hj0XLLs4jr1h0xPecgLygMzaX1r7FJfEZh7msR2PdsHOL6xCNuYiK6jYyFvVTa6HFs44fiHtdNmN6zF3o+uRwX4GuxXyqOLcfDUe3QtV8fdOr/ISqeeB6PtDRNtfp911i7bWxsYGt7DfXV188Jl0GPYpjjKZx2HInHehvvnpVcf7vs+4/H+JZb8GxcN3SP6Yk5eUEIa27oV1N16mQpXxpoU7ZnY7Gq294GX5PawMbGBlKJ5XpLAsfgnfkx+Pt/nRDbpy9iZSOx/IwEkjrHbHxMWCrfYt9bGqNVJN54ZOFHGHx6Jjq174YBg/oivm1r9Hj9b8O95I3Etw4bG9iY27aRHLFYV7PziWn9bBE/9B64bpqOnr164snlRehrId9hYwMbW8MnhuuP442am0zbBJOYSxE55nkMKXoP/WXdEdf1WWTe9SBkTSnHbDtM43YB+nrzTON5Wo/ZfrM8D9Vuv7m5Q3sxAT+u/h57zjX+ZaqCIAjXyoq1/0Z7SymRk56KrCLAI1yGiNo3COtKcTY1HedVLgiL6gDfa3yySV9+AempZ1Bq7YnQDm3h52A80VcW4URyJvIl/oiUhcDVGoB6Mya2fgJXlpzDF51OIPmiDUJlESb3LetQejYV6edVcAmLQoerrJi+7BxSUnNgGxqDCJ96f8s3X18T2uLTSDleBNd2sQh1bXgbAz3KzqUgNccWoTERMC3S0nH0pWeQmJqDZqEydPQzttNCv1QWnUByZj4k/pGQhbiavZ+3ITei3Q3Wt6mut13aYpxOOY4i13aIDXW9YZ+oG2pTU2PVJI3UW5WXAfnJUji3jkGEr7kb+K9zTJhrT0NjtCH6clxIT8WZUmt4hnZAWz+Heu24ISzkSIN1bdJ8UpsepWcSkZrTDKGyjvCzt5zvpq43jjdqbmqMXnkBaSkXYRMai/Yt6v+Jw2w5ZttRP24Na2KeNqHfmtovTZo7BEEQ/gG30WL/NlM9yV/AtyPMnpEFQRAaJ+aTfyfRb4Ig3AHMX4b4r7P2QrtuPdHBR4RIEITrJOaTfyfRb4Ig3AHElX1BEARBEARBuEOJyxWCIAiCIAiCcIcSi31BEARBEARBuEOJxb7wz6ksQ3FpA1/JJwiCIAiCINwU1vPmzZtn+uJNpS7EqWNncNnGHa7NJdCXX0Bm2mkU0gmezrbVv4eoyj+Oo3l6uLpLUXQ8DcfPZiMnJ6fOv9z8CjTzdodtyWmkZZ7Cxer3clGgsoO3W3Poio3v5eYiv6AIZXoHuDrZ1nzq0ZfjQmYaThcSTp7OsK2pAI4fzYPe1R0Otb++vDwHR4+eQm65BK7uDg18n7oKOYlbsXHzLhw+oYCtbxC87SUA1Cg8dQxnLtvA3bV5TfnqfKTu2oTN2xOQeCwbFQ4+CHC3q/ldyCbWT1vVzgZiYAVAee4Qtm35C7sTz+CKcwAC3Jo1+tuTV6N091z0u+sJfHI6BA8P6QCHG3BwbeYSjLzna9iNGoK2zQB1wSmcLbODu2PNT9lDp8DZE4WwdndBsxtQ5u1JjYJTZ1Fm5466TT+LE4XW8HSp/1WJpso3TkH3GcfQ/aGu8Db9yK88ij+/3wdlcDh87K43iFpkLhmJe762w6ghbdHshh67hiEX7OHuWH8E/hO0itNIzzyFi7n5KL4igaOrI2xuXHOuT/lGTOk+A8e6P4Su3pKbHBstFKfTkXnqInLzi3FF4ghXR5sbOrfcCMqjf+L7fUoEh/vATlk3Xre2b03Gi+nb18Nk7N3adl698uxMHL9kDQ+3WufLRt3ifNRmYsnIe/C13SgMaavF0T+/xz5lMMJ9ap3Tr9v1nw9umuuY/03P/1elTj80+2+uHXiLKb+7n45W1gyYuJlkBX9+1I0SgFbNI/ninnLDRrp8Lh1gSyv7kVxT/BefDrCm8QfM6/6z6cjXjpRy7cMutDJ5z6bzm8zUKuu/Z2VHv+5T+NNpLUmy4udH6SYBYdWckS/uoaEGOuYvHUBbK3uOXKOsVfsS/vJEC0N9bTrwlUOaWu+RuvwdnDcokHZWVeVZ0dq1E+fsU5HK73i/oxWtAyZys4qGMra/zruD7evUz0rqxuhxa3hSbThm0+rXQDurY6Dhsa8eZIidFWFlRSsrK1rZtObUnao6db8uujx+NcSDXRdksm5Erk/BV4Pp3O5F7leT1GXz0/4ObDvzbxpDQ5JU/jqGLTwf5Tpj6vzrqfbx3VET+dVRQ36SpC77U/Z3aMuZf9dpOX8d04Kej66r9Zo5aibMCKfbyDUsMX2LZMUf49nS625+kqUlqeK+d0dx4ldHWVODq1HArwY7s92L+6mud+wbxJgL4S8k1MmFhl1ve0jqcrh0kCNdQzuxW7cujPR3pmv70fz6+I3M9loayAFL1AkzGO42kmtKbn5sdDlLOcjRlaGdurFbl0j6O7uy/eiv+U+F5tpU8I/xLel19yfM0prG6yb3bT11x8uNVGfs3fJ2Xh3dueUc7imhxHsMf6swfde8W56PBV9xsHM7vrhfTVb8wfEtvXj3J1nXPL4acv3ng5vneub/Ouf/q1W7H/4rawcTTf+A/E8hDStREoAeKlUlaGUDqTYDS2d/gWM6ACAM3xlE0KYDRs1dgLcXLMD8x6JgayWBS/w4vLFgAd5+ayaGhUqh0WgBa1/c//FO7N27F3v37sPur8cjzBp13tv91w94c4gXCv7+FFPm/wElAL1KhUpawUaqRcbS2fjCUAFj/WCsh5FiE3748xKaubvDXncMP/9wsOZn2vUX8O0zozB/SzYc4p7FJ+u3YuvPH2OSrAhJ6Zdr2mRsv+7sSox/5HVsyXZD35lf4tet2/DrshfRr0U5Ulb8DxM+OQ7dVdTPbAw0m/HurJ9xxrY33kkqRnlhOv5YNAoRjjfwo6zqAPYkBqDfwLAG/tJxlSpLkV9QBi3USD6cDusOMkTYAqiUIzHTDlGdIlHzUzxaHD0sR1nbGMTcIV+Jrc3cgu82noXWraZ/KuWJyLSLQqfIWj9CpD2Kw/IytI2JqXnNHP0lJMmzERYrgyPUUBQoDL8ya2Q3eBnOFWzCpFBrQJuJLd9txFmt21VdiaoszUdBmRZQJ+NwujU6yCJga3rsG6VSjsRMG0TG1M4FM66xPXVUJuFIWjPc/fYuJCQcROrxjXiKP+D1JXvrxPFGaSgHzNPjUpIc2a1jIHO8+bGpTDqCtGZ34+1dCUg4mIrjG58Cf3gdS/b+E5G5VnYYvOwcCjZNQqi1abxubt9WMTdebqQ6Y+8WtfPaKLBp/luQywaiQ/kJHD1vOOc1xa3Jx0qU5hfA0J2HkW7dAbIIW8BuMJadK8CmSaE39AfVrvt8cBNd9fxv7vzfJGb64T+ydjB16xf7DbGJw70D3KHc9wHeXF8Ife33JL7oNf5FvPzKK5hxb2vYwgqOHe7HzFdewcszH0cX1+qDwLtdV/To0QM9enRH1/Ytai08De/dNeBhvPC/gfC2IhTZOSivLsgGcfcOgLtyHz54cz0K61SgRuHGtfhLYY8+r7yG/s46nP7tR1T9arz26Cp8srEA8BiG937+GJPu64/+Iyfho22Z+HGMl8mRtMhctRSbL1kh6MllWL9wAob374fh49/F2o8eQgurMiR8v9b4wQdNrl+DMVDmIldBWEkd4eHuBHuP9rhn6nxM6NTkEdQo7ZlUZOraIaqtIeJX0r/GhPiW8A1qg2CfAMS/tAUAUHn6Z7zQLwSePq3QqoUrfOOn4OfqifwK0pY/CVlgCGJiwxHW+39Yuq8QbWQy2APQnkpCSkk7dOrUvKZgfRGOHDkF76gY+FkDqDyNn1/ohxBPH7Rq1QKuvvGY8vN56ACgJAHvDG2DFv6hCPHxQsQLOwwnOfV2vND1Acz7dBr6tg1GoJcz/Ad+gOQmnBvMtVOVsQJPRnvDwz8QfqEDMWvOE4h94lvDTqrteKHrw1iw/EUMimiFAHcH+N/7GY7qdDjx8TCED1qMjCt/Y3anYLQd9xMALU4lpaCkXSfUbfoRHDnljagYv8bLrExC0jF3tNL+iPuj2yMqoiWC+78HuRoAVNg6vTP6vnEY6hMfY1j4ICzOuIK/Z3dCcNtx+ElRU2aDrqRh+ZMyBIbEIDY8DL3/txT7CttAJrOvc2wtANWWaYh7YA7efbQtnKwdMfxrBaA9hw2v3o1wvwC0buUNt6BBeGd/ufHY6fh6Qjxa+gahTbAPAuJfwhZFVS6EIybGUMb2F7ri4QXL8eKgCLQKcIeD/7347KgOOnPtsVBmQ3XUnkpCckkYojoazwrNWyLQW4LKSjUAFTJWPIlobw/4B/ohdOAszHkiFk98W2hsQsM50jBzOQBoz23Aq3eHwy+gNVp5uyFo0DswVLkSSUnH4BIVgxDr64+N+XJU2DItDg/MeRePtnWCteNwfK3Q4lRSMkrColATmkB4SyphCE0GVjwZDW8PfwT6hWLgrDl4IvYJfGucwK4uNgYN71OODZNiMODtZGgBADqcWjoSkdVjbiumd+6LNw5rG4zXtfatufy0yOJ4qcTpn19AvxBP+LRqhRauvoif8jOqpkjV9hfQ9ZF3serVQejQyg9uTmEY+9NxHFjyKDqFBcLLwQM93jpsXLzXHXvX086GY26ZavsL6PrwAix/cRAiWgXA3cEf9352FJrcr/FohxH47FTVvF+GP6Z2QtyLO6s/dKgPvY/Zf7TBK0smItrxNI4e01QfV739BXR9YB4+ndYXbYMD4eXsj4EfJBv3vQX5mLYcT8oCERITi/Cw3vjf0n0obCODzB5QbZ2Ozn3fwGEtzIwfS+PNXH2adj6weK41cy60HFtLriD96wmIb+mLoDbB8AmIx0tbFPVysHzDJMQMeBvJhkEK3amlGBlZFX/L5/9G+85CPzRp7WBx7JUg4Z2haNPCH6EhPvCKeAE7DAG75rXDTWF6qf9mU64ZSQcra/pP2ERSyTUjHWjV7G5+8sdMtrexom3HV3hAmcvP+tvSyn4Ev611F03VLUD+4/9kzU0oxmNIXBn72Ey+9NJLfOmVt7k+S1vrvRYc+vYv/PXHTzm1pxclElf2WWz407WhPs149yd/cGZ7G1rZduQrB5TM/aw/ba3sOaKqArpcLh/qQonjPfwiO5crhjrTyroln/7L8H7R8iFsbmVF+3uXs6i6brUo13CkgxWt/Sdwk6qYK4Y0p5XEnY/9XPs2IZJFyzjYzopWrqP4U0VT62chBtpMLuzhSCtY0cYzmg/O/pZHLpn/k5om6Q329POml5dXrX/eDBnzo+mmRloee7cHWwxdzlwdyZKtnBzuwe5z91NBkpdT+MvvKWTZbs7s6M6YqX/wooak8jBnxdgxbNpekmT5ruls79qJL+8uoo4KJsztThepP8dvMvS04psRdHaM5kMvvGRo30sv8aWZT7CLuyOHLL9Esoy7Z3ake8xU/mEogIdnxdAubBr3qjVMm9+ZTnHzmVpBUpPHrNMK6khqUucx1s6BAf3mcFeBjtpT7/MuhyA+s62R25zMtVO5lzMj3dn5lT0s0pGKhDns6ixlyJSdJElN6lzG2rsweMBc7irQUbV7KsOa9+biczrq1MXcMCGIbiO/Zo6ihGUqHUkFvxnhTMfoh/hCVbtfeokzn+hCd8chXH6JjZeZ9jpjbZ0Y0Odlbs3TUpu1iD3tg/nsdhWpkXN2lDMHLysgdWoWb5jAILeR/DpHwZIyFXV1W22inLumt6drp5e521Aw53Z3odR/PDepWPfY1FA+O5rNnfzYdfIPTMk6zeyyCu6fFUuv2GnclK0lWcAVw1zoO3YjK1jCrZPD6dF9LvcbAsyUX35nSoUhF1yrbofTpHJurD1dggdw7q4C6lS7OTWsOXsvPmemPZbKbKiOhvJc/MbxD+PtBJrMRezl7M/R6xVU7p3JSPfOfGWPMW/ndKWzNIRTdqrM54gFDeZAxX7OivVi7LRNNFR5BYe5+HLsxgpSk8bXY504YGkudcZxcs2xsViOnLOjm9PJrysn/5DCrNPZLKOC34xwod+4P2gIjYaZi3rR2X801yuU3Dszku6dX+EeY27M6epMacgU7lRZGD+WmNtHvZ8z27lw2Mqqmfcyv3/QnaFV+S+fzSjnwTSkYf14XVPfWshP8yyPl7LdM9nRPYZT/7hIwxQ5izF2YZy2V01Sw9S5sbR3DebAeXt4SVfG9aN96BTYhr0m/sQzGg1T5sjYPGYuUzSmY+862mku5hYZ6+oSzAFzd7FAp+LuqWFs3nsxzynX8wlvb47+1ViR4h/5sLc/x/x62fD/2uP8qJ83Y+ccpkqbyTe72LPbuyeNt8FomDovlnYOAew3ZxcLdFqeev8uOgQ9Q8N0fZPzsXwXp7d3ZaeXdxvn3bns7iKl//hNVFFD+ewoOg9exgIa+8N0/Fgab2br04TzgcVzrblzYWOxNa9k62SGe3TnXMNA4OWUX/h7inHOqM5BNffPbEeXYSur10eXv3+Q7qGG+Fs+/zfSdxb7oSlrB8tjT5M2n52d4jjfEDDmZZ2mQncda4eb5DZd7A/i5/k5XH2/NyUSNw75MomfDLjKxb6VlE7eAQwICGBAyxjO2GZIkjUjHereE2/txX4L/maRcRVTtZge9Hk+c1bfT2+JhG5DvmTSJ4Z74qsW+7qLn3OQo4QOA5cyW6dj3lf30snKmv7jNrKcWp5a1IM2kNDzifXGicZE7cX+lXNc3MuWsG5ZPzGUP/AhZytD28ubWj9LMSA15zZw1t0hdJBYEbCijf89/ODwDbhRTZfLHe8/wU5hvfjG/nKSOp5fOoiuoZO5o85nmKrXJ3F79esV/HW0Fx1HriF1BVw1wp0B4zawzPiuev9MtnMcyKW5OpJq7p7ams2De3DkAw/wAeO/+wdE0NUmirPlGurOL+Ug11BOqimAFb+OppfjSK5Rqrnn+TDatZ/I9afr9o5i9Qg6u/blR8eNH4AqfuVoL1c+stbkQ1gd5tpJFqweQY+AcdxQ3ZADfLF9zUKkeNVwOjn34eJjhvLU+2eynfMQrigmqTvLxb0c2OWtWvdQq3dzauvmDO4xsrrdDzxwPwdEuNImajblmsbLVHxzH50du/HtNOONq7XbWLSCQ10i+ephDUkdzy7uRYcub7Ept4vrClZxhHsAx9UUzP0z29Fx4FLDB786xy7iiqGOdOz+DquqoctbyeHu/hy1MoUZyQnc+OXz7NnCm8OWn6XG2J+TTQNszAXHu79gvo5k8SoOd3Jmn8XHDDFT7+fMds4cYghovfZYKlPXQB1JNfdMbU3bsIf59hdf8JMFUzgwxIMR49fxvK6Aq0d41M3bAy+yvcswriwynyMW1csBHfNWDqe7/yiuTMlgcsJGfvl8T7bwHsblZ3Wk4hve52q8N/W6YtNIOUUrONTRkd3fSat5Lke9h1Nb2zLs4bf5xRefcMGUgQzxiOD4deepK1jNER51c+PAi+2NJ/triY35fXR5SznQScY5ycaameR/0YqhdIl8lYc1rBeva+tbVs839fPTPIvjRXOeSwe5MnTSdtZMkb9ytJej8bmsYq4a7kTnPotpmDpU3DTen7Ztp3F3OUlqmflWFzr0eI+ntaZj71rbaT7mlpnW1dBO5yErWKw9xgXxDuy+MIta6njxi8F0azOVuytoyMEfHqF/yDhuLCZJJX8a5UGfJ383nlMVXD3Cma59P2LNdD2aXq6PcK3y5udjwaoRdK8z7+7nzHaOHLg01ziXuDDy1cOG8VJv/Fgabxrz9Wn0fNDIuZbmzoWNxNYcnTFvJ++oydsqtXNQl8elA50om5NsbH+t+Dd2/m+k7yz3Q+Nrh+o2mBl76j3PM8yuPSeuP11nbXdta4eb5/a8jQcArHzx0KxJiLEtwZYPPkWq8U89TSbxw+PfZeHChQu4cC4R7/Wr9fi2tT9Gf5uCPZ89jFaSS9i35hekV9TeGQCs4PvQLEyKsUXJlg/waZ0K6HHhl7XYq7SCu3UWvn73XSw/YQUPax1y//gRW8us4eLiCGsrQllYiLJaezZI4gRnRwms9JdRVFS3ofqiPBSqCIm7Fzzr3ABvqX5GZmIgbTkEb2w6ipN7v8Cz8R7Q52zGnNlrkFvvdiA9FFmHkLBvH/bV+pfwdwrOXzHd1vCnsFMHDqOw5XAM7+QAoAx7th5E816D0NW+9oZK7N16EPa97kG36teVuHSpAu7e3oAqAdv2Ad0H9oaj4cDIP3wE5wOjEe0uAfR5SErJQZvHl+DHn37CT8Z/qyZEQuLaETFtpFDu3YqD9r1wT00BUF66hAp3b3hb26Lb9PfxXIs/MSoyAve+sQMFegCoRHpSBqz7PIUn2hjuKdQrspFzxRu+vpaePjDXThUO7jgAdh+I3oaGQJ93EIfPhyBa5gygEmmJGZD2G4vR4YbyyjIykR3UEZFOACpTkHzcFZHRrarv8dTnJSElpw0eX/Jjdbt/+mkVJkRK4NoxBm2kjZeZmpgBSd8JGNfB0CZ9SS5yjW1UpyYhw6YDZO2kACqRknwcrpHRaNWEWyxVCduwD90xsLrgfBw+ch6B0dFwl6DusdWpSMqwwYCnJ8BYDVzZvRl7KrRI/PApjHl2Fr7YK8F9y/bgu7FBUO7ZioPNe2FQ3QBX50KwTAZ3CVCZlogMaT+MHR1uiFlZBjKzg9DRENB67bFUpqSBOhrKuwg3DwnOyFNw8rIvHvryIA4uux+BlQex4wDr5G3ewcM4HxINmbO5HGlEvRy4gt2b96BCm4gPnxqDZ2d9gb2S+7Bsz3cYGyRBZWoiMqwjERNhe52xsVyOoS8H4OkJHapvj9TnJSHlohs8JGcgTzmJy74P4cuDB7Hs/kBUHtyBA6ydG3k4ePg8QqJlcDY7fiwxv49GnoSj9h0gCzPmd+FhJF6oyn81UpMyYNNBhnZSNBCva+lboMxcflpgcbxU7MXWg/bodU83w20LAKC8hEsV7vD2tgYq05CYIUW/saMRbg1Al4OM4wpEjhqLbg4w3IqTfhru7TvAz9pk7F1zO83H3CLTuqIMGZnZCOoYCSfrILRv44izx49BUynHl1/sR+TEZ9DdDkD5biyYsx4IdULK52/j7bcXY0+eDRQnjiJbB6AyHUkZ1ujz1BMwTNd6KLJzcMXbF77Sm52PKiQYTlo1827+YRw5H4joaPfquaSDrB2kqOqP2uPH0nhTmq1P4+eDRs61MHMubCS2ZpXtwdaDzdFrUNeavDWqk4MaOZKO2qODzPhcn74QhxMvGOLfyPlfZbHvGumHJqwdoLQ89my7Tcf7z7XAn6MiEXHvG9hhCNg1rh1untt3sQ/ANnoKZj3iD/2JH/GD4Ua3G8QaDj7h6Pn0B3jtbhdojn6FRT/k1H02AABsozFl1iPw15/Ajz8Y7jMDAOjO4Od1f6PCSoKihGV495138O7ne1AokYAFm/DjJgVcYmIRJiXU+3/C2tO1HyjSQVfv+SInRHZsDSnLkPDnVhRXv67F8R9+wWGNBC5xd6GT6ddNmaufRXro9QBgC99uE7D4o3EItybUBTn17/3X52LrJ69j/vz5df8tWIG/L9VrBCCNwPgvZqD9oQ3Yla8HdIXIzquEb2DLug/q6gqRk18JTz+/mtcVO7A9qTnie8dCr7iAi0ofBAcZnyPQnsAPaw/BpurhHFUSkjLt0UHWptZxtciUp0HVXgaZnQ6FOfmo9PSDX00B2LE9Cc3jeyO2GWAdOBTv7jiKwx9EI/Wtl/HlMR2gv4TklByEd+kCZ+NeJTt3Itm5K3pFW3imwVw79cU4c7YUPsHBxgeBtDj+/Y84ZB+JmDDjSTc1D23j4uECAFAjOSkDNhHRaCcFtKdSkF4ejujomq8HUyUlIdO+A2RtapWkzYQ8TYX2MhnsmlCmPCUHbeO7wt24e8nOHZA7d0WvaCly5anID5dBZgdAewop6eUIj45GrS8oM0MPxYWLUPoEo6bbfsDaQzbGhw31dY6tz5UjNb8t4roaWg7okHPmPNSRU/BrYiIOJ+zA79+8j+lDw+EAHQqz81DpG4iWpvOmKglJmc0RGdMeUuiRl5SKvLZxiDceVp2chAybCEQbAmrSHktlNlRHQ3mJmc3R6/kv8cXST/Hh269gXL9Qw/bFZ3C21AfBwVUBOI7vfzwE+8gYhFmZyZFG1MsBXQ7OnFcjcsqvSEw8jIQdv+Ob96djaLgDAD3y5CnIbRMDwyMS1xGbRsrJlaciv20c6oYmEZnNe+H5L7/A0k8/xNuvjEO/UMP2xWfOotQnGDWh+R4/HrJHZEwYpObGjyVm99HhQmoGilt3RMdmAKDFsdXf40DzqvzPhTw1H+EyGewaiNc19a3UQn6aZXm8WBfmIL/SE341ExgUO7YjqXk8esc2gz4vCal5bRFX3ZlyyI+5I6aLcfGkPQp5uhoRsTLYmIy9a27nNeZw/bomIynDBhHR7SCFDdq1a4WSrONIWfMWlpWNwuyJ4bCGFmlLXsVqyWCM6uKAK0ollMoKOHi3gM3pYziqAfSXkpGSE44uXapna+zcmQznrr0QbXuT81GvwIWLSvgEB1XPuyd+WItDNoaHQg1zSThkMruGx4+l8WahPo2eDxo51wINnwsbi605usJs5FX6IrDeQKibg7oLqcgobo2OhkEK7bHV+P5Ac0TGhEFi8fzfSN810g+Nrx0AXSNjD9aBGPruDhw9/AGiU9/Cy18eg+5a1w430W292AfcMOTl6ejpoMTlmqdnm4ZKHPtzGZYuXYqlSz/Hst9S619hl/jh/rHD0AKl2Lrs61oPwNZwG/Iypvd0gPJyefWHAd3Jn7DuoBq23RYgpbgUpaWlKC1V4OiH/eHAYmxZ+ydKo5/CM/3cgdJtePHuYZi64CMsWfgqnuzVFsM+u2DywUKKmCeeQncXIufb8Rj4+GtY9NFivDHpHgyesxdKuyj8b8YIeNTZx6Ch+lVrIAZFCS+hS7t+eOqVd/HRhwsw/eVvcUInRWDXnmhtOj4l/njowz+w5a+/8Fetf1s2foRHWjZ8qVd7MRsFjgEIdJMAVo5wcgByz5yGEgBwBacT01Bg5QovTynysk6gFAD0Bdgy701s9nsa04e7QWLnAHtJCQoLNQBKcGDhFLx/qBLhVQ/nnkhCank748RppC9GcvI5+EbFwFdiDVcvT0jzsnDCUAAKtszDm5v98PT0oWCGHFlKAHBE68hQuDRzgZuTFVApR/LRShSfzUKRHkBpAt77YCt8xzyNux31KNy+CJPnrKsps4q5dqI5HB2sUFpYAA2AkgMLMW2JHNr2McaTruEE3TEm0HClVZcNeWqhcSECaE+exHlbH/i6Vw1TLU4kpaK8nfGkbaQvTkbyOV9ExfhCImm8zKSMSpRkX0CJHkDJPix87y9jG1VIlh+HZ6QMAdYAtCdx8rwtfHzdqycKfeF2LJo8B+vOmA4WCewc7CEpKYSh2w5g4ZT3cagyvPrh3NrHViXLcdyjI2ICq/LICi6uzrDKPY0s4wNpgBrl5WoAVnA0BBinDQHGldOJSCvQV+dCTIwdABXk8mNw7xgDw2F1yJanorD6w4tpeyyV2VAdAe0JOdLK2yG29sNdRpLmjnCwKkVhQVXeTsMSuRbtY2SwM5cjegt51VAOWLnA1dkKuaezUFPlchiqrII8ydD+IOuacXJNsWmknGT5cXhUHwuG3JSnobxdbJ0HBQ0kaO7oAKvSQhhCcwALpy2BXNseMTI78+PHUmzM7qNDQUER9FIppFbG/P84qVb+J0N+3BORsgBY14vXNfathfy81vFi7eoFT2kesgwTGPQFWzDvzc3we3o6hrsBKrkcx9xrclN7XI40VXvEyowfChXJSD4XBJnMHRKTsXfN7TQbc0vzQv266rLlSC2sWvhao2X7cDhmLsNTs46g95uz0dcJ0J9fhdc+zMHwd5Zj0Ztv4k3jvzem34Og0hM4mq1DpTwZRyuLcTarCIbp+j18sNUXY56+G443Ox8ldnCwl6CksLB63p3y/iFUhhsfzk2W47hnJGQB1g2PH0vjzWx9mnA+sLZ0rnVBsZlzoeXYmo+DlaMTHJCLMzUDAYlpBdCb5KCuoABFeimkhkGKhdM+RpIx/pbP/430XSP90PjaARbH3lBmQG4IGBxbRyLUpRlc3JxgZXHtYHl83DSm9/XcbBW/PEFPaxuGPb+LZAV/fsydUucRXFVctUU5982Jp5vUijYt/2f8TnrjvutH00tqw9bP7ax1z34FN47zp7T6u+0N329vEzuPqZoK/vy4J61t2/KFfVVfXL+b09s2o6RZF76ZrmHFz4/RXerMETUVYPm+OYx3k9LKpiX/t/kKz3/cj82tndlvyak635ery1nB4W4SSjwf47pyUpe3nW8Ma0Nna6uaenjG8sWtl8mKX/iEpzVtwp7nLjVJann+j1m8O9SRkqq6W1nTMWQgX/ntbPV9sY3XT2UxBskXN3B6XAvaGt+zkjiy9bC3ubfqoYXrdHnN/fTosZCGr9HVMeensQxzcGVY9768KyqM0RN+Yq6OVOx8jXEergyJ78veHf3p32ki1xw39okul2ufCKKDTyTjY9ozfsxMPhoRzInGzi9ZPYJubZ7n7tpfkqvaySmhHrz/W2NcFDv5WpwHXUPi2bd3R/r7d+LENceppobJi/owoKWMffp3ZxvfVhy86ADLSGoz3mBn+7bs0S2YQbIe7BTsxZDhH/JIOUle5tpHPOg84NNahVYx104dL343ioEOfozqFsvIu57m7NGRjJixj2qSmvT57Ow+jCsKjLGv+I1j/EI5ebvx2YrUBezq5MKwrr1534IDVLOEq0e4sc3zu+t8P7Bq5xSGetxPQ9MbKTNtPuNa9uaInsEMju3B2CBPhgz/yNBGTRrnd3bnsBUFhgdxNalc0NWJLmFd2fu+BTygJi+vfYQezgP46bn6+aLLXcsnghzoExnPmPbxHDPzUUYEVz0cWvvYhofC3IetYFXTSVJXsJHPdXSla+uu7D+wDzu1ac1hnxnGmC7nJ44Nc6BrWHf2vSuKYdET+FOuzpALYVMNY0iTXrf+rOBvY/wYOnm7YX5ooD3my2y4jnXKM6W7yO9GBdLBL4rdYiN519OzOToygjP2qS3kiKW8aigHdCzY+Bw7urqyddf+HNinE9u0HsbPTmmr2z90eT51pnW96thYKsckT0jSmJthU3c1+P3wuovfcVSgA/2iujE28i4+PXs0IyNm0DANX0tszO1DKjZMYEhzL7aPi2GHnk9z7tjoOvlfPeYsxcuUxb41n5/XPF6o4M7X4ujhGsL4vr3Z0d+fnSauoWGK1DDdJDcV39xH96hZhucQSKp3Pccw3yf4SwPj+trbaT7m5ttZv64Vv42hX+hkGqc5ao+/w642UrZ8fC1zdCSp4s4prener+Z+8WrFX3O4SytO2q5kxhudad+2B7sFB1HWoxODvUI4/MMjxt+eufn5mLv2CQY5+DAyPobt48dw5qMRDJ64mSrTuaTB8WNhvJmtT1POB5bOtebOhdpGYmshDroc/jQ2jA6uYeze9y5GhUVzwk+51Jm2WbGBE0Ka06t9HGM69OTTc8cyuir+jZz/G+s78/3QxLWDhbGnSV7EPgEtKevTn93b+LLV4EU8UNbY2sHS+Lh5bvli/79AmZPBA3t2MyEpi0UNzTy16ZTMyTjIvbv38mBGTv2HXG4INS+dPMKEfYd5LLfsBv7Ah4ZHZkXTb8xvdR5cUWanct/uBKacL6vzbS7akjNM2rubCakXjZNILToFTx5MYNKZkmuvn7aEZ5L2cndCKi/WKUDHsnNy7t1zgEfzaz4mXv7ufrq3m8m/VZd55vBe/p2WU90O5YHZ7BzQl+/JG3zcmjTbTi0VWQeZkHSGJdfQkLJzR7hnbzIvXlUiNKFMrYKnDu/l3+m5DT9AXqXsHI/s2cvki0pSeYCzOwew73tys/voFCd5MCGJZ8wW3AhNEU8e2sNde4/weL5JKcpspu7bzYSU8yy71jmzdnuqWCrzamkVzLKQt6Y50pS8aigHNEUneWjPLu49cpzXW+VqDcTmRpajVWRZzI1riY3pPgY6lpw6xIQjFvL/WjTSt/Xy87rHi5YlZ5K4d3cCU+tOYP+sRtpZL+ZNaKd5Gh79eCB9Wo/jb7U/VTfqMr+7353tZv5N1eUzPLz3b6blXF3pNz4fdVScbGTebYSl8WZan6th/lzb0LnQcmwbj4OS2an7uDshhectTNS6klM8lHCk4fg3cv633HfX3w+Wxp6u7Bzle/fwwNH86ovMltYO1zc+bhyx2BduIMO3LLjGPcPVh4quekK6tdT8+4W2dBv5bf1flVXu56weXfjcn4YrgP9NSu6f1YNdnvvT8M0uwvUTeWXevz42/5Xxcn3tVB5+g13dw/nspga/oNo89d98oa0bR35bb7b+Z/zr8/EqWIrtfykOTWZh7XCd4+NGsmLVT68Kwg2gO78Nny3fA4d7Z2JsFyfTt29jV7D1tQfxY9gSfPGk6S8cVuLKFQns7U0favhvqbxyBRJ7+3oPiQnXSuSVef/+2PxXxss1t1NfiN9fegrferyEZS/3NH5JQRNd2YrXHvwRYUu+wJNN/TXW6/Lvz8cmsxjb/1AcmszS2uE6xscNJhb7giAIgiAIgnCHus2/jUcQBEEQBEEQhGslFvuCIAiCIAiCcIcSi31BEARBEARBuEPdXot9vQolivIm/hLsf4deVQJFuYiKcLUqUVZchkrTlwVBEARB+M+4bRb7il3z0T+kJSJkEbh70TGoC04hK09lulmDlEf/xKr1yYZfBDVHeRR/rlqPZIsbVVGj4FQWmlj8P0iBXfP7I6RlBGQRd2PRMTWKspKReOQIjhj/JWbmGja9mvapC3AqKw+3vHn/FG0mltzXCc/8avjN5CblR1OVZyMz7TSKG/3spcTRP1dhfXJJ/V82vi5aZC65D52e+bX+L0Kb0MoXY3iEP9qM/w0lpm8KgiAIgvCfcHss9isPYdFzH0I3ZQ/OnD2HbTOcsfyxKAx5P6kJVyVV2P3BM5j5ZQKKLHyvkGr3B3hm5pdIsLSRkT5nOR6LGoL3kxovHeoELHz0aSw/duN/Brny0CI896EOU/acwdlz2zDDaTke6RiLLvHxiI+PR3x8V/R8ajlwVe3TI2f5Y4ga8j6a1ryFePTp5fgHmvfPUezHlp1X4OzTrMn50ST681jxeDQio7ti+p91PyrVi5NqNz54Zia+TCjC9RZblwL7t+zEFWcfNDN9y4RU9hJ+e6c3ijOP4dK/qf8EQRAEQbhhbovFvu7Mduw83RHDH2gDWwColCMx0waRMZGG/69FrShAibr2K3YYvOwcCjZNQs1XwuqgLMxFobJmhWM3eBnOFWzCpNrfG6tWIDenELU2AwBUyhORaROJmMh6pUNRUILaxWszt+C7jWehdbOq9SoAqFGSl1OnDrXplcVQqCxd89XhzPadON1xOB5oY6hHZdIRpNsOx9eXtNBqtdBqNbhycBZgrn0wtLGgTsAqIU/MhE1kDOo3z3RbLTK3fIeNZ7Wo17zrbl8NvaoYhaW1LpVXlqKg+EqDV8TVJXnIKVSifqmVKM0vQJkWUCcfRrp1B8gibJucH1XUilwzxwcUm+bjLbkMAzuU48TR87W2aSBOdoOx7FwBNk2q/b27lmPWUH5VqSzNR4GhcTicbo0Osog6Y6PhuGhx/nwu7INbw9f0y38FQRAEQfhvMP2VrZtLyzOfj2CotxNtrB3oGRDM/u+ksCJ9PmPt47jgmJZkBbfNiOdDb33FmQPbM9jfjfZ+g/lppvF3kCv+4rROfTj/kIYkqUxbyfFxgfRpGcagFv6Me3EzyQr+Na0T+8w/RA1Jqk9x3Yy+bOXRgsHB3nTxiePkdeeMP8usYfr8WNrHLaCh+G2cEf8Q3/pqJge2D6a/mz39Bn/KTK2Wx5cMZYiXI6XWjvQKCGT42LUkNTz7+ysc1MaX/qHB9HJtyYFv/80ykqzYzOe73M/Z74xiuKOEDsNWsrgmGDW0Z/j5iFB6O9nQ2sGTAcH9+U5KBVPnxbB55zeZUe8noOu2r2LbDMY/9Ba/mjmQ7YP96Wbvx8GfZhrap0nn/Fh7xi04RkPzzGyrPc4lQ0Po5SiltaMXAwLDOXZt8Y1pX1W5D7/Dr18ZyIhgX7o6tuZTa49x/0ejGNs6gJ727uz+5qHqn6PWnP2drwxqQ1//UAZ7ubLlwLf5d5nhPWXqVxwT7U13vwD6BvfikyMi2Ly6/5qSH6T61DrO6NuKHi2CGeztQp+4yVx3rlagVQf5msyHdy89yl9Ge7PFmN8MP31tJk4Vf01jpz7zaSjWUszM5ZexXGUqvxoTTW93Pwb4BrPXkyMY0bxqbFiOC6ng6hEe7Pne6QZ/clwQBEEQhDvfLV7sk1QruHVKG7oM+YLnFJep1JCKb0bQNWAiN6tIalI5N9aeLsEDOHdXAXWq3Zwa1py9F58jSWrksxnlPJjLCkiWbOXkcA92n7ufCpK8nMJffk8hNXLOjnLm4GUFJMu4e2ZHusdM5R8XNSSVPDwrhnZh07hXTZIKfjPClQETN9NQ/FzG2rsweMBc7irQUbV7KsOa9+biczrq1MXcMCGIbiO/Zo6ihGUqHSv2z2KsVyynbcqmlmTBimF08R3LjRWGukY3d6Jf18n8ISWLp7OrV2X1qBVbOaWNC4d8cY6Ky0pqWMxVw53pN+Zn5isUVCgULClXGzau0z4NU+fG0t4lmAPm7mKBTsXdU8PYvPdintORVHzDEa4BnGgIroVtdVQXb+CEIDeO/DqHipIyqnS8Qe0zlusazIHz9vCSrozrR/vQKbANe038iWc0GqbMkbF5zFymaEhW7OesWC/GTtvEbEOhHObiy7EbK8jyXZze3pWdXt7NIh2pSJjL7i5S+o/fZOi/puRH2W7O7OjOmKl/0JAShzkrxo5h0/Ya66vl8Y/60Tt2Dg+rtMx8swvtu73Lk1qSbChOGspnR9F58DIWsJGYWcgvspy7prena6eXudvQOM7t7kKp/3huUjUSFxo+iLzT1ZUjvjXXD4IgCIIg3Olu/W08UjWyjuciJCYOfq5OsJdWIjUxDdoOsZDZACiTI/mEFDFTP8bsXl6QWNnCVmoDRxcnAMBleTLOBkUj2k2PC9+/h2+1o/DGi/FwBQCnjhgxtCNwWY7ks0GIjnaD/sK3WLBMiVGLFmCwvxSAPTp06gCn3HM4rwVQmYrENC06xMpgKD4ZJ6QxmPrxbPTyksDK1hZSG0e4OEkgkV5G1olLCIuNg7erCxxtCvHDO58hr/9kPNmyEAf/WIYFKw+iWefu6GBrqGuWdUc89+ViPNwxFK38HE2jUU2qzsLx3BDExPnB1cke0spUJKZX4PKfUxEbGYnIyI6IHfUlsnSo0z6gDPLkE5DGTMXHs3vBS2IFW1spbBxd4CQBKlMTkabtgFhDcC1sK4H0chZOXApDbJw3XF0c0Qz5N6h9xnJlU7FkVk94SGxgZ2sNtcO9mP/BAwiWWsGmmQ0k9k5wstIj/4d38Flef0x+siUKD/6BZQtW4mCzzujeQYrCnz/C15fvx9zX7oK7BHDtdDe6+dkhIjYaNk3Kjw648O0CLFOOwqIFg2FIiQ7o1MEJuefOAwD0+eswd+EZDH39eXRqZo2g8FA0P30URzUA0ECcJJchTz6LoOhouOktx8xSfukLf8ZHX1/G/XNfw12GxuHubn6wi4hFtI2luBhv8LEOxsDhHXHkraex6ri5W4cEQRAEQbiT3frFviYZ8qPNEREdBikA6POQlJKDYJkM7hKgMi0RGdJ+GDs63HDvc1kGMrOD0DHSCYAaqUkZsOkgQztpGfZsPYjmvQahq33dItSpSciw6QBZOymUe7fioH0v3NOtZiPlpUuocPeGtzWgz0tCSk4wZDJ3SFCJtMQMSPuNxehww03PZRmZyA7qiEgnAJUpSD7uisjoVoa6XdmNzXsqoE38EE+NeRazvtgLyX3LsOe7sQiSGOs64GlM6CCtqZwZmmQ5jjaPQHSYYVt9bhJSctvj+S1ncOHCBVy4cB5Zv09Ga+u67UNlGhIzpOg3djQMVS5DRmY2gjpGwgl65CWlICdYBpkhuBa2BSpTknHcNRLRrYw3fN+o9pmWq8tBxnEFIkeNRTcHAFAhI/003Nt3gJ/1FezevAcV2kR8+NQYPDvrC+yV3Idle77D2KBKJGzbB3QfiN7GzxX6/MM4cj4Q0dHukDQpP5TYu/Ug7Hvdg5qUUOLSpQq4e3sDKMfuBXOwHqFwSvkcb7/9NhbvyYON4gSOZhsW0PXipE5FUoYNOsjaQWoxZpbzS5WwDfvQHQNrGofDR84jMDoa7hJLcTEOa8U+rP0lFy179kSYV72HLgRBEARB+A+45Yt93cVUZBSHIzra+N0iqiQkZTZHZEx7SKFHXlIq8trGId7F8LY6OQkZNhGIbicF9LmQp+YjXCaDna4Q2XmV8A1safjQUE2PXHkq8sNlkNnpUJiTj0pPP/hVb6TAju1JaB7fG7HNAFVSEjKbRyKmvdTwwSM1D23j4mEoXo3kpAzYRESjnRTQnkpBenk4oqNtAAC6nDM4r47ElF8TkXg4ATt+/wbvTx+KcAdU17VtXFfjsSzR4WJqBorDo1ETliRkOnSALNx0IV27fYYPK6l5bRFXEzAkZdggIrodpFAhKSkTzSNjYGiepW21OJWSjvLwaBibd8PaV79cOeTH3BHTxfiBT3sU8nQ1ImJlsNHl4Mx5NSKn/IrExMNI2PE7vnl/OoaGOwB6BS5cVMInOMj4sKoWJ35Yi0M2xodzm5IfukLk5FfC08+v5nXFDmxPao743rHQpi3Bq6slGDyqCxyuKKFUKlHh4I0WNqdx7KgGaCBO+lw5UvPDIZPZNRIzS/mlh+LCRSh9ghFkvFCvPfED1h6yMTycaykuAAAdTq2cj+UeM/Dj0v+hm/stH+qCIAiCINwCt3wFoEpOxgmvDoj2M1zZ1J5IQmp5O8TE2AFQQS4/BveOMQi0BgAdsuWpKDQubKFKhvy4JyJlAbC2coSTA5B75jSUAIArOJ2YhgK9Csny4/CMlCHA2hquXp6Q5mXhRCkA6FGwZR7e3OyHp6cPhxu0OJGUivJ2MTAUb1iEdowJNFy512VDnlpoWDwC0J48ifO2PvA1LqSsXFzhbJWL01nl1e1Tl5cbvl1FlQz5cY+aY+kLsX3RZMxZd6Z62xoqJCefgFeHaBjCosXxpDQo2xrrZbptdfsAlVyOY+4dEWMIGHTZcqQWGhae0J5AUmo52sXEwNA8C9tCi5Mnz8PWxxdV68SraZ++cDsWTZ6DdWfq3z5iWq72uBxpqvbGW4sAKJKRfC7I8NcVKxe4Olsh93QWqktVl6NcDUBiBwd7CUoKC6EBUHJgIaa8fwiV4TLI7JuYH1au8PKUIi/rBAwpUYAt897EZr+nMX1oGVa99iFyhr+D5YvexJtvGv+9MR33BJXixNFs6BqIkypZjuOekZAFWDcSM0v5JYGdgz0kJYUoNDQOC6e8j0OV4ZDJ7AFLcQEAXEbCnlS07TcQPrd8lAuCIAiCcKvc4mWAFidSMqBuJ0NH4xVsZXo6zvvHonOANaA9g9SjlYiOM9x/DWiQnn4aPjGdEGgNaE+n4ZgmCl2ibACJN+6b+Agcf34KnXv0Q6/oaNz/xXHotaeRdkyDqC5RsAHgPvx5TGm1Ff/r0hX9+sgQM+5vxH/yPWbH2QFQIj39PPxjO8NQfCqOVkYjruqSrSYd6ad9ENPJsDiThrZDa80feKVvH4x4+yC0XiMxZZwbfhndCd0GDELfzuHo8NhqZOuq6lrrWMpd+Ord1ThQYLz1ozbtCaRkqNFO1tH4XerlSM84h4DYTvAz7bE67dPiTOpRVEbHVV9l1qSn47RPDDoFWgPKdKSf90ds5wBYN7YtpAht1xqaP15B3z4j8PbBSkiuon3KXV/h3dUHUGBtevtI/XLL09NxMaQLYj0MjavMTMNJBxk6t5cCEi+MnDIObr+MRqduAzCob2eEd3gMq7N1ANwweMwI2Pw4AV27xqL7tBOQ9QuDf1QMgpuaH3DH8OenoNXW/6FL137oI4vBuL/j8cn3sxF96D28k9ARM14ZArfaTZCGoW1rW+ScOwdtvThdwem0Y9BEdUGUDSzHrJH8chs8BiNsfsSErl0R230aTsj6Icw/CjHB1o3EBUBlOuRH3dAh2q/WV38KgiAIgvBfY0Xyxv7mz9XQ5+PLe8PxeZfdOPR6lMntN9fmSk4a5FllcGrVER0CHRv+NKMrxdnUNJyvcEFoVCT8q+58uAbl5xMhPy9FSEwU/O0BQIviLDkystWw922DiDbeqHcxHldwcE5vPJDwMDb8MQPRJhvo87/EveGfo8vuQ3g96kZE5VqV43yiHOelIYiJ8ofhlvYmtO/KQczp/QASHt6AP2ZE13//GmiLsyDPyIba3hdtItrAu/qgepRkHUFmmTciOgbDpZGVrbn80JWeRWraeVS4hCIq0h9XlxINxam2JsTMDH1JFo5klsE7oiOCG2icubjoLyxB/6gtePT4HxjvZbqXIAiCIAj/Fbdosa9H8akkpB1YgecnH8J9Ow9gbvStXNTeXFcOzMagqZfx6obFuMe71scRfTFOJaXhwIrnMfnQfdh5YC7+fWG5ggOzB2Hq5VexYfE9qN084eYoS1mHj96ajU+U03Bow0S0FH0gCIIgCP9Zt2ixX44tsx7AO0fc0HXcPMx5MLzJVzrvCJVXcEViD3vThXz5Fsx64B0cceuKcfPm4MHwf2dUKq9cgcTe/ob8pUa4Wjpc+PNDfCF3x+DxY9CthVjpC4IgCMJ/2S1a7AuCIAiCIAiC8E8Tl/0EQRAEQRAE4Q4lFvuCIAiCIAiCcIcSi31BEARBEARBuEOJxb4gCIIgCIIg3KHEYl8QBEEQBEEQ7lBisS8IgiAIgiAIdyix2BcEQRAEQRCEO5RY7AuCIAiCIAjCHUos9gVBEARBEAThDiUW+4IgCIIgCIJwhxKLfUEQBEEQBEG4Q90mi/0ryMmUI/HIESQmJiP9RA5Ktabb3Eh6FP3yLDqFd8T4n4pN3xQEQRAEQRCEO8JtsdhX/fkcOneMQafOndGpkwyR4QHw8m6P++ZtRo7OdOsbQYMjW35H8qky2Hk6mL4pCIIgCIIgCHeE22Cxr8Xxg4ko1Nui6yt/YM/urfjl82noYXcSv78xCk99eabO1pWlecjOLYG6zqu16XGluAAllaavA3qVAnkF5dDqTiMxuQB6uw6I6disZgN1CfKy81H2j/5VQRAEQRAEQRBujttgsX8ZSfKT0Fq3Qveh/dHzrv4Y8fQifP/m3XBiKfZu3A4AUKatwrO9guDu4YcAfw+4B/XHnK0FAADdic8wsm1bPPHeCjx/V0u4e/rAO2gAFqcaV/z6Iux5ezjaenvBz8cLIQOfx7oMLaStoyFzAXAlE99O6YtWnp7wC/CFu1ckRq88hkoA2oyleCCqDbq8tMPCBwxBEARBEARBuP3c+sW+OgWJ6SrAMRKxHWyNL0rg2jIArhJCd0UJffb3GHfPOHyR6omH3lmFb94aBq+cHXhn+ocAgLJD27D95GmsnzcDG237Y3hnd+jydmPNrycA6JHz/f/w8OwNOO9+F8ZMHA7vlO1IVlrBuYMMbSQFWD/pXoxdmg7/MR/gm5UvoBsy8d38T7BPrUfu9p+wIe0cVFJHWNWpuCAIgiAIgiDc3m75Yl+Xk4SUizpI28ZCZl/1qh6KU2dQqJfA0a8FDn/8Jn7JaYYes77HsheewBPTJ2OwnwTasycAVCItMR1XqIf78C+w568VeO/RjpDCCg6OjoA2DV+8/xvypTF4+bfNWPn5Gvz4YhyksEZ7mQzStM/w5nfnYNN1Ehb8ryf8rZRQagG7lq3gL5UgcPy3kCcfxe75XVD1UUQQBEEQBEEQ/g1u+WJflZSETJ01WnSUIdja+KLuLNau/Rsq2KNzd2/8tf0kNDadMPz+1rAGAK0CJWWExNUD0OdDnnIOOpsumDT3fvhJNDh+LAs66xZo39EXunN/YXu6BlLZAxjVwRZABVLTsqCz9kfHmBY4u2kL0iqJK/teR+/orhjx6k44Dp+HH1dNQbg1AHs/tO8YArequgmCIAiCIAjCv8QtXuxrcTQpFWW0RYdYGWwAQF+IvW+Ow/xd5bBu+TAmj9QjJ18PKxsv+Hobqlu6YxP2XgbcuvUBKuVIytDCOjge3YOtAd0FJKXmQW9rePhWd/Ei8mgFW7+WCLQGtEeX4eONl0C7DojpaI3sC3nQW/th3IYyaLUqlGRnYte3s3FvsOE6vl6lxBXxwK4gCIIgCILwL3RrF/v6Ysjlp6C1kuLsL9Mw+pH70Lt9W/R7fTcULvF4+euFGOzlB38fCaBKxK/f7MaBTR9i4vRvkdNMhmdn3AftiUSkKgj7iFhE2gKoSEJSpg7SUBlk7oDExRVOVoTq4GrMm/8cBt/zGvaU0fhwrjVc3Jwh0V/CgQ2/4WBqCvZvWYMPFq3DCR2glb+Jbt7OaDFyJYpM6y4IgiAIgiAIt7lbu9jXnsXp81pAX4Zjf32PH37ZjkxNK/Sf8C42HN6GN3q7Q2LdFuNnPwOZ0wX89ExvdB08Hb9XdMO0b3/C7C52UB09hjN6e0R1jYUjAO3pTGRdsYZXlzi0kwLSyEfwVG9PIGcz3nvze5QMHI2+LlJ4yDojXCpF9NgX8FBrKTK/fAzdoqLR7Z6xWCyvhJMVUJGViVNqF3SM6wgX07oLgiAIgiAIwm3OiiRNX7yZ/v77b1y8eNH05Xr0FZdw/lwBKqTuCAj2gZPUdAsLdJeRfSoXGvcgtPS0q/8JR1uGvLMXUVwphaO3PwI87etvA+Chhx4yfUkQBEEQBEEQblu3fLH/4IMPYt26daYv35ZucagEQRAEQRAE4arc8sW+IAiCIAiCIAj/jIbuVhEEQRAEQRAE4Q4gFvuCIAiCIAiCcIcSi31BEARBEARBuEOJxb4gCIIgCIIg3KHEYl8Q/vXUKCu5Ap3py4JwlfTqMpSq9KYvC4IgCP9iYrF/29Aic8l96PTMrygDAKhRcCoLeVfqbqVTnMWx84Ytbhl1LuR/foflX63Cuh1HofgPrQ20mUtwX6dn8OuN7ILyjZjSeSg+yNCavtMEpdg5rRM6jl2LC+ZW+9pMLLmvE54xVlp59E+sWp+Mkn+030zzuanKsXFKZwz9IAPXEo1rcV3xuK6+u82UbMVzsihMWHexiR8clTj65yqsTy7BtYTun3Pzc+iqKY/iz1XrkXxNSWd0I44hCMJ/gljs3zYU2L9lJ644+6AZAH3OcjwWNRQfpFTW2uYKNk6LR89X/qr12s2kR8HONzGkXWt0HTMPn33xPqbfF42IkV+ZbnjHUuzfgp1XnOHTzPSda1eZugtbT9nCJ+BqfinOQLn3Lby4uw8+XzYawdam7xop9mPLzitw9mkGQIXdHzyDmV8moOgf/dLduvncZJWp2LX1FJr5BODqo3EtTOKhTsDCR5/G8mNNW+5eT9/dXkqxY95LODBoGT5/tCXMpVIdqt344JmZ+DKhCP9oKl0tYw7Z3rQcunqq3R/gmZlfIuE6BuGNOIYgCP8NYrF/w+igLMxFobL+IkGtyEVOobLBq2WVpfkoKNMC6mQcTrdGB1kEbAFUyhORaReFTpG2NRtrj+KwvAxtY2JqH8Li8dWKXOQq1KYvAwD0KgUKSmp/mLBMLV+I+0cuQs49q5B+7gQSD6fiTNZWvNrfv/ZWUOTmNBgHAz2UxQrUvVOggdfUJcjLKUT9w6ihyM1Fw03SQ6UoQINNUiuQ2+DxaqgVBShp6LiVpcgvKIMWaiQfTod1BxkianWLuiTPbPxrqyzJR36p6bVGPS4lyZHdOgYyR5O3quiUKMxtqO4qXLYfhA9/XohBHqZDuRKl+QUwpNZhpFt3gCzCFoAdBi87h4JNkxBavaKrREl+PkobihvQhD6tYS6fqzQWK/2lJMiz2yAmxtGQnw12tKX6XG1+1I2HNnMLvtt4Flo3q9obAZUlyM8vNblS3IS+qyxFfn4pzIa2EY3Fq9o1jZfapGg9bg3+WNQP7qapBBiOU1CCOoexG4xl5wqwaVJozYcDs7lqqc9MmG2LkVqBggYHqoEhh1ojpnanNNh/FuhVUBSUNNxveiWKFao6f82wNAc3xG7wMpwr2IRJNYPQwGzb6p9fGjpGw3OMIAj/eRSumzJtJcfHBdKnZRiDWvgz7sXNJEn1qXWc0bcVPVoEM9jbhT5xk7nunNa4Uyq/GhNNb3c/BvgGs9eTIxjRPI4LjmlJapg+P5b2PRbxlHFzktTlfc5BDsGctEPV+PEV+/j2kDB6+4WwVQtPtp+xnSqSqm0zGH//XH7yfB+GBwXQ08mPA96XU0WSulz+OD6Gsskbqawp1kB7mp8McKXbgI95sladaqh5at0M9m3lwRbBwfR28WHc5HWsqk7F5ufZ5f7ZfGdUOB0lDhy2srjB16g5y99fGcQ2vv4MDfaia8uBfPvvMpKkYt/bHBLmTb+QVmzh2Z4ztqtIqrhtRjzvn/sJn+8TzqAATzr5DeD7ckOMqD7FdTP6spVHCwYHe9PFJ46T152joVoV3DYjng+99RVnDmzPYH832vsN5qeZVQ1UMvWrMYz2dqdfgC+Dez3JERHNGbfgGLUkNWd/5yuD2tDXP5TBXq5sOfBtGqtaV0U6l4+Jope7HwN8Qzjgtdl8POZxri7Qkazghqf86D/+T0Mf1KFk2srxjAv0YcuwILbwj+OLm4sbjbUy9SuOifamu18AfYN78ckREWwet4DHtCQr/uK0Tn04/5CGJFmRvoJPGrdtEdiTz814mDGPrzaWb7mcOizmc9NjVbHhKfoH3c+Xp/Vn2yB/utn78u4lGTTU1nJ9rik/quOh4vElQxni5UiptSO9AgIZPnYtyQqmLx/DKC9DDoQMeI2zH4/h46sLGu+7FU8xpoUH/QNaMLDnc5z+kMy4H1n2+7OU9V9AuaFh1GZ9xhEdqnKi6fG6+vFSl8V6VGzjjPiH+NZXMzmwfTD93ezpN/hTVg2Pir+msVOf+TSk0rXlah0W2lKxbQbjH3qLX80cyPbB/nSz9+PgTzON47iuig1P0c9/PP9UsZH+M6Haxhnx93PuJ8+zT3gQAzyd6DfgfRpSpYKbn+/C+2e/w1HhjpQ4DOPKYgtzsO4ilz8cwQeXnaOhR8mS3ycztusr3K2u4F/TOrHP/EPUNKFtDZ9f6h7D8hwjCMJ/nVjsX6+SrZwc7sHuc/dTQZKXU/jL7ylk2W7O7OjOmKl/8KKGpPIwZ8XYMWzaXpLl3DW9PV07vczdRTpSkcC53V0o9R/PTSqSVPCbEc50jH6IL7z0El8y/pv5RBe6Ow7h8kts5Pgaps3vTKe4+UytIKnJY9ZpBXXUMHVeLO0cAthvzi4W6LQ89f5ddAh6httUJLXHuWLCcD67+mS9k6gmbT472bXkxE3lJu8YlO2eyY7uMZz6x0UaqjOLMXZhnLZXTVJD+exoNnfyY9fJPzAl6zSzyxp6rYL7Z8XSK3YaN2VrSRZwxTAX+o7dyApNGud3dmLc/FQampTF0wodqUnlvFg7OgT045xdBdRpT/H9uxwY9Mw2kmXcPbMj3WOm8g9DkHh4VgztwqbRUK1Uzo21p0vwAM7dVUCdajenhjVn78XnSJLlu6azvWsnvry7iDoqmDC3O12k/hy/SUVW7OesWC/GTttEQ1VXcJiLL8durDCJjJJ7Z0bSvfMr3GPs6zldnSkNmcKdKpKaNL4e68QBS3OrFwVVSrZOZrhHd87dryBJXk75hb+nVFiOdfkuTm/vyk4v76ahuLns7iKl//hNVJHUyGczynkwlxWQVO7hCx3c2fmVPSzSkSUH3+RdrjZsNXkn2Wif1tZIPjc5VhqmvR5LWztf9p2ziwU6FfdOa8PmvRbznK6R+lxTftSNh05dzA0Tgug28mvmKEpYptJRuXcmI90785U9xhyY05XO0hBO2amy2HfKPS+wg1sXvrZPQbKEB9+8i642rYwf1NXcP7MdXYatZJFx+8vfP0j3UGNONDle1zBe6rBcD03qXMbauzB4wFzuKtBRtXsqw5r35uJzOuOYjqLz4GUsuNZcrcNCW6hh6txY2rsEc8BcQ17snhrG5r0NeVGXIYecBixlro6W+890z9R5jLVzYEC/OdxVoKP21Pu8yyGIz2xTkRo5Z0c3p5NfV07+IYVZp7NZZnEOVvKnUR5s+b+txg+CRVzzgCcDxm1kuUbO2VHOHLysgGysbebOL3WO0cgcIwjCf94dv9hX5p3i8WPHeOzYcZ7MuWz69nXS8fzSQXQNncwddS6FV70+idurX6/gr6O96DhyDXUFqzjCPYDjNlRdqjOcdB0HGk5QVO/m1NbNGdxjJB944AHjv/s5IMKVNlGzKddYPj6p5p7nw2jXfiLXn669QFBw9Qhnuvb9iMerrs79Oppero9wbb1L+bXpmLd0IJu7P8p1Da31dee5dJArQydtr/mLQMWvHO3lyJFrlCSLuGKoIx27v8M04xXEhl7T5a3kcHd/jlqZwozkBG788nn2bOHNYcvPUqfew+fD7Nh+4nrWbdJqjnB2Zd+Pjldfrf91tBddH1lL3fmlHOQaykk1QTK013Ek1yhJFq/icCdn9llsuFJP9X7ObOfMISuKSV0BV41wZ8C4Dazupf0z2c5xIJfmapi3cjjd/UdxZUoGkxM28svne7KF9zAuP2uy+ihYzREedfv6wIvtaxZYim94n2s7vrjfZPFTFdPJO+r+lcVirMtYsGoE3QPGsaa4/ZzZzpEDjQvSohVD6RL5Kg9ryILVI+nRcjz/qN42gS+Eu3DoiqJGyqmbLJbzWdf0WFHBb+5zpkt1fqqZMCOcTkNWsLix+lxDftAkHtSd5eJeDuzy1lHjtgVcPcKjbg4ceJHtXYZxZZGFvuMlfnu/JwPG/s6qGUed8ALDne/lV5dI6vK4dKATZXOSq/9iUZMTTY/XNY2X2izWgyxeNZxOzn242PjXGfX+mWznPIQrimkcvy6MfPUwNdeUqyY5ZKktLOaq4U507rPY8NcpY345D1nB4jpHoTGHXNnuxf1UN9Z/JhSrR9DZtS8/qpkcOdrLlY+sVZJFKzjU0ZHd30kzxqqxOVjDlDkyOg74jHk6Unf2Uw5wbccXElSGY7lE8tXDGtJi28ydX1j3GI3NMYIg/Oc1eHfmHUN/Hj+++BAefvhhPPzww3hy0W7TLa5TGfZsPYjmvQahq33t15XYu/Ug7Hvdg27Vrytx6VIF3L29oUrYhn3ojoG9jfeU6vNx+Mh5BEZHw10C6POSkJLTBo8v+RE//fST8d8qTIiUwLVjDNpILR8fsEW36e/juRZ/YlRkBO59YwcK9AAq05GUYY0+Tz2BNtYAoIciOwdXvH3ha/FJNj0uXswDWwQgwMb0PQDKvdh60B697umGmupcwqUKd3h7WwPqVCRl2GDA0xPQoaqcBl67snsz9lRokfjhUxjz7Cx8sVeC+5btwXdjgyCx7Ybp7z+HFn+OQmTEvXhjRwEMTUpChnUfPPVEG8N9w3oFsnOuwNvXF8q9W3HQvhfuqQkSlJcuocLdG97WQGVaIjKk/TB2dLhh37IMZGYHoWOkE6BKwLZ9QPeBvWHoJT3yDx/B+cBoRLursHvzHlRoE/HhU2Pw7KwvsFdyH5bt+Q5jg+oOKdXBHTjA2n2dh4OHzyMkWgZnAJWpiciwjkRM7YcAAKBsD7YebI5eg7rWxBSNxVqDBEOlUZNah3HkfCCio90hgRqpSRmw6SBDO6kKf2/dB3QbhF7VVTuMIxeDER3t3Eg5de8ztpzPV5ocK1SmIjHDBv3HjTbkp74E6Rk5COoYCafG6nMN+YE68QBQmYLk466IjG5l2FZ1EDsOsE4O5B08jPMh0ZA5W+g71QHs2K9H90F94FS13+EjuBgUjSgXABo5ko7ao4MszPAAqb4QhxMvGHOi6fG6lvFSh8V6VCItMQPSfmMxOtzQ32UZmcgO6ohIp5rx20HWDtJrytW6OWSxLZVpSMyQot/Y0TBUpQwZmdmGvKhzlKocskZkTARsG+k/kx2RnpQB6z5P4QnD5Ai9Ihs5V7zh6yuFOjUJGTYD8PSEDsaHfhubg6UIaRsC6bmTOKlV4eBnS5HYeRKejWtmPFYHyNpJAYttM3d+QZ1jNDbHCIIg3NmLfUlLPLXqCOTJyUhOlmPfB0NMt7g+ukJk51XCN7Bl3W990BUiJ78Snn5+Na8rdmB7UnPE95ZBceEilD7BCDKuEbQnfsDaQzbVDzOqkpKQad8Bsja1jqrNhDxNhfYyGewsHj8WAGAdOBTv7jiKwx9EI/Wtl/HlMR30l5KRkhOOLl2qTgEl2LkzGc5deyHaZL1SlxUcHezB4nzkaUzfA3SFOciv9ISfX019FTu2I6l5PHrHNoM+V47U/LaI6+pS/X7913TIOXMe6sgp+DUxEYcTduD3b97H9KHhcAAAWCNw6LvYcfQwPohOxVsvf4ljOj0uJacgJ7wLapq0EzuTndG1VyQKc/JR6emHmmopsGN7EprH90ZsMz3yklKR1zYO8cYqqJOTkGETgeh2UugVF3BR6YPgmk7CD2sPwaaDDBHWOThzXo3IKb8iMfEwEnb8jm/en46h4Yaa1tCj+MxZlPoEI7jqMMe/x4+H7BEZEwYp9MiTpyC3TQxkJidzXWE28ip9Ediy7qcwi7GWXcGFi0r4BAcZH4rV4sQPa3HIxvhwrj4X8tR8hMtksNMX4/yFcvgEt4Th85sWR9f8gEPNOyA6XGq5nNja36+jt5zPuqbGCtDnyZGS2xZxccYlnCYV8qO26BDdDlaN1udq8yO6bjwAaE+lIL08HNHRhojoi8/gbKkPgms6D9//eAj2kTEIk5rvO33xGZwtqb3fUaz54RCaRUSjnRTQXUhFRnFrdOxoiKP22Gp8f6C5ISeaHK9rGS8mR7BUD30eklLz0DYuHobhoUZyUgZsjG0wjN9wyGR215ardXLIclv0eUlIzWuLuJqBiqQMG0REt6v3bTuGHGqDGJl9I/1nuuMlJKfkILxLl+oFcsnOnUh27ope0VLkylOR3zYONdNV43OwXVg4AvNO4UTmV5i70grj5j6FVtZ6w7HCZZDZNdI2c+cX1D5GY3OMIAjCnb7Y/6dZOcLJAcg9cxpKAMAVnE5MQ4GVK7w8pcjLOoFSANAXYMu8N7HZ72lMH+4BOwd7SEoKUagBUHIAC6e8j0OV4ZDJ7A0LtKRUlLcznAyq6IuTkXzOF1ExvpBYWzq+C4oz5MhSAoAjWkeGwqWZC9ycrFApT8bRymKczSqCHkBpwnv4YKsvxjx9NxyhROKy6Zj6xZG637gBALBGq769EFr8Kxa+tQ3ZagCV+Tj8zct47tMU0NULntI8ZJ0oBQDoC7Zg3pub4ff0dAx3A1TJchz36IiYwJqrefVfs4KLqzOsck8jq7xqKzXKy9WAvhgZ8ixDjB1bIzLUBc1c3OBkVQl58lFUFp9FVpEeQCkS3vsAW33H4Om7XeDq5QlpXhYM1dKjYMs8vLnZD09PHw43qCCXH4N7xxgYqqBDtjwVhcaTsMTOAfaSEhQaOgkHFk7B+4cqES6Twd7KBa7OVsg9nYWaqpajvF7gJGju6ACr0kIUVPX1tCWQa9sjRmYHQAV5kqEOQXUvdMLK0QkOyMWZ04bMwpXTSEwrgJWlWHvYwcFegpLCQhiKW4gp7x9CZbjMsCBVJUN+3BORsgBYS5qhuZ0VSgoKoIEeJfvfxpQPEqFtJ4OsGWBtqRy32jWVWM7nJscKUMmTcMwjErIAQzB0F+VIu2RYUFqsj8u15Idj3XgA0J48ifO2PvA1fh2NpLkjHKxKUWjoPBxYOA1L5Fq0j5HBzkLfSZrZwc6qxLCfvgT7356CDxI1aCuLhh0AXUEBivRSSKVWxpz4GElVOdHkeF3LeKlzAMv1UMkhP+aOjjGBhr9y6LIhTy2s/mCkSpbjuKehr64pV+vkkIW2AFDJ5TjmXjNX6LLlSC005IUplTzJsG2QdSP9Z6JSjuSjlSg+mwVDqiTgvQ+2wnfM07jbUYVk+XF4VM8VACzOwYbGSVuHIwTJ+PjJt3B2xNt4uas9AMOxPCNlCLBupG3mzi/62sdobI6pRMbqFzFp0Y6qlgqC8F9kel+PcDV0zPlpLMMcXBnWvS/vigpj9ISfmKsjFTtfY5yHK0Pi+7J3R3/6d5rINccN9/bqctfyiSAH+kTGM6Z9PMfMfJQRwRO5WUWSJVw9wo1tnt/N2ncCq3ZOYajH/fzWeJOq+eNrmLyoDwNaytinf3e28W3FwYsOsIxaZrzRmfZte7BbcBBlPTox2CuEwz88wnKS1Bzma1HObDujbrk1irnnzQEMaGZFqZ0Tnexs6dp2JD88WE5SwZ2vxdHDNYTxfXuzo78/O01cQ0NzDQ8Luw9bwZovhmjoNVJXsJHPdXSla+uu7D+wDzu1ac1hn52iVpPMRX0C2FLWh/27t6Fvq8FcdKCM1Gbwjc72bNujG4ODZOzRKZheIcP54RHjgwWKnXwtzoOuIfHs27sj/f07ceKa44b2adI5v7M7h60oMD5cWcHfxvgxdLLhW4uoy+XaJ4Lo4BPJ+Jj2jB8zk49GBHPiZhVJHQs2PseOrq5s3bU/B/bpxDath/Gz2l+dZKS7+B1HBTrQL6obYyPv4tOzRzMyYgb3qWvqMHR5fr0HPKnL4U9jw+jgGsbufe9iVFg0J/yUS53FWOuYu/YJBjn4MDI+hu3jx3DmoxEMnrjZ8HBu2nx2dh/GFQU6kjpeXPMIA+0N20Z0H8On+niz1bPG9lsspy7L+dzUWGmYPr8z3Ycur86Jit/G0DdkEg1fImOhPteYH3XjQWpSF7CrkwvDuvbmfQsOUK27yO9GBdLBL4rdYiN519OzOToygjP2qRvpu4tc80gg7X0iGR8TwW6jx7C3Z6Axd0gqNnBCSHN6tY9jTIeefHruWEZX5UST43UN48WUhXpo0uvGhhW/cYxfKCdvV9Ufv9eUq3WZbUtVXtSaKyp+G0O/0MnGvKitJofydYZ+MNt/JrQZb7CzfVv26BbMIFkPdgr2YsjwD3mknMaHv2vPFQbm52Aj9UG+0sGWjrKZ3GF4btnkWI21zcz5RV23PhbnGO0pftDLgd4Pf1dTL0EQ/nOsSIpf5LhOV3LSIM8qg1OrjugQ6Fj95xJd6Vmkpp1HhUsooiL9jX9eN9CXZOFIZhm8Izoi2MXk0mATmT++HuXnU5F8Tg3P8Gi09W4GoAzfPxCMN0I2Qj7bF2kpubALlaGDb71rXBapC44h5fglwLM1OrbzqXWFTIfSs6lIO18Bl9AoRPqb3nbQRNpiZMkzkK22h2+bCLTxNpagL8f51GScU3siPLotDE36Hg8Ev4GQjXLM9k1DSq4dQmUdUKdJulKcTU3D+QoXhEZF4qqqpS9B1pFMlHlHoGOwS70fGtIWZ0GekQ21vS/aRLRBVVVN6UpOITHz8jX09RXkpMmRVeaEVh07INCxOrMsxFqPkqwjyCzzRkTHYFguToeSU0nILPFE+4giLOoyAGnTsvD7Ux7V75svp67G8rmpsbLMQn2uNT9MlJ9PhPy8FCExUfC3B6ArwanETFw2kwNmGfcr8WqPiKJF6NLnCJ7N2oT/tTD0ob70NBIzFPCKiL6+eF3NeGlAY/VoumvJVRPm2nI9mth/Zd8/gOA3QrBRPhu+aSnItQuFrINv/b8AmDA/B9845s4vtV37HCMIwn+BWOz/V1Tux8yoe3F61hn8/FjNvfP/ZpX7ZyLq3tOYdeZn3CFNunn0OdjwwVfIbdMbUd4anPztLbz8QxA+PrQcI7waWk78+9wu+VG8YihavdcOW5IXIt7iszHCrVGJ/TOjcO/pWTjz82PGZxQEQRDuHHfGWV1onLYctiEjMTTe3E99/vtoy20RMnIo7qAm3UTN4G5/CTuWzsOLryzCryWDsHTr0jtmoY/bJj90KNR54q4HBqH2j2ELtxMtym1DMHJovPFbewRBEO4s4sq+IAiCIAiCINyh7pzLeIIgCIIgCIIg1CEW+4IgCIIgCIJwhxKLfUEQBEEQBEG4Q4nFvnD70KtQoiiH1vR1QRAEQRAE4ZqIxf6/iboAp7LycKXOizoozh7D+TJ9nVcbVo6NUzpj6AcZDS+olUfx56r1SC5pyrHq0xafQkriESQmypGWlQflVRxGsWs++oe0RIQsAncvOgbl0T+xan0yrrEqN175RkzpPBQfZDQYuduAEkf/XIX1ySVoKGTazCW4r9Mz+LXM9J3GNX1fLTKX3IdOz/yKRjeto5G8tKiRfa8zp8257fJTqKd84xR0HvoB6g/ZRnLmhrM8Nht12889giDc7sRi/zalTliIR59ejmO6qlf0yFn+GKKGfoCUylobXtmIafE98cpfFbVeNKMyFbu2noKtTwCkpu8BUO3+AM/M/BIJRQSgRsLCR/H08mOoroIl+hwseyQKvR76H5577hk80a8d/NqMwBK5ynTL+ioPYdFzH0I3ZQ/OnD2HbTODsfuDZzDzywQU3SbfFVWZugtbT9nCJ6ChyN1sDfSNajc+eGYmvkwoQkMhU+zfgp1XnOFj5seVLGn6vgrs37ITV5x90OimtRnzspmZvLTon8xps1S3XX4KpiqRumsrTtn6oN6QvZ58uxamY1OdgIWPPo3lNZO7RbfX3CMIwr+RWOzfMDooC3NRqDSdwCtRkp+PUksXZdQKFJSoa72gReaW77DxrBZuVlWvVUKemAm7qE51vq9be/Qw5GVtERNT67ceK0uQn19a76qV/lIS5NlhiJU5GspU1C4TsBu8DOcKNmFSqDWgzcSW7zbirNYN1VWwpDIJh9NtMWjBLiQkHEDy8T8w0fZPLPpiL2qXoi7JQ06hss5iS3dmO3ae7ojhD7SBoWl2GLzsHAo2TUJorR+DbGjfanolihWqOlfOLG5fS2VJPvItdpAel5LkyG4dA1mtL+JufL8aOmUhchuoS1OOoVYUoG56NNA3doOx7FwBNk0KrfmV0MpS5BeUQQs1kg+nw7qDDBHVudNIXlrct67K0nwUlGkBdTIOp1ujgyzC2I8GjfWDIS/bICbGEXpV/bw0aLi+NyanGz52NZ0ShbmFqBnaZvJTkWuxnfXHeQ2zMVIrkJurqDOG6qtEaX4+SmtfBLgKZstugF6lQEFJwwWZb78aitxcNNit6hLk5dSObRPfq0ONkrycunOv/hKS5NloHSOr9935Tcs3NRS5Jses856Z9kAPlaIAdUJkMja1mVvw3caz0NZM7gYNztsNzz2CIAhXhcJ1U6at5Pi4QPq0DGNQC3/GvbiZJFmRvpxjorzo7hdA35ABfG3244x5fLXhvW0zGP/QW/xq5kC2D/anm70fB3+aSa32OJcMDaGXo5TWjl4MCAzn2LXFpCad82Pt2WPRKWqrS9Yx7/NBdAiexB0qkqxg+vIxjPJyp1+AL0MGvMbZj8fw8dUFhjI3PEW/lg/z9bnDGRUSSE9HH/ZblESV4V3+Na0T+8w/RNXxJRwa4kVHqTUdvQIYGD6Wa4tJXe6PHB8j4+SNyuoaVNGkzmOsfRzfOmqsnfoAX2rfjB1eOUQNSc3Z3/nKoDb09Q9lsJcrWw58m3+XaXnm8xEM9XaijbUDPQOC2f+dFGoq/uK0Tn04/5DGcOwG9yXJCm5+vgvvn/0OR4U7UuIwjCuLLW1voiKdy8dE0cvdjwG+IRzw2mw+HvM4VxfoTDfkhqf86D/+T0OsmrwfSWUaV46PY6BPS4YFtaB/3IvcXNzYMSq4bUY8H3rrK84c2J7B/m609xvMTzO11Jrpm4q/prFTn/k0hEzJ1K/GMNrbkAfBvZ7kiIjmjFtwjNpG8rKxfetQpvKrMdH0dvdjgG8wez05ghHN47jgmGHLpvZDxYan6B90P1+e1p9tg/zpZu/Lu5dk0ND7lut7vTlt6dikkmkrxzMu0Ictw4LYwj+OL24uJk3yU31qHWf0bUWPFsEM9nahT9xkrjtniIHZcW4swXyMFNz39hCGefsxpFULerafwe2GRtWhTFvBp2Ja0MM/gC0Ce/K56Q9RVlX/st/5rKw/F8iNkdRm8bMRHarnA/Nl16XaNoPx98/lJ8/3YXhQAD2d/Djgfbkxxpbbr9j3NoeEedMvpBVbeLbnjKpGaM7y91cGsY2vP0ODvejaciDfrirc0nt1aHj291c4qI0v/UOD6eXakgPf/puGqWEDn/Lz5/g/6wfNcr6peWrdDPZt5cEWwcH0dvFh3OR1NDbHTHtU3DYjnvfP/YTP9wlnUIAnnfwG8H25MQurx6aWx5cMZYiXI6XWjvQKCGT42LW0PG+bzD2CIAjXQCz2r1fJVk4O92D3ufupIMnLKfzl9xRSuZczI93Z+ZU9LNKRioQ57OosZciUnSQ1TJ0bS3uXYA6Yu4sFOhV3Tw1j896LeU6no7p4AycEuXHk1zlUlJRRpSOp+IYjnB0Z/dALfOmll4z/ZvKJLu50HLKcl0gq985kpHtnvrKniDoqmDCnK52lIZyyU0VSw7TXY2nrFMA+L29lnlbLrEU9aR/8rGERoZFzdpQzBy8rIHVqFm+YwCC3kfw6R8GSMhV1JLXHV3DC8Ge5+mS9ZR+LV91HZ5/R/Cm/mPlZCVz1XDy9Au/nytNasmI/Z8V6MXbaJmZrSRas4DAXX47dWEGqFdw6pQ1dhnzBc4rLVGpIjXw2o5wHc1kBLe+rkXN2dHM6+XXl5B9SmHU6m2WWtq9Dyb0zI+ne+RXuMXQQ53R1pjRkCneanlU1aXw91okDluZSdzX7sYRbJ4fTo/tc7jckB1N++Z0pFY0cQ5PKubH2dAkewLm7CqhT7ebUsObsvficmb7RUD47is6Dl7GAZPmu6Wzv2okv7zbmwdzudJH6c/wmVSN52ci+dZRz1/T2dO30Mncb2zC3uwul/uO5SdVIv9VhzEs7X/adYxgLe6e1YfNei3lOx0bqe505bfHYZMnWyQz36M65hs7j5ZRf+HtKRd38LNvNmR3dGTP1D17UkFQe5qwYO4ZN29vIOLccI03afHZ2iuP81AqSGuZlnabC9LOkcg9f6ODGLq/to4JkycE3eZerDVtN2kGSVO+fyXYuw7iyyLj95e/5oHuoYT6wUHZdGqbOi6WdQwD7zdnFAp2Wp96/iw5Bz3CbqpH2a9I4v7MT4+ansoKkJi+LpxWGD7P7Z8XSK3YaNxkK54phLvQdu5EVFt+rq2L/LMZ6xXLapmwamjCMLr5jubGC1KS9zlinAVyaaxo0y/lWtnsmO7rHcOofF2lozizG2IVx2l61+fZoUjkv1o4OAf04Z1cBddpTfP8uBwY9s400GZs6dTE3TAii28ivmaMoYZlKZ3nerjP3CIIgXJs7frGvzDvF48eO8dix4zyZc9n07euk4/mlg+gaOpk7TC52F6weQY+AcdxQdUFKfYAvtnfhsJVFJIu5argTnfsspuEiqJr7Z7aj85AVLCapO7uYvRy61FwlJ6nePZWtmwezx8gH+MADxn/3D2CEqw2jZsupYQFXj/BgwLgNhitbJNUHXmT76pO9gt/c50zHbm8zzXihr+LX0fRyfYRrlSSLVnCoSyRfPawhqePZxb3o0OUt1qqCBWrufi6UNg5e9Pd1ZTOJhK7xM/nHObXhrw8rh9PdfxRXpmQwOWEjv3y+J1t4D+PyszpSl8elA50om5NcfSW3aMVQukS+ysOaRvYtWsGhjo7s/k6acd9Gtq+tYDVHeARwXE0H8cCL7ekybCWr1kbVFN/wPtd2fHG/+qr2051fykGuoZxcPzksH6N4FYc7ObPPYuPVdPV+zmznzCEris30TRFXDHVh5KuHqdEVcNUI97p5sH8m2zkO5NJcneW8bGTf2nQFqzjCvW4b9s9sR8eBS5mru4p+MOalS9+PeNw4FhJmhNPJOBYs1vc6c9risXXnuXSQK0Mn76Dp37Fq56dh/E/i9uqNKvjraC86jlzTyDi3HCP1nucZZteeE9efrrfIrXLp2/vpGTCWv1dNa+oEvhDuzHu/umQYC0sH0kk2h8nG2NTMB5bLrkvB1SOc6VrdP7Vj3Ej71Xv4fJgd209cz9O1GqHLW8nh7v4ctTKFGckJ3Pjl8+zZwpvDlp/l/9k797io6vz/v7io3EEU5CoIAgoMzAwqoJWXvJTlrfrl2paulvqtvPulb22arZW1uVrbbrVq6prbzdqtLStby2usF4SBQVAMUUlugzIoIHN//f44w2WGmTOg3dY9z8eDPzjnfC7v9/v1fp/PnDnnjFFkn83MzLXcPi2YkbO2s6ikkLm7N3PZrQMYOnUrz5tJ7dvTGTT0CR7Rd25Ecb21xfzxbzpi3voJZ4f48Z53WpzaQ+1OzggI4rg/llm/sRF8EPSrXba5SZLm83xltC9HvHDKeqyLut259khISEhcJzf3PfuWSnzwxP2YOXMmZs6cid+sP2h/xA3ShEN7j8F79CRk+3TersOxfUfBURMxxnqfpaX2GPIq4yBXBACGYuSXeOL2ebOR5CH0U1JahZg0GfwBGIoKURYkg3xQ2w3BFtQWFKE68UG89sGH+PBD69+O+ZC5ByFNmQhP3THsO0qMmjjGeo+qBbXH8lAZJ4ciAIBBjfwSd4yb/zBSPYX9jTU1uBYajnBPQK8uQEmvVCiGegIwoKiwDEEyOdqnIIalBgVFNUha8jnOV9ej7K/3wKf4KEp1HgCu4eCeQ2g15ePVuXPw2KpNOOw+HVsOvYt5Me6AsRCqU95IkSdYH5bTQ11Qgl6pCgz1FG8rzHkCFs5PtbYVP74zumP7cJSjMLEjQDiWV4k4uQIBNkcCBnU+SjxkUKb07lG7pkN7ccx7NCbZisNlH4bifJR43o55s5OE+++bSlBaFYM0mb/j2OjVKCjphVTFUHjqcvH1t7DRQV3eCVRGyyEPNojrUrStnf9yv8a36GxDHfJOVCJaLkewe/fjIOiyF8Y/PBuJHgAsjThZUm3NBVd5dCOadtF30yHsPeaN0ZOyYRu9zvpsweG9x+Az+k6MbD+oBZcutSI4NNRFnov7qPfIFdiwZAC+mCVDyl3PYZ/G/j0uOhzddwSWUZMw1l/YYqnNw4mLMZCnBwIwQlVwCj6pCiRYfVOfl4/v4+RQBIiPbYPhJApKPDB27kNCfGCBtqra6mMX9vceiRUblmDAF7MgS7kLz+3TwALg2sE9ONRqQv6rczHnsVXYdNgd07ccwrvzYqAT2Wczs2sHsedQK0z5r2LunMewatNhuE/fgkPvzkOMuwHq/BJ4yJRdnzMR01vLYew95oPRd47siHnLJVxqDUZoqIdTewwnC1DiMRZzH0oU8tWiRVX1NYSGh9vmJgAYilBYFgSZfJBwrIu63bn2SEhISFwvN/di330g5u44AVVhIQoLVfh24932R9wY5npU1RoQHj3Q9q0OlgacO38FYbGx1gcVTSh77wMc95FBmeAJS20B1LVDkJkVKByvL0RBSS+kyIfCEyacLTqJ5iQ55L3aOtShoKAUPqkKJHYayFSqQrEuGQqFFywN53D+ShhiY60nBVMZ3vvgOHxkSiR4ApZaFYqqhyArO9jauhH796kQkD0a8t4W1KjUqEtSQOEFwHQWRSebkSSXo30KYuhUKDjljVRlMjzhiZh7H8R43wJ8c+AyLOZqnKvUQ7b4E+Tn5yF336d4e8MKTEnyBQCYL6pR0pAEudz6/hZLDVTqOiQpFPASbWud85BMZFvdCNHjO2NBw7nzuBIWiw53vYcPjvtApmz70NFxbK2qCDWJSih8etLOjPqqWhjCozHQVhwu+rCgtkCN2iGZ6JBHAUp6pUA+1NNhbCw1KqjrkgQdaL/HxZYwxMa0dX4G7+86jl6pCqR4utClWFubtYYF2u8voiUsFh2Hvo9dx3sJD+d2Ow5WXdYMQWamdcVqVEN1qjdS5UPh6TKPbkDTLvo211eh1hCOaNvg2emzHtV1BvSPiOiIvXYfvinwRtaYDPE8d+Ujj2hM+f0+nMrbCLn6BTy52e4NQpYGnDvfaDP/U++8j+N9rDoxfw91SQMGp6UJb0YyncbO947CW6ZEgpuLsTthuVSIouokjBjR9lG2Efv3Fwo+9hC3H/BA9JTfY9+pPGyUq/HCk5tx2mxG9blK6GWL8Ul+PvJy9+HTtzdgxZQk+EJsny3m6nOo1Muw+JN85OflYt+nb2PDiikQSkMtVEU1SFQq7D6oievNrb4adYb+iIjoiLl23zco8M7CmIw+Tuyx4FJhEaqTRqDDRfuxvzAA2aPlNrkJAKazRTjZnAS5tbiL1+3OtadtRhISEhI95+Ze7P/YuPnB3xeoOVeBFgDANVTkF0MDb/j5uuFKvQZGAI1HX8by11QwJSuh8AJ0KhVOB6dBGS1cmjVXqaCubzshmPDdd5XoHRaO9ouppjMoUDdjqEKBjnfuWNBQWIgL4elQhrvD3dsPvm5XUK8xAmjE0ZeX4zWVCclKoY1OVYASQyOqvhfe9dz47cv4w7/CMWfhHfCDDoWqMvSXKRDlAcD0Hb6r7I2w8OAOgbTkY8uKpdh0ousrKExnCqBuHoKMtjcC9ZFBlmDGqaKTMLoFIijADTUV5Whua6BvRrO1G11hIc6EpEIeYb1MrSuEqqw/ZIooeIi2FebcL00JqxsB0eM74w5vP1+4XamH4K6jeHn5a1CZkqG0npQ70EFVcBrBaUrEePSknRv8BHGgQhAHrlXko1gDF33ooFIJ4wl2mVGlUqO+fdHaNTa6QhXK+sugiPKAu5cvfNwbUV/fpoPF2HDcgCSFAj7u4roUbdvJMsAdXr4+cG+sh3DoUby8eAOOG5KgUPj0IA6CLk/3E+YOAOaLKhRfsuaCi/nekKZd9O3m5w9f1OBcR/CQX6yBpbM+PYIQ0t8TteVncAUALBp89ezz2BOxECum9RXPcxEfWRpKoCoXxvUbLEN8YB8E9vW3fYOQex94ebmhsV4DIyxoPPIiFm/Mh3GIAnIvAGYNNJct8PT0hJu1HvypwFoPRMa2x6AqxClDA86XX4YFwJXcP2DjXquPxeyfQpSoyoW66DcYsvhA9AnsC383NwQGBcCtpgLlHYOjuVkPQGyfLW6BQQhwq0FFx4HQNzcLby3SqVBwOhhpypiON1NZEdObR1AI+nvWovzMFQCARfMVnn1+DyIWrsC0wAYn9higKjwFQ8N5lF+2ALiC3D9sxN7wOVh4h59NbgKA6bvvUNk7DOHW4i5etzvXHsBQshNPPL4e+y7bf8sjISEh4QL7+3okeoKZ1R/OY4JvEBNGjeNt6QmUz/+QNWYzL747i9G+EUwfmUHZbQu5eraMKSu/pZ5Gnlw7nMFTt7Ht5S2t/5zDiPhF1rdtGKlel03/wARmj5nOdUf1ZONOzuibyGUHO9+3qeP+xfHsd+/f2ECS5ot8d1Y0fSPSOTJDxtsWruZsWQpXfqsXHkpbm8mBY2bw1thYZtySwZj+cZz2xxNspvAA6trhwZy6TSPcF2tUc122PwMTsjlm+joe1ZPGvKeZHjCEK23mINC4cwb7JizlgfZdOu5ZOJD+d2xindlMze4lTAsK4uDs8Zw4dhgTB0/lG2dNJI0sWJ3OgDs3U3g/CIUHE4OncpvGTFKkrf2cSfHj7TBffJezon0ZkT6SGbLbuHD1bMpSVvJbe/OMJ7l2eDCnbK2juSftSJqrP+S8BF8GJYziuNvSmSCfzw9rzOJ9WMfrsKuV/5wTwfhF3whv4+gSGyOLO+vJXMNdD8XQN0zGLGUys+bk8IGUWC7YoyMppktXbW0x1+ziQzG+DJNlUZmcxTk5DzAldgGFQ7sbB2suTNlqkwvhcY9bc0FsvjeqabG+SZqr+eG8BPoGJXDUuNuYniDn/A9rqLfRJ6nd/zQz+wUxLmscx6RFMnLYAr5TJuSceJ4795GxcD3HRg2kYux4jkoM56DJ63m0y8tozLz4zq8Y7RNGWZaSKSNnc86Y/oxesMf61hYtP5sfR++QZGYqU3nrwjWcJ2+rB87HtsXEkueG02fILRwZG0PFLcMYGxLHaa9afSxmv7GQ68dGcaBiLMePSmT4oMlcbzXCrNnNJWlBDBqczfETx3JY4mBOfUN4y5jYPhvMGu5eksagoMHMHj+RY4clcvDUN3jWRBpPruXw4CncWmf//IErvWm5/+lM9guKY9a4MUyLjOSwBe9QCKcTe0wlfG64D4fcMpKxMQreMiyWIXHT+OqJZmvdtdWAUb2O2f6BTMgew+nrjlIvVrdtao+JZzeOpm/oTL7r6K1fEhISEiK4kZR+FuYGuVZdDFV5E/wHpSE12s96xdWMxrP5KL0aipS0WATaX2ISpRmV+SpUesZBmR7Z5atop5gbcTa/FFdDU5AWG9jlqpZwSAVUJ+vgPViBlDD7q9GdaK5EvqoSnnFKpEd2ewZOMTWUQ1VSBb1POBJTEhHqBcBSh813JeEvIw7i+O/Snf7AjcO2InT3eHPjWeSXXkVoShpiexCgHrW7Vo1iVTma/AchLTUaftbL8T3qwx5XsbE0ovxEKZoc6sCFLkXb2mJpLMeJ0ianNnQ3DuK4mO8NadpV39dQXaxCeZM/BqWlIroteHaYr5yHurgSrYHxSJdFdrnlRAxnPrI0V0JdeAH6/kmQDwl18iNl1vk3hiA55TLWjxiLE4+V48v/GSDUIMsVVOSXQBuSArmDWDobu4MmvHdfLJ6L2w3V6nAUF9XAK16B1HDbA53ab2lGpboQF/T9kSQfgtDORpgaUK4qQZXeB+GJKUjsPLjYPhtMaChXoaRKD5/wRKQkhnb65vN6MePKeTWKK1sRGJ8OWWSnaDqyp+k93Bf7HOJ2q7A6vBhFNV6IV6TCzkU2NFfmQ1XpiThlOgQZuq7bEhISEjeCtNiX+BmwoOFsAYqPbsOyRccxff9RrJE7W+pLSEi4pGEbpgz6A4Z+VYiXs36ghzkNR5CTfhcqVp3D33/d9mCMRGcMR3KQflcFVp37OyQXSUhI/FJxfKlKQuJH5Rrytq/Cszu1uHPzO/g/aaEvIXFDmOvN6H/bfZjU+ee1bxRTM3rH3YMpWdJPtzrD1NwbcfdMgeQiCQmJXzLSlX0JCQkJCQkJCQmJmxTpyr6EhISEhISEhITETYq02JeQkJCQkJCQkJC4SZEW+xISEhISEhISEhI3KdJiX0JCQkLiJ0SPpsZrtr8I/IvHhJbGZhjsN1t0aNQ2w2S//b8dfRMar/1nRVhC4mZGWuz/GJhK8dr0YXj0kyYALTj1xQ58XCj8yucPhx6as+Wo1dlv/5EwaVGhzseJ/HyoTpaj7toPa83PSvNuLB4+BRtLhFO2XnMW5T+dY6GtUCP/RD7yVSdRXnftB9aJK/SoUX2Bd7e+hR0f7cMp7U87+s+KTZ7+ArDT4Y1jQulr0zHs0U/QBKDl1BfY8XEhGn+SEDure1ewf/kwpM3bhe9/gWvB5t2LMXzKRtiGwIyyP03G0El/QGGnsqA9sBbj4wYiRZGCO9af7tzgpsVU+hqmD3sUwqntFL7Y8TEK7QV1ZT+WD0vDvF3fi3yga8buxcMxZWOJ9EHpJ8SxviVsuIHzwi/Zv9Ji/8dAewRf7b+GgLA+gO4gNj6ag825l/FDvvbIUr0Vv06/GxsKulxr6oo+Fy8/sBBbTzsvveJYUPPWLKSPnolHlyzB/zwwBomRMszZceYXWqj1yH35ASzcelrkZNOBQX0Ae8/2RliUJ2CpxtZfp+PuDQVdr+J1oWfjOMJS8xZmpY/GzEeXYMn/PIAxiZGQzdmBMz+BYy2a/Xj+7qEYnD0Hz76xCRtWTIc85R68VXG91vyH0TlPfwHY6PAHQYsjX+3HtYAw9IEOBzc+ipzNubj8QxYiZzipey2HX8ATB8fiL1tmI/an+PWoHtU+A9QH9uJs7zB0DoG5/C9Y9qY3Vu1chRFtP5ZlOI71S16FefEhnDt/AV/nDOlocBOjPfIV9l8LgHBq24hHczYj10ZQLTj8whM4OPYv2DI71vkPhBnUOLD3LHqHRTn9MUWJHxrH+v7P5sbPwV247vPCL9u/0mL/B8OAK3UaNJkAfWEeTnqkQpHSG/CajC0XNPjy8XibwmdpaYBW1/mKiB6NtdWob3EgWXML6mvq0XmXQZWP0l4yKLu8V1sPraYR+k5bTKVf4d3d52Hq69ZpK8THtJmjAQUnitHnjhdxIDcXx9Rl2D2XeP93r+Fw+0AGNNbV4YqzRaoDG340TKX46t3dOG/qiy4WN9aiur6lU2Gw4FKBClWDlVD4ATCokF/aCzKlDF08q9Wg0daxPRinE5YWNGh1sAAwFJxAcZ878OKBXOQeU6Ns91zw/d/htQ7HwtBYhzrnjkVLfY3TGDpFr8LL996D9dV3YsfJCziTnwf1uXLs/e14RPp1WKPX1ji3Axa0NGhhI+MealuvrUGNtrNTO7DotNA0OvrIpYe2xnF/7ei10NgEqw0nedqGvhG11SI6ddqvY8Rj1xk7HVrpfvsODFfqoBEMRN5JD6QqUtAbXpi85QI0Xz6OeJsVmIMYivjA3FKPGgd66LLdYd3T4arPJLz695cxqZ/jU0+XHLtBelT7LJdQoKrCYKUCnV+br3dPx4p3NmNeYscZ3HzuG+yvSMO0+xJt64ReixonvhPoWp/bcdm2MwZcqavDFUfp0R1EYtwFwxXUaZpggh6FeSfhkaqAcGrbgguaL/F4Z0HprsJn0qv4+8uT4CTEAADLpQKoqgZDaSt21NVd6dEFJOc1ovs1GLD6vkbrIC43UGt6bI8DTdogop0uOOjLib4dYdE1oL5z3TFcgabB0bfOrv3T/b5cxMxRfRA7B4ueu+y5wfMCnPnXxbrop4QSN0yL+i3OkYcyOCKK4bGj+ZsZKfTOXMfTJrL1X8s5bOxaHjeSbN3DZSPu5eqXZjHJz52+U7ezgUae//QpTkoMZ2R8LEOCBnLii/9mk9Azi7c/wszoMA5MiOGAyEw+saeBpJEn12bQxzoGW7/myqz7+cJbOZyYHMvIvj6MmPw6S00mlr02hXEhfvT08GNIVDST5u0ixcZ0NEfjSa7N8GHWi6dpIkmaeX7jaHpFzueXOrL15FbOSQ8R7I+bwKdXP0jlgzvbvOPEhu5hrt7OWSnT+Xq5MDJ5lbuXZHBEzj7q7I4lSVPZa5wSF0I/Tw/6hUQxOmkedzWQxvOf8qlJiQyPjGdsSBAHTnyR/xYM5mdzIxj5yBfUkTSeXMsMn0yuExzLr1dm8f4X3mLOxGTGRvalT8Rkvl5quq5x9iwbwXtXv8RZSX50953K7Q3WOGa9KMSRpPn8Ro72iuR8wbHcOiedIcERjAqP44SnV/NB5YPcqTGTJFuKt/ORzGiGDUxgzIBIZj6xh6SZNR88QqViEXe3dPZMZ0ys+PMEBvWdwD991+ZXW/RnP+LKcYPYb0AsY0MDGZa5iB9dEI5t3bOMI+5dzZdmJdHP3ZdTtzc41o2YzrTf8sW7ExgaEcdBA/ozeeU31JHUfb2SWfeu4Z+XjWVSTBT7+0dwwgaVNdZ6nv1oJccN6scBsbEMDQxj5qKPaJ0WW79eyaz7X+BbOROZHBvJvj4RnPx6qVWz4nlK43l++tQkJoZHMj42hEEDJ/JFIXAu+3WIi9h1xVaHPW9PskXNt+bIGRocwajwWI7+zQymeFu13PovLh82lmuPG0lnMRTxAVuKuf2RTEaHDWRCzABGZj7BPQ3Ot9vUPdG4Oc+xrphZvX0WU6a/zo5ysJtLMkYwZ599Nbie2vcZ50ZE8pEvhL4c57KJ5/4yg/Gh/uzl4cv+UbEc/1IRjfqz/GjlOA7qN4CxsaEMDMvkoo8uCBpxWp+tUxVr64CW4m2cqxzAfpFRHBB9K5esuJ+Ktnrb9CkfU4znOpUQZ5rK+caMVD64UyP8LxbjLrRQ/dYcykODGREVztjRv+GMFG9mrjtNE1v5r+XDOHbtcQoh7pkNrZ/NZUTkIxRc3cqTW+cwPUQYJ27C01z9oLJjznaI1whncaOTGqzlty/ezYTQCMYNGsD+ySv5jY4uNOuqJvTMHnFNutBOF8T6stW3Pa1fr2TWzJf416cmMiU2nEF+gzl312ke+eMsZgyOYn+fYI56/nj3a3G3+xKPmbP64OwcLHbucsT1nhe6YOdf8XXRT4+02L9Rmg9wRXIQhz15kJfNpDZ3DUcFejLykS+po5Gq1ekMmLyFGpJG1WrKvf0Zkb2I7xeVs6Kqia1HVjEjJIPLv6yiiaRm21QGhs/j7layce8iJvUbxTVHtCTJq0X/4KdFrSS1fHtGEKMW7BEWqOo1zPAJZOyENTygMVN3cCkTvMfwlQtmmvUN/Gx+DPve81dWaxvZpDOLjulojtS+zRmBEXz481bBZmMp148OYOTsj6ltOcwcWTCHP3XIav8zzA7wZNzi/STFbOgmrR/zodBQzv7E2qbhA84MjeScT67aHylg1rPhs/mM6XsP/1qtZWOTjubWI1yVEcKM5V+ySjCYUwPDOW93K2ks5u8y/DnhzRqaSWrfnsGgqAXcIziWazJ8GBg7gWsOaGjWHeTSBG+OeeXCdYyj4mq5N/0jsrno/SKWV1SxiVq+PSOQEQ9/TsE6I0vXj2ZA5Gx+rG3h4RwZg4c/xUOCY/lMdgA94xZzv45k414uSurHUWuOUEuSV4v4j0+LhEXOtvmc9thOOlnHk8Zirh3mxYELvmSz/T6SbDrInLRgKpd+zotGki15XKX0YsLywySNVK2W09s/gtmL3mdReQWrmhzrxrnOjCxeO5z+mWupbiVprGV5hZZmGql+NoNevlG8/ZkD1JhNPLvhNvrGPMqvdWTTwRymBSu59POLFKa1ikqvBC4/rCdppHpNBn0CYzlhzQFqzDoeXJpA7zGv8ILZVZ628siqDIZkLOeXQuC4bWogw+ftZqurfh3iInaOsNHhdbRnMw+sSGbQsCd50NpmzahAekY+wi91QnzSAyZzi4ZOYijmg0buXZTEfqPWUEjjqyz6x6csanW23bbuicZNLMcc0PrxQwwNnc2OcjCToZFz6Kgc9Lj2Ff+OGf4T+GaNmRTLZb2WexcnMvDuTbygvcoWYxMP5qQxWLmUnwsJw7xVSnolLKdgovP6TIq37ULLIf5val+OePpbakk2HnuetwX14qDH95Ek9UdyODRwKrdfth5/9T3+v+B4Lt6vI0V13pXmAyuYHDSMTx68TDO1zF0zioGekXxEEBRXpwdw8hZNz22gkcW/y6D/hDdZYyZbDudQFjycTx2yjvNMNgM846xztke8RojGzUEN1hav5XD/TK4VChFryyuoNbvQrIua0DN7KK5JUe10RbSvzvrugtWmoFhOfPYQL5mb+PHsMPpHJ3L0gg95zmhk0TMKeivXsMjYTf90sy/xmInUB0fnYNFzlwOu+7zQFRv/ulgX/Rzc9Iv9ltqzLDt9mqdPl/G7agdnhBvCTM2OGQyOepiftX3Y0x9hzlA/TnyzhmZe5rYpgZT9No9Gkpe3TaGf3yi+VGy96mKu5fZpwYyctZ1FJYXM3b2Zy24dwNCpW3neWMk3JwUxftE+drlAqz/IpYP9eMemOppJNuyYRv+AsXzFenlYfySHQwPu5rYGkubzfGW0L0e8cEq46iA2ptnBHEnqDy3l4N4JnPniJm768zounhjHfimP8KNKMzU7Z7Cfjf1H+URyIKduv0yaRWzoLqbTXJfly1Evl9NEMy9umsy+iUt50FG2kcK3Dq+Mpu+IF3hKMJi126cxOHIWtxeVsDB3Nzcvu5UDQqdy63kzqX2b04OG8okjepJ6Hlw6mH53bGKd4FhO8w/g2Fes32jojzBnaADvFhzbs3Eub+MUPz+OeqlYuBJGkvpDXDq4NxNmvshNm/7MdYsnMq5fCh/5qJJmzU7O6BfFhzscy6NPJDNw6nZeppmVb05iUPwi7rsOx5pr3+RE72A+8JGjpX5b34/zm/a+W/nJ7BD63fMOycvcNsWPfqNeYieJdNWNqM70PLQsgV7JC/hxRedAarlzRgCDxv2RZYKU2frJbIYE/Yq7mqxaevybDi21fsLZIX68550Wkg3cMc2fAWNfsX5LoueRnKEMuHsbG1zkqbF2O6cFR3LW9iKWFOZy9+ZlvHVAKKduPU+zaL9OEI2dEzrr8DramzU7OCPYts2RnKH0mygsqC5vm8JA2W+ZZ6TDGJpFfGCsfJOTguK5yE5sZifbhf6tda+tBjiLm2iOdcV0eh2zfEfx5XITab7ITZP7MnHpQYcn357WPu3b0xk09Ake0bvIZXMt35zoT8UzhTR28sPjHQkj6NbvHgomOq/Prtrac+lv97J/1Dx+2nYq0+fyf5MCeNdbl4Qa9OZE+iueYaE1rvqjTzDZuvgXi3GX5Z9Zwx0zghn18GfWb5mt8/abKCxmLm/jlEAZf5tn7LENpJZvTw/i0CeOUE8Nd87oZztOpzl3RaRGtLiIm4MarD+0jAleyVzwcUWHhlxpVrQm9NAeF5oU004XXPTVoW/7hnRgk45fPhLJ3kOW82AzSZpY+sII+t7yB1YYeuofkb5MLmImWh+6noPFz1323Mh5oSud/Su6LvqZELmr7ibAUokPnrgfM2fOxMyZM/Gb9Qftj7hBdMj9+ltg1ESMsd6kZanLw4nKaMjlwXDXq1FQ0gupiqHwhB7qghL0mrAQ81Ot935eO4g9h1phyn8Vc+c8hlWbDsN9+hYcenceYloOYe8xb4yelA0fmzEBS20BiqpjoVAEwx0GFOeXwPP2eZidJNw72VRSiqqYNMj8ARiKUFgWBJl8kHDvrNiY7g7mCAtqC4pwsW8/uJ9Toei7qwi/fzOOHduCe6MNOLbvKNjZ/tpjyKuMg1wRADQ5t6HbeMQgOdEP58tOw2hQYfOmI5AteBSj2h6U64IBRYVlCJLJMUgwGAf3HEKrKR+vzp2Dx1ZtwmH36dhy6F3Mi3GHQZ2PEg8ZlCm9AUstCoqqEatQINgdMBTno8TzdsybnST4rqkEpVUxSBMc26Nx9OoClPSagIXzU9sfSLPUFqDoYl/0cz8HVdF3uBp+PzYfO4Yt90bDcGwfjnIUJnY4FsfyKhEnVyAATTi09xi8R09C9nU41nLxImo5AFFRvex3CQ/Y7T0Gn9F3YmR73y24dKkVwaGhgFXTExbOR7tEeqpt994YuWIDlgz4ArNkKbjruX3QWAAYTqKgxANj5z6ERA8AsEBbVY1roeEI1x/G3mM+GH3nyA4ttVzCpdZghIZ6AIZi5Jd44vZ5syGkQRNKSqsQkyaDv4s81R3cg0OtJuS/OhdzHluFTYfdMX3LIbw7Lwbuov06RicaO8d01uH1tNflfo1v0blNHfJOVCJaLkdwW16nKjDUEw5jeE3EBy2H9uKY92hMshNbk5Ptbf2nKobCs0U8buI51hWPmGQk+p1H2WkjDKrN2HREhgWPjoLDctCj2meAOr8EHjIlUnqL5zKMhVCd8kaKPAGeAFoO78Uxn9G4syNh0HLpElqDQxHqIV6fxdu2b7Kiw9F9R2AZNQljre6x1ObhxMUYyNMDARihKjgFn1QFEjwBwIL6vHx8HyeHIkA8xl0WArpcCCkzxnr/sQV1eSdQGS2HPLitnqVCMdSzhzYAMKiRX+IBmTIFvXXHsO8obcapPZaHSuucuyBWIzzF4+aoBvceuQIblgzAF7NkSLnrOezTWAAXmhWtNT21x4UmxbTTBRd9dejbviG62mSuRkmZFrJZ8zDSFwB0KDlZgeDkVEToeugfsb48xGMmXh/sz8Euzl1duIHzgn1X6Oxfnfi66Gei65xvJtwHYu6OE1AVFqKwUIVvN95tf8SNYdHi+4stCIuNsT6kZcKZ93fheC/h4Q5LjQrquiQoFF6ApQYqdR2GZGYj0NrcXH0OlXoZFn+Sj/y8XOz79G1sWDEFSb6Aub4KtYZwRA/s+li3rqAApd4yKJM9hQWquhZDMrOs/epRWFCCXilyDPUETGeLcLI5CXK5sLATG9PRHAEdCvJL4T16GTZvehOvv/oinnr4dsT7ArA04Nz5KwiLjW23v+y9D3DcRwZlgqeoDd2nF4YOHYTG8jIUvfMCtjTNwuoF1sR3hOksik42I0kuRy8IheZcpR6yxZ8gPz8Pufs+xdsbVmCKYDBqVUWoSVRC4QNAV4CCUm/IlMnwhAW1BWrUDslEltUZ+sIClPRKgVxwbI/GqVGpUTckE9kdjoWuIB+l3qOxbPMmvPn6q3jxqYdxu+BYNJw7jythsYi1FmZT2Xv44LgPZMoEeJrrUVVrQHj0wOt6k4Wbny982IC6WqP9LsBcj+o6A/pHRHT0rd2Hbwq8kTUmw6rpIcjsbIgD3YjqDIBH9BT8ft8p5G2UQ/3Ck9h82gzLpUIUVSdhxIi2gtiI/fsLEZA9GrIr1agz9EdERIfF2n3foMA7C2My+sBSWwB17RBkdgQLBSW9kCIfCk/RPPVA9blK6GWL8Ul+PvJy9+HTtzdgxZQk+EL4QOa03/aZdMZF7OwPB+x0eH3ttd9fREtYLGLa2px5H7uO9xIezrXGJ0mhgBfgIIZmER+YUV9VC0N4NGzT2Nn2tv6FumeuF4tbL/Ecc0SvoRg6qBHlZUV454UtaJq1GgusCyF7elb7aqEqqkGiUgEf0VwGzBfVKGlIglzeR/BDdR0M/SPQYaIW+74pgHfWGGT0EqvPLtravwzE0oBz5xtt6u2pd97H8T5Wf5m/h7qkAYPT0tAHAEynsfO9o/CWKZHgKRbjrli03+NiSxhiOwSF93cdR69UBVJ6W+tZkgIKrx7aAMBSq0JRTSKUCh9YGs7h/JUwxHaIHe99cBw+MqX1A4stYjVC7iEWN8c1GB7RmPL7fTiVtxFy9Qt4cvNpGEQ1K15r3HtojytNOteOfU+u+2rXt31Dh3VOBdXpYChHWGuO6RRUJ/VIyVDAvcf+cd5XL9Fc6+k5WPzc1YUbOC90obN/XayLfi5u7sX+j427F3x93NFYXw8jgMajL2PxhuMwJCmg8AF0hSqU9ZdBEeUB6AqhKuuHNGV0+0LVLTAIAW41qChvbu9S39wMPQA3P3/4ogbnKlqEHdcqkF+sgQUmnClQo3moEkovADohkdr7NVdBpa5vP7GbvvsOlb3DEB4shFpsTEdzhOkMVMXNGJoxDN7tLay4e8PP1w1X6jXt9i9/TQVTshIKLzEbeoIHBiYnwa90C+auOoExz6/GOEdXNdowfYfvKnsjLDxYELdbIIIC3FBTUY52i/XNaBYMhqrgNILTlIjxAExnCqBuHgql4FioVMK+aMGxqFKpUZ+kgEJwbI/GKVSVoV97XxAKi6oYzUMzMKyrY+Ht5wu3K/XQCI7Fy8tfg8qUDKXgWPj7AjXnKiB49hoq8ouhsQAt+VuwYukmnBB5ZYPHoHEYHd+AT15+AV9X6QEYUJf3Np5c8jqKGISQ/p6oLT+DKwBg0eCrZ5/HnoiFWDGtr6DpfmlQdhjiUDfOdWZBQ4kK5S0A4IfBsngE9glEX383GFSFOGVowPnyy7AAuJL7B2zcG445C+9AYFAI+nvWovzMFQCARfMVnn1+DyIWrsC0voBOpcLp4I55matUUNdbP2iL5qkbAoMC4FZTgY6p6tEsBE68X4e4iJ1DOuvwetq7w8vXB+6N9ahva7N4A44bkqAQChFUZf0hU0TBA9a6ZBNDMR+4wU8QGzrSOB/FGjrZbrGpex6icXORY47wGIjkJD+UbpmLVSfG4PnV45x+w9Kz2qdCwelgpClj4CGay4CusBBnQlIhj/AA4IGgkP7wrC2HYKIFmq+exfN7IrBwxTT0Fa3PLtq2jd2Gex94ebmhsV4DIyxoPPIiFm/Mh3GIAnIvAGYNNJct8PT0hBsacfTl5fhTgQnJSgW8RGPcFXcvX/i4N6JeEBSOvrwYG44bkKRQwMdaz/rLFIjy6KENAHSqAiGnYjzg7u0HX7crqBfEjqMvL8drqrY5d0WsRviJxq1rDbY0lEAlFCL4DZYhPrAPAvv6w1NUs+I1oaf2uNKkc+10xVVf7fru3MiKvU2mMhWKdcnIUFi//dUWovBCDBSKYPTqoX/E+nJ3ETPR+mB/DvYQP3d14QbOC13o7F8X66KfDfv7eiR6gpk1ux5ijG8YZVlKJmfNYc4DKYxdsIc6Cg8hBk/dRo2ZNBav5fDgqdzW+W0aZg13L0ljUNBgZo+fyLHDEjl46hs8ayJpruaH8xLoG5TAUeNuY3qCnPM/rKGZjdw5oy8Tlh6gnsLbY2z6bf0n50TEc5HwSgEa1euY7R/IhOwxnL7uKPUiYzqcY+NOzuibwKUHHN3oZ+bFd2cx2jeC6SMzKLttIVfPljFl5bfUU8yGnmEqe4nZvTw58MFdrHbV2Kjmumx/BiZkc8z0dTyqN1OzewnTgoI4OHs8J44dxsTBU/nGWRNpPMm1w4M5Zavw7EPjzhnsm7CUBwTHcu3wYE7dprHOt5X/nBPB+EXCW2N6Nk6xXV8k7eJoj/niu5wV7cuI9JHMkN3GhatnU5aykt8KjmX1h/OY4BvEhFHjeFt6AuXzP2SN2ci8p9MZMGQlDzrqtBMNh57nhKg+dPP0or+/F3sHDeE9rx5jM0nt/qeZ2S+IcVnjOCYtkpHDFvCdMuHBq86absOhbpzqzMjC9WMZNVDBseNHMTF8ECevP8ommljy3HD6DLmFI2NjqLhlGGND4jjt1RPWh4i13P90JvsFxTFr3BimRUZy2IJ3WKYnhbdT2c6r9Z9zGBG/yPpmDbE8Jc2a3VySFsSgwdkcP3EshyUO5tQ3ztLksl/HiMfOAXY67HF7kuaaXXwoxpdhsiwqk7M4J+cBpsQKD5rbxsdxDJ37gDRXf8h5Cb4MShjFcbelM0E+nx/WmJ1s19v1LxI3VznmEBPLXspmL8+BfHBXtWgt6VHtO7mWw4OncGudWbiX11ku08iC1ekMuHMz29+tot3PpzP7MSgui+PGpDEychgXvFPWrfos1rYrZl5851eM9hF0nDJyNueM6c9oq45JLT+bH0fvkGRmKlN568I1nCdP4UqrcMRi3AVzDXc9FEPfMBmzlMnMmpPDB1JiuUAQlG3cemSDNaembBWeizJf5Luzoukbkc6RGTLetnA1Z8s65myLqxohEjf7OZM0Fq7n2KiBVIwdz1GJ4Rw0eT2PNlFcs65qQo/sEauT3dCOPS77atO3PV1t0r49ncHpq6zP+JD6A0uYEP4Q/9HMHvtHvC+xmLmoD13OwWLnLkdc73mhK/b1Q3Rd9DPhRvKn+ImVmxgLGstPoLQpFClpsQh09LFZFBMaylUoqdLDJzwRKYmhnT61X0N1sQrlTf4YlJaKaL/r+yKmuTIfqkpPxCnTEekDF2P2FDMaz+aj9Koz+2/UBhNO//kujP1jNDb9ezOmhnSjfXMl8lWV8IxTIl0wGKaGcqhKqqD3CUdiSiJCr9/gDn7kccyNZ5FfehWhKWmI7epYXKsuhqq8Cf6D0pAa7dfzr+n0GpwuKsMl9MfgtKEI6zRX85XzUBdXojUwHumySMdfXbrEmc4saK5Uo/CCHv2T5BgS2gdAE967LxbPxe2GanU4iotq4BWvQGp4ZweaceW8GsWVrQiMT4cssiezcpGnpgaUq0pQpfdBeGIKEm8kcN2InSuup72lsRwnSpt61MYGMR9cq0axqhxN/oOQlhqN9jR2tt2GG4mbHabT+PNdY/HH6E349+apcFUObqT2OcxlSx0235WEv4w4iOO/S++4XcB8BefVxahsDUR8ugw9MrFHba31tjEEySmXsX7EWJx4rBxf/s8AIf8tV1CRXwJtSArksYFdr+KKxdgeSyPKT5SiKTQFaY766kyPbLDD3Iiz+aW46nKc7tQIJ3FzgqW5EurCC9D3T4J8SKhw+xNwY5rttj1tdF+Trvkh+xLjBvzjgJ7EzAYH5+Cenbt+rPOCq3XRT4+02Jf4RXPtxPMYP+lvULzzb7x+R7D9bombBcMR5KTfhYpV5/D3X3e+qVZCoo1rOPH8eEz6mwLv/Pt1/LTlwIKGswUoProNyxYdx/T9R7FG/vPdfwsAaNiGKYP+gKFfFeLlLEdPXd5kSDVCQuK6cXFdRELiZ8RSj68/OIqonC1Y99Oe2SV+akzN6B13D6ZkufptR4n/Viz1X+ODo1HI2bLuJ17oA8A15G1fhWd3anHn5nfwfz/3Qh+Aud6M/rfdh0ldfkX9JkWqERIS1410ZV9CQkJCQkJCQkLiJkW6si8hISEhISEhISFxkyIt9iUkJCQkJCQkJCRuUqTFvoRL9E2NuGa23yohISEhISEhIfFLR1rs/xC0nMIXOz5GYWPPfi7ql0TLqS+w4+NC2JtwZf9yDEubh13fS6t9CQkJCQkJCYn/NKTF/g+A7uBGPJqzGbmXXT/rrM99GQ8s3IrTv6i1sw4HNz6KnM25sDGh5TBeeOIgxv5lC2bH/gJeFCshISEhISEhIdEjpLfx/JjotdC0+iA0qO2nOkxQPTMMo489iu++XIgBnT9q6RtRe9kI/wEh8O2yrragpeEKPIL6wsumjX3/bRjQWKeFW78BCHTwhjhzSz0013wQGuIr+oMfupp85FYEY9SoQY5/mMPp+BISEhISEhISEr8EpCv7N4wOe1cMx7jn8mACoPvmf5E9cx22PjEJKUNkGBIZh7veOAWz+Qz+NDUJk14pwbV/r8aw2CF4+EMtYLqAz357B5IGpeKWUSmIipuEl440Cz1/tRyZ9z2D3z+QjLCQaMx8W+u8/7bZlGzDb+RRiFcOw9CkiVj1zEPIeOhvws5rJ/HX+VkYNHgYRg+PR0zW/+ErLQDdXqwYPg7P5ZkAAIaKv+N/b49DlOI+PHKPAoOyFuPvlcIIrsaXkJCQkJCQkJD45SAt9m8U02kc3ncG3uGx8IQJ3x0+APVXW/CBz29x4OxZfDLfF/s//ApVboOxcMcfMb2fP6b9uQjFxSfwxr3eOPq7e/Hwv5LxxxMXUH6uBBvlx/DaWwehgwmncw+g+F9b8c9+v0PumWK8eZ+/8/4tAK59i2dm5aB08t/x3fffo3RnNvb98X009o0CcAVf/999+N9Td2DXqQs4c/47fPF/tyDcGzCdPox9Z7wRHusJNB/CqhkLsF/2ZxRdPIdz577GI8a38NSrRwAx+/5zH1eQkJCQkJCQkLhpkRb7N8pVFQrPx0Au7wugCarCM/BULsWfVo9GiLsbevf2RC+/QPi7u8PzajnOXEpARmYoggL90Kv+fbz0Ri3GL/oNBtYfw+db1mH7sT4YPioVvXEVqsJyeKQtweZXZiItfhAi/MT6B+r/sRHbtDPwzG9vRbA7EDRsMm6N8kWqMg2W79/DH/5mwqznnkBWEAD4I23GFKR5AVdVhTgfI4e8rwXf/20dtrTMwvp1kxHpCcAnFcNS/VFzodKFffaOkZCQkJCQkJCQ+LmRlmg3iF5dgJJeqVAM9QQMxcgv8cTt82YjyQMAmlBSWoWYNBn8ARiKClEWJIN8kHCn/LWDe3Co1YT8V+dizmOrsOmwO6ZvOYR358XAXa9GQUkvTFg4H6lt992L9q/DsX1HwVETMcb6a+KW2mPIq4yDXBGApkN7ccx7NCZl+7RN3Yoe6oIS9EpVYKhnCw7vPQaf0XdiZPthLbh0qRXBoaEuxpeQkJCQkJCQkPilIS32bwgLalRq1CUpoPACLLUFUNcOQWZWoLBbX4iCkl5IkQ+FJ0w4W3QSzUlyyHsBgBnV5yqhly3GJ/n5yMvdh0/f3oAVU5LgC8BSo4K6bggys619wUX/lgacO38FYbGx6A0AMKHsvQ9w3EcGZYIb6qtqYQiPxkD7B3YtNVCp65CkUMDLXI/qOgP6R0Sg/TDtPnxT4I2sMRni43fqUkJCQkJCQkJC4peBtNi/IXQoVJWhv0yBKA9Ap1LhdHAalNHClXtzlQrq+iQoFF7C/e7fVaJ3WDiC3QHADYFBAXCrqUC58DwuAD2am/VCz4UqlPXr6Atw0b+7N/x83XClXgMjgMajL2P5ayqYkpVQeLnBz98XqDmHihahr2sV+SjWWABdIVRl/SFTRMHDIwgh/T1RW34GVwDAosFXzz6PPRELsWJaX/HxYUDJzifw+Pp97fOVkJCQkJCQkJD4eZEW+zeCqQLFp41IH5GOXjDhnPoUDPJM65V7wHjyJCrClBgW7QHAE/FDB8P4+VMYN3YGXjxmQsg9i/Fw339g9rCRmDBpHIYnpeLXO6tghgkVxadh7NQXXPYfiIkPTIX7BwsxatQw3PZ/lRgxfjAGZwxDmLs7QqcvwK/8/o65w2/B7aPlkN+7CWUWwFRRjNPGdIxI7wUgGNOWLcagvf+DEdm3Y6xCiYf/nYU/v7camV4uxjdfxL+2voGP8uvaJiwhISEhISEhIfEzI71n/yelGZX5KlR6xkGZHgkfADA1oFxVgiq9D8ITU5AY6vCN9t3EjMaz+Si9GoqUtFgE2r9E/1o1ilXlaPIfhLTUaPg5+ahnvnIe6uJKtAbGI10WCV/7AyQkJCQkJCQkJP4jkBb7EhISEhISEhISEjcpTq7tSkhISEhISEhISEj8pyMt9iUkJCQkJCQkJCRuUqTFvoSEhISEhISEhMRNirTYl5CQkJCQkJCQkLhJkRb7EhISEhISEhISEjcp0mJfQkJCQkJCQkJC4iZFWuz/bLTg1Bc78HFhIywA0Lwbi4dPwcYSEwDApK2AOv8E8vNVOFleh2sW+/Y/IqZSvDZ9GB79pMl+zw3TcuoL7Pi4EI0WADBBW6FG/ol85KtOorzumuCLXzDNVaUormiAEKXu8jPZqa+B6ot3sfWtHfho3ylof5JBfxmYSl/D9GGP4keQcLdo3r0Yw6dshDWdf3B+bvu6cL01w67uSfzU2J2HfkJ+cRruBs7zuhm7Fw/HlI0lPTw3XD+259IeIuXdfx3SYv/nQncQGx/NwebcyyAAg/oA9p7tjbAoT8BSg7dmpWP0zEexZMn/4IExiYiUzcGOMz9RYmqP4Kv91xAQ1sd+zw2iw8GNjyJncy4uE7DUvIVZ6aMx89ElWPI/D2BMYiRkc3bgpzKzp1gqt+FBuQzy7BX4Qme/1zk/vZ0WaPY/j7uHDkb2nGfxxqYNWDFdjpR73rI/8KZFe+Qr7L8WgB9cwt3CAPWBvTjbOwxRnvb7fhh6Yp8+92U8sHArTpvt9/yAXGfNsKl7Ej89duchh+hz8fIDC7H1BxZQTzT8y0Akrw1qHNh7Fn3ComC/68fB9lza0xhJefffh7TY/8Ewo6W+BvUt3Us2eE3GlgsafPl4PDxgwaUCFaoGK6HwA2AowIniPrjjxQPIzT0GddluzOX7+N1rh6Fva29oRF3dFSdXEXo4FwCAAVfqNGgyAfrCPJz0SIUipXen/Xpoa6pF+7ToGlB/pdOMDFegaeh8FdsLk7dcgObLxxHvARgKTqC4zx148UAuco+pUbZ7Lvj+7/Da4XYrYWisQ13nPm24HjsF9FoNGjuG6QZafLn2BagUE5HafAanKh2PadFpoWk02Gy7YTvNLaivqUd3zdSrXsa996xH9Z07cPLCGeTnqXGufC9+Oz6y81Eu4mlBS4MWOpurRg626RtRW+1obnpoa2qgdehjC3RaDezcZMXVvERiZ7iCOk0TTNCjMO8kPFIV6CxhfWMtqutb4Kxnp/3aYEBjXR2chQoAYLmEAlUVBisV8Ou8Xa9FjUNfAXptDWocO6sDF/Y51pAJpV+9i93nTejrZrdLzNd6LWpqtB31xiGua0ZjrZP+AcC+7llxbIdAt/wEABYdtJpGOJaYM83Cgcad61ivrRHVE6CHVtPowIfiGuqujZaWBmhtk9G5v63niy7+sDkPCdiPbyr9Cu/uPg9TVwEBlhY0aHWdary4beIaFm9rPy/HiPgAEImJPQ76cZbXACyXCqCqSoRS6SecAxzOUyTfRHTmuF7ankudxsjhOsFx3knc5FDihmkp3s5HMqMZNjCBMQMimfnEHpJN/PQxBcevU9FIkjSx/I0ZTH1wJ0my9V/LOWzsWh43kmQrP5sbwchHvqCOpPHkWmb4ZPHF0yZhAPN5bhztxcj5X1LHVp7cOofpIcGMiApn3ISnufpBJR/cqRGZizgt6rc4Rx7K4IgohseO5m9mpNA7cx2F4fU8+9FKjhvUjwNiYxkaGMbMRR/xgnVqrV+vZNbMl/jXpyYyJTacQX6DOXfXaR754yxmDI5if59gjnr+OHUk2fovLh82lmuPG0kaeXJtBn2yXrSOQ5rPb+Ror0jO/1JHtp7k1jnpDAmOYFR4HCc8vZoPKh/kTo1ZmHOP7Wzl1yuzeP8LbzFnYjJjI/vSJ2IyXy810Vy9nbNSpvP1cutEeJW7l2RwRM4+Yd4kdceepiLsDr556h+cHTqAc/7Z2t6z7uuVzLp3Df+8bCyTYqLY3z+CEzaorG1vxM4WFm9/hJnRYRyYEMMBkZl8Yk8DSTNrPniESsUi7m5pn4aAqYJ/nhDEvhP+xO/azLHBRTz3LOOIe1fzpVlJ9HP35dTtDQ630Xienz41iYnhkYyPDWHQwIl88d9NJEntty/y7oRQRsQN4oD+yVz5jY6kjl+vzOK9a/7MZWOTGBPVn/4RE7hB1eZhsXk5j51AC9VvzaE8VMiJ2NG/4YwUb2auO00TSeP5T/nUpESGR8YzNiSIAye+SGGqrvq1pfXkVs5JDxHyJG4Cn179IJXWfLY98DPOjYjkI19YbdOf5Ucrx3FQvwGMjQ1lYFgmF310gSaS1H7LF+9OYGhEHAcN6M/kld+0a64DcfucaqjmFF+bEscQP096+IUwKjqJ83Y1uPC1lt++eDcTQiMYN2gA+yev5DddJ+SiZhh5/tOnOCkxnJHxsQwJGsiJL/6bgjo6Y1v3nNqhMXfPT7qvuTLrXq758zKOTYphVH9/RkzYwHaJiWjWkcYd65jUn/2IK8cNYr8BsYwNDWRY5iJ+1FEQuTLrfr7wVg4nJscysq8PIya/zjZJiWqoOza27uGyEfdy9UuzmOTnTt+p29kg6u9Wntz2G6t2BjD61iVcObPjfGFzHuoy/r9Y/NoUxoX40dPDjyFR0Uyat4tkK/csG8F7V7/EWUl+dPedyu0NLmxzoWHRtl3m5cAvYj5wERNbxPqxy+tOtH42l5Ex9/LJ5eM5JCaSfX3CecdrJdZzv1i+XWe9bD+X6ljmJEbO1wl2eSfxX4G02L9RGvdyUVI/jlpzhFqSvFrEf3xaROqPMGdoIKduv2w98Crf+3/BjF+8n6SRqtXpDJi8hRqSNBbzdxn+nPBmDc0ktW/PYGDEw/zcup40lq7n6IBIzv5Yy5bDOZQFD+dThy7TTC1zn8lmgGccF+/XOZ+LGM0HuCI5iMOePMjLZlKbu4ajAj0Z+ciX1JFsOpjDtGAll35+kUaSLXmrqPRK4PLDepJGqtdk0CcolhOfPcRL5iZ+PDuM/tGJHL3gQ54zGln0jILeyjUsMpJG1WqmB0zmFg1Javn2jEBGPPw5BTONLF0/mgGRs/mxtoWHc2QMHv4UDwmT4jPZAfSMW8z9OhGfi2FUc02GDwNjJ3DNAQ3NuoNcmuDNMa9cIFs/5kOhoZz9idXhDR9wZmgk53xyVfjfVMY/3h7KjGfyqDOV8vkRPhz5+++EhRaNVD+bQS/fKN7+zAFqzCae3XAbfWMe5dc63pCdjXsXManfKK45oiVJXi36Bz8taiVpYtm2+Zz22M4uC3pj8VoO8xrIBV822+6w4iqeqtVyevtHMHvR+ywqr2BVk6NtrTyyKoMhGcv5ZZWJpIbbpgYyfN5uthqLuXa4PzPXqtlK0lhbzgqtmTSq+WyGF32jbuczBzQ0m85yw22+jHn0a9fzEosdyeYDK5gcNIxPHrTmxJpRDPSM5CNf6sjWI1yVEcKM5V9SmOo2Tg0M57zdrS77taHlMHNkwRz+1CFrnjzD7ABPxi3eb38kjcW/Y4b/BL5ZYybZxIM5aQxWLuXnF40kW5i3SkmvhOU8rDeyeO1w+meupVpwFssrtBQ+znYgah/FNGSmvuEzzo/py3v+Wk1tYxN1ZnFfG4vXcrh/JtcKE2JteQW1XSckWjNaj6xiRkgGl39ZRcHlUxkYPo+7Oz4fC9jUPTE7uucno/pZZnj5Mur2Z3hAY6bp7Abe5hvDR7/WkRTRrCPda53ouOkgc9KCqVz6OYVw5nGV0osJyw9b57CGGT6BjJ2whgc0ZuoOLmWC9xi+csHsQkPdtFG1mnJvf0ZkL+L7ReWsqGoS9XfLof9lavv5opHHnr+NQb0GcdF+nTXf285Djsc36hv42fwY9r3nr6zWNrJJZyaNKq6We9M/IpuL3i9ieUUVm0Rtc6Fh0baO52XvFzEfiMakJ/3Y5HVnjCz+XQZ7e4Vz3DMHqDHreHh5Ir1Hv8ILLvKN11kvO59LzQ5iJLpOsFtvSPx3cNMv9ltqz7Ls9GmePl3G76qti7cfDDMr35zEoPhF3Gd3hdVc+yYn+iv4TKHw2Z76o3wiuW3xf5nbpgRS9ts84ZO/9m1ODxrKJ47oSep5aOlg9k6YyRc3beKf1y3mxLh+THnkI1aaNdw5ox+jHv6s/SqZ/ugTTA6cyu2Xnc/FOWZqdsxgcNTD/Ky9wyPMGerHiW/W0Gyu5JuTghj/+Dds77L1E84O8eM977SQbOCOaf4MGPuK9Yqejl8+EsneQ5bzYDNJmlj6wgj63vIHVpjIy9umMFD2W+YZSeoPceng3kyY+SI3bfoz1y2eyLh+KXzko0qaNTs5o18UH+6YFI8+kczAqdt5WcTnojTs4DT/AI59xXo1VH+EOUMDePe2BtJ0muuyfDnq5XKaaObFTZPZN3EpD7aSpJm17/+KkXEPc3cDSbbww1n9GPabT62Ldy13zghg0Lg/sqzt6t0nsxkS9CvuarkBO9t8v2hfh+9dYmbtmxPpHfwAP3K01ncZz8vcNsWPfqNeYrFVto62mWu3c1pwJGdtL2JJYS53b17GWweEcurW8zTrD3FZgheTF3zMis6LO+1OzggI4rg/llk/JLXyk9khDPrVLtfzEoudWcMdM4Jtc+JIDof6TeSbNUbWbp/G4MhZ3F5UwsLc3dy87FYOCJ3KrefN4v3aodk5g/1s8qRzPtuifXs6g4Y+wSN60lz5JicFxfPxbzqi2PrJbIb43cN3WvQ8tCyBXskL+LGNszohap+ZFNMQSfP5VzjadwRfOGUVpwtf6w8tY4JXMhd8XGHVtz2uakYtt08LZuSs7SwqKWTu7s1cdusAhk7dyvP2K4vOdU/Ujm74iaR25wwGBI3jHzsSkbNDgvirXS3imnWgcTrUcVvteZwd4RR07HfPOyTJhh3T6B8wlq9Yv8bTH8nh0IC7ua3BlYa6Z+PlbVPo5zeKL3Uko4i/Ndx5Tz8OfOTzDu3k/i+TAqdw22XanYecjG8+z1dG+3LEC6eseUvy8jZO8fPjqJeKrVeuXdjmQsOibZ3NqzOiPhCPSU/66ZzXtmj59vQABrafA/TMXZlE/7u3scFFvjnWmYt6adVB+7m0S4zE1gn26w2J/xZu7nv2LZX44In7MXPmTMycORO/WX/Q/ogbpAmH9h6D9+hJyPax3WNUFeCUTyoUCcIDMJb6POR/Hwe5IgDQq1FQ0gupiqHwBGBQ56PEQwZlSm/AUouCoovo288d51RF+O5qOO7ffAzHttyLaMMx7DtKjJo4xnrPoAW1x/JQGSeHIsD5XJyjQ+7X3wKjJmKM9d49S10eTlRGQy4PhnvLYew95oPRd45Ee5ctl3CpNRihoR6AoRj5JZ64fd5sJHkAMFejpEwL2ax5GOkr9F9ysgLByamI8NBDXVCCXqkKDPUELLUFKLrYF/3cz0FV9B2uht+PzceOYcu90TAc24ejHIWJ7ZOqxbG8SsTJFQgQ8bkYhuJ8lHjejnmzk4R7U5tKUFoVgzSZP+ARg+REP5wvOw2jQYXNm45AtuBRjPIC0HwQ6575GIj3R9FfXsSLL76CQ7W9oD1zClVmAIaTKCjxwNi5DyHRAwAs0FZV41poOMJvxM6mQ9h7zBujJ2V3+N4lFly8WAsOiEJUL/t9AFzF06rLCQvnI7XtuS0H264d3INDrSbkvzoXcx5bhU2H3TF9yyG8Oy8G7r1HYsWGJRjwxSzIUu7Cc/s0sAAwnCxAicdYzH0oUfC/RYuq6msIDQ93OS/R2OlyIUi4Iyfq8k6gMloOebAOB/ccQqspH6/OnYPHVm3CYffp2HLoXcyLcRfv1wYdju07CnbOk9pjyKu05rMNBqjzS+AhUyKlN9ByeC+O+YzGnSM7othy6RJag0MR6tEbI1dswJIBX2CWLAV3PbcPGvs3a4ja5w6dmIYAGIoKURYkg3yQ9Y5sF77uPXIFNiwZgC9myZBy13PY13VC4jXj2kHsOdQKU/6rmDvnMazadBju07fg0LvzEGN3tulc98Tt6IafYMDJghJ4jJ2Lh4REhEVbheproQgP9xTXrAONw6GOW3B47zH4jL4THeFswaVLrQgODQVgQHF+CTxvn4fZScIcmkpKURWTBpm/Kw11x0ZrDZ2wEPM7ktG5vw3/xt5vgZGTRnecL/JO4GKsHPKAjtwWzkNOxjcUobAsCDL5oI57+tUFKOk1AQvnp1ofRnVhm6iGDeJtnc2rM2I+cBeLSc/66ZzXNhjUyC/phfEPzxbOAZZGnCypRkyaDP4u8s2xzlzUyzYdWM+lXWKkE1sn2K03JP5ruLkX++4DMXfHCagKC1FYqMK3G++2P+LGMNejqtaA8OiBdk/gm/G9ugQNg9OQ1gcATDi98z0c9ZZBmeAJS40K6rokKBReQiKqilCTqITCB4CuAPml3hi9bDM2vfk6Xn3xKTx8ezx8AVgazuH8lTDExlqT1FSG9z44Dh+ZEgluzuYigkWL7y+2ICw2BkKPJpx5fxeO9xIetDPXV6PO0B8RER09avd9gwLvLIzJ6ANLbQHUtUOQmRUo7NSroDodDOWIBGEOplNQndQjJUOBXpYaqNR1SFIo4AVAV5CPUu/RWLZ5E958/VW8+NTDuD3eF4AFDefO40pYLDrMfA8fHPeBTJkAT6c+F8OC2gI1aodkon2qhQUo6ZUC+VBPAL0wdOggNJaXoeidF7ClaRZWL0iCB0wofu232Ok+GbNG+OJaSwtaWlrhGzoAvSpO45QRsFwqRFF1EkaMaFv0NWL//kIEZI+GvPf12+lWX4VaQziiB3bfSsANfr4+YEMdao32++A6njUqqOuGIDPb6iTAwTYzqs9VQi9bjE/y85GXuw+fvr0BK6YkwRcA4IHoKb/HvlN52ChX44UnN+O02YJLhUWoThqBDjftx/7CAGSPlruYVy/R2Fm03+NiSxhiY9qceAbv7zqOXqkKpHhU41ylHrLFnyA/Pw+5+z7F2xtWYEqS4H+xfm2wNODc+SsIi41tz5Oy9z7AcR8hn22PrYWqqAaJSgV8YEZ9dR0M/SPQYZoW+74pgHfWGGT0ATyip+D3+04hb6Mc6heexGa7t2mI2tdbXEOeMOFs0Uk0J8kht374E/d1H8AjGlN+vw+n8jZCrn4BT24+bfsAqquaUX0OlXoZFn+Sj/y8XOz79G1sWDEFSYI4OnfUqe65ssO1n2C5hMKiaiSNGIEOie1HYUA2Rss9RDXbVeNwrGNDParrDOgfEdFRe7T78E2BN7LGZAgXatS1GJKZBaEnPQoLStArRY6h7q415NpGoYYOycy29g9Rf1saKvF9cxhiB1qDbzqFd94/Du9UOZI82+xuOw85Ht90tggnm5MgbxMQLKhRqVE3JBPt7nKRH6Ia9hRvCyfz6oyYD0RjYpe6rvrpyGtbLLUqFNUMQWam9dODUQ3Vqd5IlQ+Fm6t8c6QzF/WyTQdt51L7GImuEzzt1hsS/zXc3Iv9Hxs3P/j7AjXnKtACALiGivxiaCxmaDSXYfH0hKcb0Hj0ZSz/UwFMyUoovABdoQpl/WVQRHkA0EFVcBrBaUrEeACmMyoUNw9FxjBv+9Hg7u0HX7crqNcYATTi6MvL8ZrKhGSlAl5O52JB/TfrseiZj+y7A9y94Ovjjsb6ehghzHPxhuMwJCmg8AE8gkLQ37MW5WeuAAAsmq/w7PN7ELFwBab1BXQqFU4Hp0EZLVwxMZWpUKxLRobCemLQFqLwQgwUimC46wqhKusPmSIKHjDhjKoYzUMz0NVMd3j7+cLtSj0EM4/i5eWvQWVKhlLhJeJzETuhg0ol+FiYqhlVKjXqkxQQznMeGJicBL/SLZi76gTGPL8a4/wBS+UOPP1qNaa9tBXrn38ez1v/nltxJ2KunMGpKjMMqkKcMjTgfPllWABcyf0DNu4Nx5yFd8DvBux08/OHL2pwrkKwEtcqkF8sXPVpyd+CFUs34USXNzd4YNC40Yhv+AQvv/A1qvQADHXIe/tJLHm9CHQVz0IVyvp1xBNwtM0NgUEBcKupQHlz21F6NDfrAUsDSlTlQlz8BkMWH4g+gX3h72aAqvAUDA3nUX7ZAuAKcv+wEXvD52DhHX4udCYeO3cvX/i4N6K+vi0nFmPDcQOSFAr4uAUiKMANNRXl6JhqM5r16IYmOuHuDT9fN1yp17TnyfLXVO35bINOhYLTwUhTxsADHggK6Q/P2nIIplmg+epZPL8nAgtXTAFLVCgXnIXBsngE9glEX3/bt2mI2udCQ4AJ331Xid5h4Qi2VnoxX09hCVTChOA3WIb4wD4I7OsPmxm5qBlugUEIcKtBRYc4oG9udvD2k851T8yO3mjohp9gUKHwlAEN58shSCwXf9i4F+FzFuIOPxHNOtK4Mx17BiGkvydqy89ACKcGXz37PPZELMQKoSBCdToYacpo4QqruQoqdb2wKBPVkKV7NuoKoSrr19E/xP3t3scbXm6N0GiMgKURR15cjI35JgxVKNCnze7+Miii3JyOb/ruO1T2DkN4m4CgQ6GqDP3a88Z1fohqWLRt9/wi5gPRmHTqA93opyOvbdGpCnC6X9v5HDBfVKH4kvAhSizfpgU60ZmLeinooO1cii4xEl0n2K03YCjBzicex/p9lzubJHEzYn9fj0RPMLP6w3lM8A1iwqhxvC09gfL5H7LGTGo/m8847xAmZyqZeutCrpknZ8rKb6m3PnAUPHUbNWaSxpNcOzyYU7bW0UyycecM9k1YygOObqczX+S7s6LpG5HOkRky3rZwNWfLUrjyW73IXK5y16/6MWDC6/a9kTSzZtdDjPENoyxLyeSsOcx5IIWxC/ZYn9LXcv/TmewXFMescWOYFhnJYQveYZmeFN4y08kO673KwemrhPsISeoPLGFC+EP8R7Pw4Ojw4KncpjGTbOTOGX2ZsPQAHZv5LmdF+zIifSQzZLdx4erZlKWs5Ld6Xp+dVh9P3aaxPpDUyn/OiWD8oo63OpjKXmJ2L08OfHAXq80kqeP+xYMZfHvHvfjtNPyV0wIH8fFvWljy3HD6DLmFI2NjqLhlGGND4jjt1RMUbpm/ATvN1fxwXgJ9gxI4atxtTE+Qc/6HNTTTyLyn0xkwZCUPOuqUDTz0/ARG9XGjp5c//b16M2jIPXz1WLPLeNroks62kWbNbi5JC2LQ4GyOnziWwxIHc+obZ2kyFnL92CgOVIzl+FGJDB80meuPNpGmEj433IdDbhnJ2BgFbxkWy5C4aXz1RNuDBSLzchU7cw13PRRD3zAZs5TJzJqTwwdSYrlgj46kmZrdS5gWFMTB2eM5cewwJg6eyjfOmlz3a4OZF9+dxWjfCKaPzKDstoVcPVtmzWdbjCfXcnjwFG6ta0uK/Xw6sx+D4rI4bkwaIyOHccE7ZdTTyML1Yxk1UMGx40cxMXwQJ68/2vWNNaL2udAQjVSvy6Z/YAKzx0znuqN6UV8bC9dzbNRAKsaO56jEcA6avJ5Hu05IvGaYNdy9JI1BQYOZPX4ixw5L5OCpb/CsfQ7Z1T3ndnTPT6aS5zjcZwhvGRnLGMUtHBYbwrhpr7JNYk4160jjznRMUrv/aWb2C2Jc1jiOSYtk5LAFfEdIIGvs22ocydZ/ck5EPBd9I2jRuYa6Z6NtDbUi5m/zRb7zq2j6hMmYpUzhqDlzOTZ0EB/7Rng4t8Nu5+Mb1euY7R/IhOwxnL7uKPXGYru8oQvbXGlYrK3zedkg4gPxmNjhsp9Oed2O9Tw4ZWu7flr/OYfhcY9b32LlPN+c6sxFvbTXQZcYia0T7PLOdHYjR/uGcua7wtuZJG5e3Eg6/S0Nie5xrboYqvIm+A9KQ2q0n/XrEguuVOSjRBuCFHksAu0vB1wv5kaczS/F1dAUpMUGdrnKYD8X3bFnMOa+XMz87HOslNtfywAACxrLT6C0KRQpaY7macaV82oUV7YiMD4dssgu38f/KJgbzyK/9CpCU9IQ23VS12GnGCac/vNdGPvHaGz692ZMDenuF15NeO++WDwXtxuq1eEoLqqBV7wCqeHdH1/czmuoLlahvMkfg9JSEe3X3XkBes1pFJVdAvoPRtrQsE5XsX6geJoaUK4qQZXeB+GJKUgMtY5gaUaluhAX9P2RJB+C0D4Amt7DfbHPIW63CqvDi1FU44V4RSps3XQD87I0ovxEKZqc5ISpoRyqkirofcKRmJKItqn2DDMaz+aj9KqzPBHBfAXn1cWobA1EfLoMHaZZ0FypRuEFPfonyTEk1MmvC7mwT1xDzajMV6HSMw7K9EjrLQjOfW1proS68AL0/ZMgHxIKxzNyVTNMaChXoaRKD5/wRKQkhna5iuoI53a49lPTe/ch9rk47FatRnhxEWq84qFIDbcd15lmHeFIx1bMV85DXVyJ1sB4pMsirbevdQcxDbm20Tki/jY34mxBKRr7JyPl8nqMmFCM5eWfYm4/2x7Exm+uzIeq0hNxynREOr31Q8w2VxoWa+t8XraI+KBH/FD9dMZ5vjnUWbfqpS1dYuRinSDx34e02L+ZuXYUqyctxdXffoZX7gy9ee/ZukE7r514HuMn/Q2Kd/6N1+8Itt/tHMMR5KTfhYpV5/D3X3e+31eiM4YjOUi/qwKrzv0dkpskfngMOJKTjrsqVuHc33/dfj/7fzuW6s+w8a0aJI5JR6jxO/zzhSfxfsyfcHzrDHT7eobET45ULyV+DKSUv5nxUeKpr3Lxx+tYAP9HcSN2Wurx9QdHEZWzBet6stAHAFMzesfdgylZ1tdISDjE1NwbcfdMgeQmiR8HE5p7x+GeKVldftn0v5o+wfC5tA9vPvsEnlr/CRonvYm9b0oL/V86Ur2U+DGQruxLSEhISEhISEhI3KRIn/ElJCQkJCQkJCQkblKkxb6EhISEhISEhITETYq02JeQkJCQkJCQkJC4SZEW+xISEhI3LXo0NV6z/RVcCQkJCYn/KqTF/o+BqRSvTR+GRz9pAtCCU1/swMeFjbDYH3dD6KE5W47aa7ZbzdrzOF3ZZLvx56blFL7Y8TEKG3vuAVPpa5g+7FF8ch0m2bfVa86ivKvDcP50JZp6PrUfED1qVF/g3a1vYcdH+3BK+7NO5qfFJld+Dpqxe/FwTNlYApP9rh5hQulr0zHs0U/QhBvTfM9xVmOuYP/yYUibtwvf/xyr/RvxwY3ooidte3JsD7GvPxI/L827F2P4lI0o6ZLoP1QN6D4tp77Ajo8LcT2p8XPMV+I/H2mx/2OgPYKv9l9DQFgfQHcQGx/Nwebcy/ghX3tkqd6KX6dPwcYiQ6et17B7eRZufepfnbb9/OgObsSjOZuRe7nnHtAe+Qr7rwUgzNlvqYhg09ZSja2/TseUjUWw8dju5ci69Sn8q7XTxp8Qi2Y/nr97KAZnz8Gzb2zChhXTIU+5B29V/Byrs5+Bzrnyc2BQ48Des+gdFgVP+309QosjX+3HtYAw9LlBzfcYJzWm5fALeOLgWPxly2zE/gy/qnNDPrgRXfSkbU+O7SE3Urv+K9Dn4uUHFmLr6Z+i1hmgPrAXZ3uHIco+0a01oM8N14DuosPBjY8iZ3MuLvM6/PCD1SyJ/yakxf4PhgFX6jRoMgH6wjyc9EiFIqU34DUZWy5o8OXj8Ta/YmdpaYBW1/ljvR6NtdWob3GQ8OYW1NfUo/MugyofpV7pGCbr3bHRdAp5qiYMUSo7tgHQa2tQXd/i8Kt8vbYGNVq9/WYAgEWnhaax89K4GziYq9fkLbig+RKPx3dzxWG4gjpNE0zQozDvJDxSFUjpZKahsQ51V5xc03DW1qBCfqkX0ofJ0NGVCafyVGgaooSy868T6rWoqba1wWZfjRYOPWbRQatptPkwIYpehZfvvQfrq+/EjpMXcCY/D+pz5dj72/GI9HPrOEwkfnCoJUfbnOvrejXgal7Qa6FpdNSvk1xpx/lcBfTQahodx6ATojqxYrlUAFXVYCgVnV5qbWhEXd2Vbl01M1ypg0YwBHknPZCqSEFvp5q3oKVBC9uwNKLWidbMLfWoceDfLtsd1hgdrvpMwqt/fxmT+jkp807jcz2Y0VJfYxMzxz4Qw4UuROPioq0NLo4Vy38req0GDl3nrP5Y0TfWiucMIOi7pgaOUrJ77cV1BYjFvmscu0fPc9ZU+hXe3X0epr4dta4dSwsatLpO31QZ0FhXBxfpbMXBXCyXUKCqwmClostvMQg1IBFKpZ9Q7xw5XrTeOY8XHNZQL0zecgGaLx9HvIeIH5zo3WHNkpBwBSVumBb1W5wjD2VwRBTDY0fzNzNS6J25jqdNZOu/lnPY2LU8biTZuofLRtzL1S/NYpKfO32nbmcDjTz/6VOclBjOyPhYhgQN5MQX/80moWcWb3+EmdFhHJgQwwGRmXxiTwNJI0+uzaDPLet51tQxD3PtXzjJN5aP79ORJPVnP+LKcYPYb0AsY0MDGZa5iB9dsDbQfssX705gaEQcBw3oz+SV31BHUvf1Smbdu4Z/XjaWSTFR7O8fwQkbVBR6FMPZXFv5r+XDOHbtcRpJNn36GBXj11FlFFqZyt/gjNQHuVNjJtlC9VtzKA8NZkRUOGNH/4YzUryZue40TSTZepJb56QzJDiCUeFxnPD0aj6o7F5b48m1zPC5hettHca/TPJl7OP7BPv0Z/nRynEc1G8AY2NDGRiWyUUfXRDGppbfvng3E0IjGDdoAPsnr+Q3gsO4MutervnzMo5NimFUf39GTNhAldVh5poP+IhSwUW7WzrGJUmaWPHnCQzqO4F/+q7TnDohGj9HWnK0TUxf16kBsXm1fr2SWfe/wLdyJjI5NpJ9fSI4+fVSqw/Fc4Vic239miuz7ucLb+VwYnIsI/v6MGLy6yx15DpRndgd+tlcRkQ+wi90JNnKk1vnMD1E0FDchKe5+kElH9ypsW9Gtqj51hw5Q4MjGBUey9G/mcEU70yuO23qovnWPcs44t7VfGlWEv3cfTl1ewNpPM9Pn5rExPBIxseGMGjgRL74byHr2VLM7Y9kMjpsIBNiBjAy8wnuaXC+3abGUM+zH63kuEH9OCA2lqGBYcxc9BHbZeMiPgJmVm+fxZTpr7O8bcfV3VySMYI51trSmZbi7XwkM5phAxMYMyCSmU/s6eID8bx3pQvxuIi3tUX0WNH8b+XXK7N4/wtvMWdiMmMj+9InYjJfbxegi/pz/lM+NSmR4ZHxjA0J4sCJL7It3J3Rfvsi704IZUTcIA7on8yV3wj+7m57MV25ir3jODbx08cUHL9ORSF0Jpa/MYOpD+5sG/A6ctbEstemMC7Ej54efgyJimbSvF0kW7ln2Qjeu/olzkryo7vvVG5vIFtPbuWc9BAhZnET+PTqB6lsH78zYnP5jHMjIvmIkOg2tH42l5Ex9/LJ5eM5JCaSfX3CecdrJVZ7xeuds3iJ1tDWf3H5sLFce1zn1A9ieretWRIS3UNa7N8ozQe4IjmIw548yMtmUpu7hqMCPRn5yJfU0UjV6nQGTN5CDUmjajXl3v6MyF7E94vKWVHVxNYjq5gRksHlX1bRRFKzbSoDw+dxdyvZuHcRk/qN4pojWpLk1aJ/8NOiVpJavj0jgH7y+/m///d//D/rX85DIxjsdze3XiLZdJA5acFULv2cF40kW/K4SunFhOWHSRpZvHY4/TPXUt1K0ljL8gotzTRS/WwGvXyjePszB6gxm3h2w230jXmUX7soLE7nalRxdXoAJ2/RkNTzSM5QBk7dzsvWdlff+38Mjl/M/Tqy+cAKJgcN45MHL9NMLXPXjGKgZyQf+VJHsoWHc2QMHv4UDwmO5jPZAfSM605bUvv2DAb4yXn//3b46/9yHuKIYD/eLTiMB3PSGKxcys8FhzFvlZJeCct5WE8ai9dyuH8m1woOY215BbVm0qh+lhlevoy6/Rke0JhpOruBt/nG8FGrw0xl2zh/2mPcab+gNxZz7TAvDlzwJZtt9wiIxs+xlhxtc66v69SA6LyMVK/JoE9gLCesOUCNWceDSxPoPeYVXjC7yhWKzJU0qtcwwyeQsRPW8IDGTN3BpUzwHsNXLtgv4MV1YouRxb/LoP+EN1ljJlsO51AWPJxPHbJq6JlsBnjGcXGXhs08sCKZQcOe5EHrGGtGBdIz8hF+qaOd5o1UrZbT2z+C2YveZ1F5BauaWnlkVQZDMpbzyyoTSQ23TQ1k+LzdbGUj9y5KYr9Rayik0lUW/eNTFrU6225bY5oO5jAtWMmln1+kEJ5VVHolcPlhvev4dKL144cYGjqbn7QK/zd8MJOhkXP4yVXb49i4l4uS+nHUmiMUplXEf3xa1KO8d6UL0bi4aGuD6LHi+U+jmmsyfBgYO4FrDmho1h3k0gRvjnnlgrVrkfrTeoSrMkKYsfxLCuHexqmB4Zy32+rcNozFXDvcn5lr1RRSspwVWnP321NMVy5i7yyO+iPMGRrIqdvbI8f3/l8w4xfvF0a8zpw16xv42fwY9r3nr6zWNrJJZxY0I/emf0Q2F71fxPKKKja1HGaOLJjDnzpkjdkzzA7wZJx1/M6IzqX4d8zwn8A3a+zrhVADenuFc9wzgl8OL0+k92irX8TqnbN4uaihRtVqpgdM5hYNHfpBVO92NUtCorvc9Iv9ltqzLDt9mqdPl/G7avsz1Y1ipmbHDAZHPczP2q6y6I8wZ6gfJ75ZQzMvc9uUQMp+m0cjycvbptDPbxRfKrZeMzDXcvu0YEbO2s6ikkLm7t7MZbcOYOjUrTxvrOSbk4IYv2gf7a8JU3+QSwd7M/aWe3jfffdZ/+7lhJQg9kpfTZXRzMo3JzEo/nF+0964lZ/MDqHfPe+Q1PPQsgR6JS/gxxWdTxha7pwRwKBxf2SZdW3a+slshgT9iru6TKITZpG5Xt7GKYEy/jbPSJpr+eZEfyqeKbReNdHz6BPJwiLArOGOGcGMevgz67capP5IDof6TRQKtGYnZ/SL4sMdju5+W+p5cOlgesfewnva/XUf752QwqBe6VytMtJc+SYnBcXz8Q6HCbb73cN3Wkj9oWVM8Ermgo8raOOxnTMYEDSOf+xwGGeHBPFXog4jzbVvcqJ3MB/4yNFS31X8HGjJ0TYxfZmvRwOu5tXAHdP8GTD2FetVVWGRF3D3Nja4yhXRuZINO6bRP2AsX7FertUfyeHQgLu5raFtHlbEdGJ3KKnl29ODOPSJI9RTw50z+tlq6OgTTA6cyvZ1jhWzZgdnBNuOcSRnKP0mWk/AnTXPy9w2xY9+o15iR1i2c1pwJGdtL2JJYS53b17GWweEcurW8zRadbhon61+2vRpv13o31pj2vLw8W868rD1E84O8eM977S4iI8tptPrmOU7ii+Xm0jzRW6a3JeJSw/aaL9Dp4vYdVrdzHtXuhCNi6u2nRE/ts3vzvKfDTs4zT+AY1+xfsuoP8KcoQG8e1sDKVp/jKzdPo3BkbO4vaiEhbm7uXnZrRwQOpVbz9ut1vSHuCzBi8kLPmZHSpq73V5MV2bR2DuPo7n2TU70V/CZQqt49Uf5RLJ18X8jOWs+z1dG+3LEC6c6vlW6vI1T/Pw46qXi9qvqmp0z2M8mZp3G74yLuWjfns6goU/wiN62mVADAhjYXu/0zF2ZRH8bvzipdw7jJfTpvIYKdTpQ9lvmGR35QUzvQt8dNUtCovs4uZnzJsFSiQ+euB8zZ87EzJkz8Zv1B+2PuEF0yP36W2DURIyx3j5nqcvDicpoyOXBcNerUVDSC6mKofCEHuqCEvSasBDzU62P1Vw7iD2HWmHKfxVz5zyGVZsOw336Fhx6dx5iWg5h7zFvjJ6UDR+bMQFLbQGKqhPx4Gsf4MMPP7T+7cB8mTuC0pRI9GzB4b3H4DP6Toxsb9yCS5daERwaCqA3Rq7YgCUDvsAsWQruem4fNBYAhpMoKPHA2LkPIdEDACzQVlXjWmg4wsWeBGpyPle9ugAlvVKhGOoJGFUoOOWDVEWC8GCRpR55+d8jTq5AgC4XgivHWO+ptKAu7wQqo+WQB7tDd2wfjnIUJrY7uhbH8iq71RaWWhQUVSPxwdfwQbu/PsSO+TK4B6VBmeiJlsN7ccxnNO7scBhaLl1Ca3AoQj2A3iNXYMOSAfhilgwpdz2HfYLDcLKgBB5j5+IhwWGwaKtQfS0U4aIOAywXL6KWAxAV1ct+FwBX8XOgJUfbxPTlfj0acDEvQzHySzxx+7zZSPIAgCaUlFYhJk0Gf1e5IjpXA4rzS+B5+zzMFjpGU0kpqmLSIPNvm4eAqE5sDwUMauSXeECmTEFv3THsO0obDdUey0NlnBwKu4a63K/xLTqPUYe8E5WIlssR7G6neWsNmLBwPjrCsgeHWk3If3Uu5jy2CpsOu2P6lkN4d14MWg7txTHv0ZiUbZtJTU62t/WfqhgKz5bD2HvMB6PvHNmRhy2XcKk1GKGhHi7iY4tHTDIS/c6j7LQRBtVmbDoiw4JHR6Hzoy1AEw7tPQbv0ZPQdVrdzHtXuhCNi4u2HdNxWatbXeS/oTgfJZ63Y97sJOG5iKYSlFbFIE3mD4jWHx0O7jmEVlM+Xp07B4+t2oTD7tOx5dC7mBdjd/rtPRIrNizBgC9mQZZyF57bp4EF17rdXkxX7qKxdx5Ho6oAp3xSoUgQxGupz0P+93GQKwJc1BcXOWsoQmFZEGTyQe3PmQiamYCF81OtD57qcGzfUbBzzGqPIa/SOn5nXMxFnV8CD5nS5vkJoK0G9ML4h2cL9c7SiJMl1Va/uKh3DuPlqoZa63SqAkM9HfhBVO92NavdCAkJ19zci333gZi74wRUhYUoLFTh24132x9xY1i0+P5iC8JiY6yJZ8KZ93fheC/hgS9LjQrquiQoFF6ApQYqdR2GZGYj0NrcXH0OlXoZFn+Sj/y8XOz79G1sWDEFSb6Aub4KtYZwRA/sumjUFRSg1CcVisRO+0ylUBXrkKxQwMtcj+o6A/pHRHQ8ra/dh28KvJE1JgMA4BE9Bb/fdwp5G+VQv/AkNp82w3KpEEXVSRgxoq2QNmL//kIEZI+GXKSyOJ+rBTUqNeqSFFB4Aebv1ShpGIy0NOH1FKbTO/HeUW/IlAlw136Piy1hiI2xDmQ6g/d3HUevVAVSelvQcO48roTFIrZtd9l7+OC4TzfaAtAVoKDUB6mKxE5vLzChVFUMXbICCi8z6qvrYOgfgYgOh2HfNwXwzhqDjD4APKIx5ff7cCpvI+TqF/Dk5tMwWy6hsKgaSSNGtC8kG/fvR2FANkaLOQyAm58vfNiAulqj/S7AVfwcaMnRNjF94Xo04CE+L0ttAdS1Q5CZZZ2BvhAFJb2QIh8KTxe5IjpXSy0K1LUYkplltU2PwoIS9EqRCyfMdsR10kWdtSoU1SRCqfCBpeEczl8JQ2xHQ7z3wXH4yJSwrnPaWkH7/UW0hMWiQ27vY9fxXtaHc201L9SAIcjMbo8Kqs9VQi9bjE/y85GXuw+fvr0BK6YkwRdm1FfVwhAeDdtUcra9rX+hxpjrq1Fn6I+IDhFDu+8bFHhnYUxGH/H4dHQp0Gsohg5qRHlZEd55YQuaZq3GAuuirR1zPapqDQiPHmjXvvt570oXonFxF29rg+g4Hi7y34LaAjVqh2Siw3UFKOmVAvlQT1jE6o9HNc5V6iFb/Any8/OQu+9TvL1hBaa0JaENHoie8nvsO5WHjXI1XnhyM04butteTFfCBSKnsXcaRzO+V5egYXAahNCZcHrnezjqLYMywfOGctZ0tggnm5Mgl7dd7LBqZkgm2lPF0oBz568gLDa2PWZl732A4z7C+J1xNRdVUQ0SlYouF6OEGjAEmZnWj7tGNVSneiPV6hexeucwXmaI11BPoU4nKRTwQlc/iOrd07ZmSUj0hJt7sf9j4+4FXx93NNbXwwig8ejLWLzhOAxJCih8AF2hCmX9ZVBEeQC6QqjK+iFNGd1+JcMtMAgBbjWoKG9u71Lf3Aw9ADc/f/iiBucqWoQd1yqQX6yBBSacKVCjeahwIm3D0lCIwgvhSFeGw90jCCH9PVFbfgZXAMCiwVfPPo89EQuxYlogGkpUKG8BAD8MlsUjsE8g+vq7waAqxClDA86XX4YFwJXcP2Dj3nDMWXgH/Cz1+Gb9Ijzz0bmOQa04n6sOhaoy9JcpEOUBmDUaXLZ4wtPTDWg8ipeX/wkFpmQoFV5w9/KFj3sj6uuNABpx9OXF2HDcgCSFAj5wh7efL9yu1EMjOBovL38Nqm61BUxnCqBuHip86GrD0oDCwgsIT1ci3N0DQSH94VlbjjOCw6D56lk8vycCC1dMQ2BDCVSCw+A3WIb4wD4I7OsPN4MKhacMaDhfjsuCw/CHjXsRPmch7vAD0JKPLSuWYtOJrq9p8Bg0DqPjG/DJyy/g6yo9AAPq8t7Gk0teRxHF4tfXoZYcbXOuL8v1aUBUV32hU6lwOjgNymhhBuYqFdT11g+7LnLF+VwB6FRQnQ7usM1cBZW6vv2E2YG4TuzRqQqE+cZ4wN3bD75uV1AvNMTRl5fjNZUJycquY3j5+sC9sR6C3I7i5cUbcNyQBIXCB7DTvK5QhbJ+HT4B3BAYFAC3mgp0mKpHc7MegBv8/H2BmnPoSKV8FGvoZLvFpsZ4BIWgv2ctygURw6L5Cs8+vwcRC1dgWl+Ix8cej4FITvJD6Za5WHViDJ5fPa7L1X+4+UGYVgWEaV1DRX4xNJbu570rXYjGxUVbG0SPFc//vtBBpTqN4DQlBNeZUaVSo976YUa0/rgFIijADTUV5egIdzOa7UuCpQElqnLBj36DIYsPRJ/AvvB372Z7UV25iL3TOJqh0VyGxdMTQuhexvI/FcCUrITC68Zy1vTdd6jsHYbw4LYliKCZfu0+BuDuDT9fN1yp17THbPlrqvbxO+NqLgWng5GmjLF5I56wqwCn+1nP0QDMF1UovmT1i1i9m0LH8XKDeA3VFUJV1h8yRRQ8HPhBVO92NQuGEux84nGs33fZxiYJCYfY39cj0RPMrNn1EGN8wyjLUjI5aw5zHkhh7II91Fkfgg2euo0as/UBz+Cp3Nb5jSBmDXcvSWNQ0GBmj5/IscMSOXjqG8IbdszV/HBeAn2DEjhq3G1MT5Bz/oc1NLORO2f0ZeKygzb37On2L2Z8v3v5N+vNt9r9TzOzXxDjssZxTFokI4ct4DtlwkN6hevHMmqggmPHj2Ji+CBOXn+UTTSx5Lnh9BlyC0fGxlBxyzDGhsRx2qsnhAdIr+7ir/oFcMLrwgNpNjibq7GYa4cHc+o2jXD/rPYzzo/zZkhyJpWpt3LhmnmUp6zkt3qS5hrueiiGvmEyZimTmTUnhw+kxHLBHuExO/PFdzkr2pcR6SOZIbuNC1fPpqybbRt3zmDfxGU8aOswLo7vx3s7HManM/sxKC6L48akMTJyGBe8U0Y9SWPheo6NGkjF2PEclRjOQZPX82gTaSp5jsN9hvCWkbGMUdzCYbEhjJv2Kk9Yb8M35j3N9IAhXGkzcAcNh57nhKg+dPP0or+/F3sHDeE9rx5js2j8HGvJ0Tbn+rpODYjOy8iTnfROkq3/nMOI+EXCW4tEc0VsrsKblGxsa/0n50TEc5H1zRedEdWJDdb5TtnKOjNJ80W+OyuavhHpHJkh420LV3O2LIUruzakuWYXH4rxZZgsi8rkLM7JeYApsQu4R9f2kGWb5m1rQHt7zW4uSQti0OBsjp84lsMSB3PqG2cppP2HnJfgy6CEURx3WzoT5PP5YY3ZyXa9Xf9a7n86k/2C4pg1bgzTIiM5bME7FGTjKj72mFj2UjZ7eQ7kg7uq7e5/b8PM6g/nMcE3iAmjxvG29ATK53/IGn0P8t6lLsTi4qKtDS6OFcl/Gk/a2sNW/nNOBOMXCW+vEq8/Zmp2L2FaUBAHZ4/nxLHDmDh4Kt/o/FYwkjQWcv3YKA5UjOX4UYkMHzSZ6482db+9qK5cxd5JHM2k9rP5jPMOYXKmkqm3LuSaeXKmrPxW8MsN5KxRvY7Z/oFMyB7D6euOUm9/rhAs4sV3ZzHaN4LpIzMou20hV8+WdYzfGZdzmcKtdfYq7qgBnf0SHvd4e044rXdO4yVeQ+3rdBc/iOrdtmaZzm7kaN9QznzXwdvCJCTscCN5Hb94ItGBBY3lJ1DaFIqUtFgE2l86cIkJDeUqlFTp4ROeiJTE0E5XEq+huliF8iZ/DEpLRbRfz76IMV85D3VxJVoD45Eui0THF78WNFeqUXhBj/5JcgwJ7QOgCe/dF4vn4nZDtTocxUU18IpXIDXcC8A1HHtmDO7LnYnPPl8JuYMLgd2dq+VKBfJLtAhJkSPW3lmWRpSfKEVTaArSYgO7XIUxN55FfulVhKak9bhttzBfwXl1MSpbAxGfLkNkp2/KLc2VUBdegL5/EuRDQtEHQNN79yH2uTjsVq1GeHERarzioUgNt7sS7AK9BqeLynAJ/TE4bSjCOjV2Hr+e4ExfPdVAB9c/L1e54myuPUNUJ2KYG3E2vxRXu6EhS2M5TpQ29XyMNkwNKFeVoErvg/DEFCSGdrL0WjWKVeVo8h+EtNRotKeSs+02mHHlvBrFla0IjE+HrLOIe4LpNP5811j8MXoT/r15KkIcjiVwrboYqvIm+A9KQ2q0n8Ovi0Xz3pUuROPioq0NLo4VyX+XuKg/poZyqEqqoPcJR2JKIjqHux1LMyrVhbig748k+RCEdvoxrm61hwtducBxHC24UpGPEm0IUuQOfHYDOdtcmQ9VpSfilOmItP8mph0zGs/mo/Sqk5jZcP1zEcNpvXMYr+7V0M508YOo3iUkrg9psS8hYDiCnPS7ULHqHP7+6/Y7wQEA146uxqSlV/Hbz17BnaGOTuX/jRhwJCcdd1Wswrm//7rj3vn/ZEQ0IPHfxDWceH48Jv1NgXf+/TruCLbfLyEh4RCphkr8QpFWbhICpmb0jrsHU7Ksrz3ohI/yKXyV+0dpoW+DCc2943DPlKwuv8j4H4uIBiT+e7DUf40PjkYhZ8s6aaEvIdETpBoq8QtFurIvISEhISEhISEhcZMiXaqVkJCQkJCQkJCQuEmRFvsSEhISEhISEhISNynSYl9CQkJCQkJCQkLiJkVa7P+QWHRo1DbDZL9dwjmSz0Sx6BqhbZa8IyEhISEhIXF9SIv9HwjtgbUYHzcQKYoU3LH+NPSasyiv1dkf5pCWU19gx8eFaLTY7+lEyyl8seNjFIoe1IYemrPl6ObwPxv2PjNdLkdh/gmcOGH9yy9FzbX/ZNtNaDhbhPwT+chXFaO8tgXdsUBAiwNrxyNuYAoUKXdg/emrOPXFDnxc2NiDPn5imndj8fAp2FjyY384abkBX5hQ+tp0DHv0EzTZ7/rZacbuxcMxZWOJ9OHXBd2qmb9Ifsn6k/jR+clqZBs3Uit/jvlK/FhIi/0fAsNxrF/yKsyLD+Hc+Qv4emUAtv46HXdvKIDB/tgu6HBw46PI2ZyLyyLvRdId3IhHczYjV+wgK5bqrfh1+t3YUOB6dOhz8fIDC7H1tNl+z49LF5/5Y/Ov0pAxIgtZWcJf9q1zsbXC9B9ru6V6C36VPhr3/88SLHn0Idw+NAKJM16DqhsfRAzH12PJq2YsPnQO5y98jZzYb7Hx0Rxszr0M1174eTCoD2Dv2d4Ii/K03/XDojt4A77Q4shX+3EtIAydfrPol4FBjQN7z6J3WBR+ZA/+cPzIOeSY7tXMNvS5L+OBhVvxk07RKb9g/Un86Ag1ss+PXyPbsKuVPc2Fn6ymS/zoSIv9HwDzuW+wvyIN0+5LRG8AMKiQX9oLMqVM+L8Teq0GjfrOW7wwecsFaL58HPHtP5VnRkt9DepbOjLSa/IWXNB8icc7DgL0WtRU16PTYQAAgyofpb1kUMq6jA6tphGdhzeVfoV3d5+Hqa9bp60AoEdjbbXNHDpjaWmAVndd1woAhz4rwImTvTHtr5dgMplgMplgvHYMq1I9HdsOOLTnh7Ed0DfWorq+BQ6tt7SgQatzeaXEUJCHk70nYd2BXOQeLUTZ5wvQ+4v12HTYRgAOxjLj3Df7UZE2DfclWu3wmowtFzT48vH4Tr+o2NMYiR/vyEcOMTSiru6K3dVnCy4VqFA1WAmF2CumLTpoNY2OPwTrG1HrQM8CFrQ0aKGzOPeFtsa5bYYrddA0mQB9IfJOeiBVkdIpN8Xb2vID+dCBrZZLBVBVDYbSqQMNuFJXhysOneearjpzgoO5WXdAW1MDbSfjxHLoetFra1zM01HNFOhaX00o/epd7D5vQpcpOrUTtnrrjF4Lje0AAg5zogNx/RnQWFeHK84a95TrnGMXfohcBRzqpn2Pq1g7s6WHPnOl/a66uU6czhcdNTJRCaWfBTqtxqFPROuRXouaGq3j+uIoXja10nkuGBrrUNfFmd2s6RL/GVDiBjDx3F9mMD7Un708fNk/KpbjXypi68m1zPDJ5LrTJpKt/HplFu9/4S3mTExmbGRf+kRM5uulJqGL1n9x+bCxXHvcSJJsKd7ORzKjGTYwgTEDIpn5xB6SrfzX8mEcu/Y4jSSpP8uPVo7joH4DGBsbysCwTC766AKFHo08uTaDPpnrKAz/NVdm3c8X3srhxORYRvb1YcTk11lqMrHstSmMC/Gjp4cfQ6KimTRvF0kjz3/6FCclhjMyPpYhQQM58cV/s4kkW/dw2Yh7ufqlWUzyc6fv1O1saPeFmdXbZzFl+usst5rGq7u5JGMEc/bp2o9y6jP1s1R6D+fzJW2N27Cz3ak9/AFsJ43nP+VTkxIZHhnP2JAgDpz4Iv8tGM89y0bw3tUvcVaSH919p3J7g5k1HzxCpWIRd7fYzpo0Uv1sBn0yX+Apq0n6o//H5D6pfMoaa4djNZ7jX2bEM9S/Fz18+zMqdjxfKjKy9V/LOWzsWgpNexojseOd+aiTKe208uTWOUwPCWZEVDjjJjzN1Q8q+eBODclWfjY3gpGPfMHO0SZJ6r7myqx7uebPyzg2KYZR/f0ZMWEDVW0HGs/z06cmMTE8kvGxIQwaOJEvCk5n655lHHHvar40K4l+7r6cur3Bzhd6nv1oJccN6scBsbEMDQxj5qKPeKFt/i1qvjVHztDgCEaFx3L0b2YwxbstN120teEH8qGYrZ/NZUTkI/yiiwPJluJtnKscwH6RURwQfSuXrLifigd3CjubPuVjivFcpxJ0RVM535iRao2LE50JQ9oiMjftty/y7oRQRsQN4oD+yVz5TYuTHGrip48pOH6dSshXmlj+xgymPriT5otbOTPl/3HLBbN1wEZ+uiiD2U8dpJ6k/uxHXDluEPsNiGVsaCDDMhfxI0fBsKmZIvXVVMbXpsQxxM+THn4hjIpO4rxdDaJ2OtTb1yuZdf8LfCtnIpNjI9nXJ4KTXy+11luxnHClP7L15FbOSQ9hcEQUw+Mm8OnVD1LZFtfOuIjxDc2xMz9wrnbVjdCRWKzFbemBz0S1L6Ibe27I951p5WdzIxlz75NcPn4IYyL70if8Dr5WYu1XtB5p+e2LdzMhNIJxgwawf/JKfqNzHa/2WqlzkgutJ7l1TjpDgiMYFR7HCU+v5oPKB7lTY7bO10lNl/iPQ1rs3yh6LfcuTmTg3Zt4QXuVLUZS+/YMBkUt4B4dSaOaazJ8GBg7gWsOaGjWHeTSBG+OeeUCSdKoWs30gMncoiHZuJeLkvpx1Joj1JLk1SL+49Mi0qji6vQATt6iIdnEgzlpDFYu5ecXjSRbmLdKSa+E5TysJ0kt354RxKgFeygMv4YZPoGMnbCGBzRm6g4uZYL3GL5ywUyzvoGfzY9h33v+ymptI5t0ZrYeWcWMkAwu/7KKJpKabVMZGD6Pu1uFucq9/RmRvYjvF5Wzosp2xdD68UMMDZ3NT1qF/xs+mMnQyDn85KrNYQ591rBjGgMi5vDvdVpqtVpqG5upJ+1sF7fnRm1n6xGuyghhxvIvWSUYz6mB4ZwnGM/Vcm/6R2Rz0ftFLK+oYhNNLNs2n9Me28nvulT2Bu6YHsCw2R+yrqGO5bk7uCQrhNH3bmeFiaJj6bV7uTgxkHdvukDt1RYaaaRqdToDJm+hhuxxjESPF/GRPS2HcygLHs6nDl2mmVrmPpPNAM84Lt6vI43F/F2GPye8WUP7lkb1s8zw8mXU7c/wgMZM09kNvM03ho9+rSPZyiOrMhiSsZxfCo7gtqmBDJ+3m600UrVaTm//CGYvep9F5RWsarL1RdPBHKYFK7n089k3ptgAAH34SURBVIs0kmzJW0WlVwKXH9aTbOaBFckMGvYkD142k9pcrhkVSM/IR/ilzlVbW34YH4rbWvy7DPpPeJM19s1aDvF/U/tyxNPfUkuy8djzvC2oFwc9vo8kqT+Sw6GBU7n9svX4q+/x/wXHC3ER0ZktInMzFnPtcH9mrlWzlaSxtpwVWic5pD/CnKGBnNoxGb73/4IZv3g/2fIhZ/UbyP/Za106XH6H9/WP4sO7m8mmg8xJC6Zy6ecUyloeVym9mLD8cOdJkvY1U7S+mqlv+IzzY/rynr9WU9vYRJ1ZxE4nelOvyaBPYCwnrDlAjVnHg0sT6D3mFV4wu8gJF/pjy2HmyII5/KlDFHY/w+wAT8Yt3m9vsniMeSNztOUHzVWtY92Ix1rclp74TFT7orqx5UZ8b4OxmL/L6E2v8HF85oCGZt1hLk/05mjrmGL1yFi8lsP9M7lW3UrSyNryCmrNruLVuVY6yoUWHs6RMXj4Uzxk1ecz2QH0jFtMwTTnNV3iP4+b/jaea3UVOFNWhrKyMyiv+REeifLUo7ysBnHKTEQE+cPH0wB1fjFMqRlQ9ALQpELhGU8ol/4Jq0eHwN2tN3p79oJfoD8A4KqqEOdj5JD3teD79/6Av5lm4bknshAEAP5pmDElDbiqQuH5GMjlfWH5/m9Yt6UFs9avw+RITwA+SB2WCv+aC6g0ATCokV9sQmqGAsLwhTjjqcTSP63G6BB3uPXuDc9efgj0d4e751WUn7mEhIxMhAYFwq9XPd5/6Q3Ujl+E3wysx7HPt2Dd9mPoM3wUUnsLcy33SMOSza9gZlo8BkXYfrfXa+hQxLWcxZkqM2Cpwoc7/oWg++ZhkmBqBw59dhKtV7/A0gwZZDIZ0jJmYXO52cZ2uLDnhmzvA9S9/xLeqB2PRb8ZiPpjn2PLuu041mc4RgnGo7DcA2lLNuOVmWmIHxQBP3ggce5mfPL6gxhsf4eRoRj5xa1o+nIZ5HEDkXjrUhy/9a/49t3fYJCHRXQsT305ymrioMyMQJC/DzxxFarC84iRy9HXUtezGIW1iB4v5iNb6vGPjdugnfEMfntrMNwRhGGTb0WUbyqUaX2AZhVUZ6OgkAd3uTewuagI33llIueNZzA6xB0eEfGI9bkCbYMZlrr38dIbtRi/6DcYWH8Mn29Zh+3H+mD4qFT0xlWoCsvhkbYEm1+ZibT4QYjw6+yL7/G3dVvQMms91k2OhCcAn9RhSPWvwYVKEyz1f8cf/3oV9655GrcFuwNBw3DHyAh4pWRA7iHe1gYXPu+uD8VtbYZKdRZRCjmC7Rx4+eM/4q+NM7Dq/0YhCECgfCxGDPBGsiINgAXawiJcjJNDESAcbyhVocScAmVaL1GddUZ0bhYtGhqNaLp4FjU6wHNAPAYFOcohd1i0hSi6GAd5x2SgKjEjRZkG9E5EwsAGnP2uERZYcOH9v+LrkF9h3nhvfP+3ddjSMgvr102GUNZSMSzVHzUXKm3mCZua6aq+usPzajnOXEpARmYoggL90KtexE6HemuCqvAMPJVL8afVoxHi7obevT3Ryy8Q/u7iOSGqv15A/T82Ypt2Bp757a0Qdk/GrVG+SFWm2VksFuM+AK5/jvb8oLnq40g3cBFrMVt65jNR7Yvqxraf6/e9XVfNKqi+88bIJ9/EM6ND4O7mDnc3T/gH+gOuapm2AY3GJlw8WwMdPDEgfhCC3MXjhc7nDQe50OfyP7BxmxYznvktbrXqc/KtUfBNVSKtj3W+Tmq6xH8eN3cMLZX44In7MXPmTMycORO/WX/Q/ogbx1gI1SlvpMgThIfqLLUoKKpGrEKBYHfAUJyPEs/bMW92knB/cVMJSqtikCbzB6CHuqAEvVIVGOrZhEN7j8F79CRk+9gOoVcXoKRXKhRDPdFyeC+O+YzGnSM7Dmq5dAmtwaEI9QAstQUoqo6FQhEMdxhQnF8Cz9vnYXaSsBptKilFVUwaZP4ADEUoLAuCTD5ImNu1g9hzqBWm/Fcxd85jWLXpMNynb8Ghd+chxt061wkLMT/V8cM6HjHJSPQ7j7LTRhhUm7HpiAwLHh0FL/sDu/isBgVFNUhe9hXOff89vv/+e1SWf4pFgz1sbIcLe27IdlzDwT2H0GrKx6tz5+CxVZtw2H06thx6F/Ni3K3zmICF81O79fCkpaYARTVJWPL5eVTXl+Gv9/ig+GgpdIKjRccyFqpwyjsF8gTrSHo1Ckp6IVUxFJ49jZHo8S581BndMew7SoyaOAbCRzwLao/lodJ6EjSo81HiIYMyxf5ZCQNOFpTAY+xcPJQojGHRVqH6WijCwz1x7eAeHGo1If/VuZjz2CpsOuyO6VsO4d15MXC32j1h4Xy0S66zL1oOY+8xH4y+cyTas6HlEi61BiM01AO63K/xLUZh4hjrh1JLHfJOVCJaLkdwq3hbG34gH4raalAjv8QDMmXne7kBQIej+47AMmoSxlr7s9Tm4cTFGMjTAwEYoSo4BZ9UBQS5WFCfl4/v4+RQBIjrrDOic+s9Eis2LMGAL2ZBlnIXntunEZ5X6ZJDgFFVgFM+qVBYtWupz0P+99bFv2cchsR54sJ338GkO4Y33szH8McfQ2afFhzeeww+o+9ER1lrwaVLrQgODW3bYKVzzXRVXwFDUSHKgmSQD7JmuZidjvRmKEZ+yf9v78zjoq7zP/4CBuS+BOSUkVOBgZkBBbS88ijLq9pa29K0w63UUtd+tXm0VtZq2rVbm6ZumR3mdpibmoZXrgfCwMAgKKCiXIMyg4DM/f798R1gZpj5Dqht6X6ej4d/+P3O53i/3sfnM1++3+8IcMecmeDc2wpFWS1i00Xwc5ITvPHnqsHxvGOgERPQdbrhOPJrLL4odcHn4+ubozU3OFftxo0TX/PZgr5oxh/7zuKmm+vQ3qYnnbwACvdxeGxmEtwAmNSlUNSZx3RSyzyGL8LaBQPwwwwRUu9+BXlKk1N/WdVKO7mgOZ6HY2QZnw04nl+DOLEE/p3ztVvTGTcjt/Zm33UgZn98ErKiIhQVyfDzuntsP3HdGC/KoWhOhlhsvkqiKURhmRdE0hQIYEJDoRwNg7ORE8Cd1hYVQuGeCvEQAWCqh0zeiGSJBJ7GJtQ26BARM9BmM2lCvUyOxmQJJJ5GNNU1QhcSiciuD6mQ91MhvHJGI7MfoCksRJmXCNIUAffFQ96Awdk54IbXoqhQAfdUMYYIAENVMUrbkiEWuwMAjHVnUaMVYf63BSjIP4K8HZ9g7aLJSPZB11wHZ+ea+7KD+xAMGaRGZUUxtr62Aa0zluFJ8wbIEvua+SBNksxjO1eM+Oy5HtthrMPZGi1E879FQUE+juTtwCdrF2EyZzw3j8HZyHVovDUaWSFOeaVxcxHE4r6Hx8Gn8CccuGxyMpYRF+UKNCeL0SmPqV4GeWMyJBLPPvuI//P8Glliaj6Lcy3hEArNhd9Qgc+/PAFvkRSJAhMaZMWoT5JCYvNFFaZLKCquQ/KwYehcjtX796PIPxejxG6oO1sDrWg+vi0oQP6RPOz4ZC0WTU4GZ44M8sbByLYQ3UqLpjo06kIQ2Z0MUOX9hEKvHIzOdIfqwkW0hwsR2znl019g2wl3pElS4cbb1vqK543R0Mhva4MMxfVJkNoKaGrG2XNqhAuF5i8BBpza+gVO9DPXEOMFyBXNSEhP597uYijHls+PwUskRaILX5xZwj83wA0xk/+KvFP5WCeW47UX1qPcaCeHYMQFuQLNCenclUEYUL7lcxzzEkGaKADgicTkGDRUnUbZRyuw2eUxrJg9CG7GJtQ16hASGdmd/6o8/FTohZzRmZ1HOCxrprP6CgOqikvRliwGN0V+O+3GW0Mh5A2Dkd09AAoV7kgVD4Grk5zgiz8PUzPOnmux8mvF51/ihHenVhbw+VhwPXO0HOTG56rduNHx+5rPFkGfNOOLfWdxY9nPtWtvu5Y1yIpRPzgb2eZvAXq5DKc80iAeInBSy/oBbjGY/Nc8nMpfB7H8NbywvhxGXn95WNXKnrlgQvPZc2gJF6I7ND7Hlye8IZImcnsXRzWdcVNya2/2/wtoiopwOjQN4khuU2s4XQh52xBIpZ4ANJDJyhGcLkWMGwAYUSuTo6lz86opgqwiBCJJNNxcfOHnA9SfrUY7AOAqqgtKoDRpUCSrQIhIgmg3NwSGhkDQUInTLQBggnLPy3h1dyTmLpqKIBhwulCOtiFScMPLICsPRro0hrt6YayFTN5kXigBw5kzqPEIR4T5vgGXgED4u9SjurKtyz5tWxv35L+mCLKK/t192cNtIFKSfVG2YTaWnhyNV5eN7XF1A/Y0qyhESftgs2ZWn7Sw3Zk912c7XAIQ6O+C+upKdFmvbUMbZzyKZBXo3+VHjvaCDVj07Ic42ePVCOa5DM7k5gKgn0iEROMpFJfqnY9VdBqhaWKY5YGmSIaKEBEk0W599hH/5/k1ssTVyxc+Li1oUuoBqHFs9UK8KzMgRSqBJzSQFXJxHmsbHDoZik7p0HyuEpdNAFqO4M11exExay7u9HVBQKA/XOqr0T09Ldo4ITi7+6dDaiG6pRZugaEIETSgkksGmJR78PKruxE5dxGmBrnC08cbruomNOkBqI9h9fy1OKFLhkTi7aRt13DADdPQia2yQpQHp0NqK6BrP3h6ukDdpIQeJqiPvo756wqgHyyB2BOAUQnlZRMEAgFczH55r9DsF944s4RnbqZmKGSVXE3yTYAoPgD9AoLg52Inh2CEUnkZJoEAAhdAfWw1Fr5XCEOKlKt3ECAhOQ4oeg+PvnYO019/gfsrplsgQkMEaKg8Da6sKbHn5VexO3IuFtk6w7JmOquvMODMmRp4hEeYb43isdNRvMlknF/Mx4y1MsibuA0Uf07wxx9cveDr44KWJiW406ux8F2ZhVYW8Pn4uuZow43MVUdxI+D3NZ8tfdKMN/adxY0F16G9NVyN7N+5lsGIi7ISXDKPyVePJpMCskpuV+CbIEJ8QD8EBPnBhddf1rWyZy64wsvXBy4tTeBC4xhWL3wXMkMKpNzmxKqm6xRb8Pwza5B32fb1VIybBbbZvy4MOF2sgHaIxHwlC2gvLUVNVCaGRrsBhrOQn9JBnC0Gd+1Lj9LSaoRLsxDjBhiqS1Cuz8CwDHfANQzTnvw9fP81G0NvuwOjxGLc92EFTIZqlJTrkTEsA+4Agqc+h/mD9uKPw3JxxxgJpI/9Bzl/+xzLsj0BtKO0tAZRmUPBDS/HKZ0Y2Z1X3vSlKK0OhzSL25gI4ocgQf9vvDh2DKa/fhyG0Hsx/7EgfD0zC8PHT8TYoclI+8MW1Bo752rRl13cMXhIHNSV7Ri7di3uD7cXXj01aytV4Hx0JrIibT5vYzu/Pddnu841FPfOfwxBX89E1vDxmDh2KJLT/oAtnPEoKddb+BEADDj1zd+x8cczuGr7Sr/OuWRxcwEAtygR0sKaUV3ZAhPvWKdRrNBiiMR8JQkGVJeUQ58xDBnugGsffcT7eScaWREwAQ9NccWXc0dgRNZI/F/NMIxLSEBmVjhczXHe6SdLjNUyyFviEFbyDIZl3Y6h4un4Mvov2Lw0F/3gitB75+OxoK8xM2s4xk8ci6HJafjDlloYO+0WZ5uvRKGHFgieiufmD8LePw5D7h1jIJE+hv/k/A2fL8uGJ4CgSbMw3f1LPJGbi8wRC3FacgcSozIgFbo5bWvJjdGQ39az8lPQddplRRDu+sNkuH3xBHJzh+K2P1ViYFoAwtMyuI2KRwpGj4zAiVV3YXjm7Xi+Jhd3Djb7hS/OrOCZm+kCdi0egxTpWIy/LQP3bY/FsldnIcbVTg7BAymjRyLixCrcNTwTtz9fg9w7ByMhMwudpcB7cAoGNlTC9ZEP8de7O+8FDsbU5+Zj0N4/YljuHRgjkeKx/+Tgb58vQ7aNM6xqppP6CggQPyQB+n+/iLFjpuP14wbHdjqIt7PyU9BZHNOXlqI6XIqsGDf+nHAWfwjAhIemwPXLuRgxIgsj/68Gw8YlWGnVBZ+Pr3OOltzQXHUYN3y+dmJLXzTji32ncWPB9WhviXnM9KGdNVIPhaIaAyTmMXnqkceFXVg8JgXSseNxW8Z92B67DK/OigHx+sumVvbIBR0CJjyEKa5fYu6IEcga+X+oGTYOCQmZyAp37ZovV9ONuPjjRry/vQCNbK9/0+JCRL34WRKGXUyNWH93Mv4x7CBO/CWjV/dyO+NqXQlkla3wG5SOtBjfHgUZAGBswTl5CWo6AhCfIUKU7V/l+0BbTQFkNQLESTMQ5Q0ABjRXyqCo1cI7IgmpSWE9Nj8OMZTjb3ePwTsxH+I/66cg1N7kfwHNrpWetgOG5krIFLXQekcgKTUJYb02vu/YG8vUuB53J/8Dww6ewF8yHKnTVx/19fMOMKpRVVCGK2GpSBcG9PxCYIfWz++H8JU47JQtQ0RJMeo94yFJi7Ae39CMSpkCtVpvRCSlIqlPohvRck6OkpoOBMRnQGSTDCZ1JU6WtSIsNR3CANsZ87e15gZpeE22GqGuKkCZOhQpqZexZtgYnHy6Erv+OICrD6YWVBcooApNhdiOX+zFmV0czc3Uhhp5Ec5rQ5AsHowwi7uceuaQCS3VBVCoQpEqFqKH5DwYW85BXlKDjoB4ZIiizLcQXS9tqCmQoUYQB2lGFHc/tCM7rwUnOeEs/tRVBSi7EobUdCdaOfExL07m2MkNz1WeuLl2X/dBs77EPh/Xo32fcFyPTG01kBedhzYkGeLBYejXW39Z0TMXjOoqFJRdcRCfjFsJttm/JkxoripEybFNeG7eCUzbfwwrxI42Zv8rXMXJV8dh4qcSbP3P33FnsO15phkvpmZUFZbg2KbnMO/ENOw/tgI3vzw6HF2Sgburl+Lsv/7g+FkPRu9p3oTJg97EkD1FWJ3DHpxj3ChYrt5cMH8x+oa9a68Mp1xF/ualeHmLCnet34r/u/l3ZdeNqWkfvjwWjSUbVtnZ6INp5oyr+di89GVsUd2F9Vv/7xbY6AOAAW0ecbh3co75TSCM68XYZETIyPsxsccvRDMY1wPL1ZsL5i9G32BX9hkMBoPBYDAYjFsUdmWfwWAwGAwGg8G4RWGbfQaDwWAwGAwG4xaFbfYZDAaDwWAwGIxbFLbZZzAYjF8MA9rVbdDZHv6fg+lwo9C2qnHV9qcSGLwwzRj/67DN/m8aA8renYasp75FKwC0n8IPH3+DIvWN+WWLttoylFQ3w2B7wob2Uz/g42+KcIOG7cJQ9i6mZT2Fb1ttz1wLWtTLfsBnGz/Cx9vzcEp1gyf7W8ZQhnenZeGpGyOkmTbsnD8Uk9cpnMbHfxebnPhNY0TF3+7G4PGrUXDV9lwvaduJ+UMnY53ier3Qe93ads7H0MnrcN1DdmFExXuTMGTimyjS2J4zYxPDv1TN+TXhtamX9rfsX4is9DnYdsH+zvWafXeD15Zfg2vVrG/0Po+s+a3WU8b/Cmyz/5tGhaN79uOqfzj6AdAcXIenlqzHkcvX/wIlU80mPCwWQZy7CD9YLsDaI1j90FxsLO8sjBocXPcUlqw/ghswrBWqo3uw/6o/wi1+bOVaMCn349V7hiAhdxZefv9DrF00DeLUe/FR9Y0o7jcBqqPYs/8q/K9XSEt0chzYWwWP8Ohf9YfPemKdE78KPXLEPsaqDVj8fj8s/XQ5cs0/2tZXdPID2FvlgfDo6/VCb3XTQX5gL6o8wnHdQ5oxVv4Dz33ghaVblmKYo1/8sYrhX67m/Ho4sak39rcfxmvPH8SYf2zATKG9H0C6dt/1ZW3RHlmNh+ZuhJPw/y9zrZr1ld7mkQ2/2XrK+F+BbfZvKCZompvQYvHVXdeiRPNVO1dLtGo01DWh3U7B1LU0QtlqALRFyC91Q5okFR4APCdtwHnlLjwT3120jO1NqG9qR49utCrUO+gfUGHXytcgk0xAWttpnKrp/pChbA8+23kOhiAX8xFPTNpwHspdz8BiWN75A9z4SrXW9iiga0GjshUGaFGUXwq3NAlSLV8Z7qxfW7QyrL7vXqypuwsfl57H6YJ8yM9WYu+fxyHKt9MGQKuqR509ncyY2puh0lj7qecxLdQNdWiyMzmtqh71Kjv2AjBpVFCq7d/A4GxeDnWEDi2NSnBhko9StzRIrIV0OFdrdFA3NlrFLACYLhVCVpsAqYT/Lc5alRJ2p+dAP1V9b+bUE0c5wdFbW9G3HNWp0djY0uNKXM8cscDUjmaVBiYALv5j8NoPWzE3uXt5d5ivdjHhUqEMtQlSWLpBp25Eo63DHNBn3UyXUCirRYJUwv/+bpMGzU2W2ujQomyGPRm1rhlYtHU95iTZbnMcxbC9mmNEe1O9XR87zaFOdC1obGy55luJtOqG3o1jN+ft2dQX+wHNFW9MfPtfWD2xv/2F24HvehMv9tYWwF79MaBsz2fYec6AnuFvJ54s6FkPwNUEpRo9S4j9utSFsR1N9ZbrxDVq5nB8a/jzyHls2K2nDuqLQ0waqJRqu/HLO75FTQI4n9bXq+zY3Iv63CMeOnHiL8avDzGukw7atziHHnzjn/TihFQSRgSSb8Js2lZ+lN6ZkUkJ0SHkHTyCXj2h4T6uP0c7XpxISRFRFC8MpcCBE+j1/7Ry59rl9NEsMYUFR1J0hJBGPTqdUr2yaVW5gYg66MeFWTRm5QnSExG1l9Dmx7MpJnwgJcYOoKjs52l3MxFpq2j74rE0qP8AEgrDKCA8m+ZtP08Gixlrjr9EkvA76YNTX9PMsAE067sOIjJQxbuTKS7UlwRuvhQaHUPJc7YRdfxIC7PG0MoTeqfz79i3mHIeeI0+WjKBUoRRFOQdSZP+XmYeu53kH80icVgwRUZHkHDUozQ91YuyV5Vz53n6NdZ/SY9LJTRvZ3uXDRwGqv7beAoMGk/vnbG0sBtt1XZaPHYQ9R8gJGFYAIVnz6Pt582f7dhNzw27j5a9MYOSfV3JZ8pmarZ3jPR0bseLNDEpgqLihRQaOJAmvP4faiUiUv1Mr9+TSGGRcTRoQAilLP6JNESk2beYcu5bQX97bgwlx0ZTiF8kjV8rI3MU8M6LX0eidvlHNEscRsGR0RQhHEWPTk8lr+xVVM4J6XiuNnSUbqRZGaFcP3Hj6aVlD5P04S3cue9nU2TU4/RD54S7W9G+xTn0wGsf0ZIJKSSMCiLvyEn09zIeTUlLVdsX09hB/WmAUEhhAeGUPW87dbqBF96c6K2tfcxR6qDSjbMoI5SL1bjxL9Gyh6X08JZ6+zlCHbT7uWF037I3aEayL7n6TKHNzb3M19Yd9LRkHK2SmfPLUEnvT0+jh7coiaiDvp8dSVGP/8DFTUcpbZyVQaHBkRQdEUfjX1pGD0sfpi1KY7epnVyrbh3f0+zIKHq8p+OJOvbR4pwH6Y1/vkgTUoUUEehLCbO3UfnRd2hGZgJFh3hT8IhXqbvU7aAXJyZRRFQ8CUMDaeCE16m71PHEsE3NaS/ZTI9nx1D4wESKHRBF2c/vJnKSQ9a0U8mm2SQd0J+iogdQzO0LaNEDErPGRK07nibJuFXU7YL3aXpat658dljCm/O2NvXB/l7baeu7XseLdaw6rD+GCnp3chyF+grIzTeUomOSac62ZifxZKcedOyjxTkP0GsfLaEJKUKKCvKmyEl/p64SwlOXiNqpZPPjlB0TTgMTY2lAVDY9v7u5b5o5Gd8K3jzqfWxY11NH9YWLRys0+2hxzn204m/P0ZjkWIoO8aPI8WtJ5jTH7NUkFf38+j2UGBZJcYMGUEjKYvpJQ0RO6rPDeDBPkd9fjN8KbLN/vejltCLTmwKFE+jlQ5fI2PoNzQz3o5ikUfTkV2dJry+m5RIvkq4oJqIOOro0k0IzF9KuWgMRKWnTlACKmLOTOqiNDixKocCsF+jgZSOR6gitGBFAgqjHaZeGiPQyWpbhT5M2KIlITXvnJVP/ESvoqIqI6AoVf72Dijta6eCSdAqWPkv/vqgnonbKXyolz8SFdFhrnq+hgt65I4wyl+eTxlBGrw7zpuF/PUMGIjJqm+n7J2Ip6N5/Up1KTa0aI+llyyjDfxJtUJKT+etJviKTvAOENH7FAVIaNXTw2UTyGv0WnTcStR1YRCmBWfTCwctkJBUdWTGCAgRR9PgujZN+iQwVm+iJqU/TFtsNvb6EVmZ50sAnd1Gb9RmO1oO0JD2YpM/+mzg58mmp1JMSFx4mIiK9bBmJvfwoMncefVFcSdW1rXaPdRxdSpmhmbRwVy0ZiEi5aQoFRMyhnR16Klk5lPyyV5K8g4j0DVRZrSIj6Un+ciZ5+kTTHcsPkNJooKq1I8kn9inap3E2L34dqe0ALUoJpKwXDhIXJitoRICAoh7fRRoinrnaaNN+mJaIgmnoi4fM/SynXH8Bxc3fT0R6KvlLJvmN/4DqbfcF5ngPEI6nFQeUZNQcpGcTvWj0W+e503b0az24hNKDpfTsvy8SZ+5Sknom0sKuoHQEf0702tY+5ShR++ElJAoeSi8eMsfq8lzyF8TR/P0auzlCehktE3uRX2QuzfuimCqra6m1V/lKpD26hIYETKHNl81zvfI5/S44nubv1xDpS+gvmX40/oN6MlI7HV4iouChL9IhsxbLc/1JEDef9vfYl1+7bvqSv1Cm33j6oIfjifTyFZTpHUjCCS/ToUtGav1mJoX7xVDSqCfpq7N60hcvJ4mXlFYU64k6jtLSzFDKXLiLuJTeRFMCImjOzg6nMWxVc9R7aV5yfxqx4ihx0hXT1zuKneSQNe2H/kRpQcPopZ9VRKSm46+OpED3QfRMnoaItHR0yRAKmLKZul3wOwqON+vKZ4cV/DlvZVNf7O+Dnda+60O8WMUqX/0xkrb5e3oiNoju/WcdqdStpDE6iSc79YCLowASjl9BB5RG0hx8lhK9RtNb541O6hKReu88Su4/glZwiURXir+mHcUdfdKMd3wr+POoL7FhWU/56ostevnLlOnpQ9F3LKcDSiMZqtbSSJ9Yemqfhn98OzVJVbKShvpl00pusaKGympSGclJfeaLB2frCOO3xC2/2W9vqKKK8nIqL6+gM3VXbE9fP80f01Q/fxrzlvkKtWYXPR7lQYMXHuQ2oIYyem2YD932ZjUZGzbT1OAomrG5mBRFR2jn+ufo9gFhNGXjOdIrP6bpwdH02PedlwW4Rch3gnnDdXkTTQ4Q0Z/z9WSs+YAmBsbTvDzrK92dx5/5qft4x7czKdT3XtraTkRkpIYvfk9RcY/RzmYionb6akZ/Cn90B3UQERnP0VujfGjYa6e6vrVf3jSZAkR/pnw98c7fSM308VQ/8h/zlvkKMzd//3s2UbNRSR9PD6box77vuuqqPbqEhvhOoA/qjU76dYyx4QOa4BVMD223t9U3Us0HEykw/hnqlqODvp0ZSr73biUy2+brO4LeKDFf0rN3zNhAm6cGU9SMzVSsKKIjO9fTc7cPoLApG+mcUUuHnkskz5Qn6ZtqywKvoi3T/Slw7DtUYRay49uZFBr4e9rW7mxePDqSkZQfT6fg6MeoO0yO0pIhvjThg3oy8s61cywO5Zbp1N+qn2P0fEoATdl8mYhU9Mm0QBry/FHqsR23jXftUVoyxJ/u2dRMZFe/GvpgYiDFP/MTdZv7Lc0M9aV7uaB0iJEvJ/S9t7XHnHlylEhJW6b3t47VY89TSueG3E6O0OVNNNnXl0a8UcJdxe885iRfiYzU8MEE8pMspyJzQ6uxVJ/QtMAh9PxRLZFyC03vb63FsedTrDapnVyPbqpPplHgkOfpaA/HEzV/PJX8/MfQW+armppdj1OUx2BaeJDLP0PZazTM5zZ6s1pHDZunUnDUDNpcrKCiIztp/XO304CwKbTxnJ4/hq1qTmeuzCNr6ZzlkCWX6NP7Qih6zg7qrP7aI3+iZP+76aNLXH5/MMGPJMuLzL6z1NXIY4dtkPHlvLVNfbe/N3ba+K4P8WIZq/z1h8h47i0a5TOMXjtlNtJJzelRD+zEkfboEhrifw9tanZSlzpryby87lpipi+a8Y1vCW8eGfsWG9311El9sUG1ZTr5B46ld7qDimaGBtLvt7Xyj2+nJmkPPUeJnin05DfV3HpPvanP/PHA6y/Gbwr7t7HdKphq8OXzD+DBBx/Egw8+iEfXHLT9xHWjKymAQnAH5sxMhhsAY50CFSoRZswZDh8A0ChQWh2MlLRIXD24G4c6DCh4ezZmPb0UHx52xbQNh/DZnFjojuzDzxiBCaPN9/SZGpF/sgYxYjGCXQGtvBAK9zRIhgjQemgvjnuNwkSbp/7aD+/Fce9RuGt49/H2S5fQERyGMDcAbQexavk3QLwfiv/xOl5//S0canCH6vQp1BoB6IpRVBEIkXgQuNsetZAXKuCeJsEQAXjn76orQYFCgDvmzESyGwC0QlFWi9h0Efw0R7DvZ2DEhNHme0lNaMw/iZoYMcTBrvz9dlnSE9PFi2igAYiOdrc9BaAdh/ceh/eou9AtRzsuXepAcFhYt23j5+KJtM57ie0cu3oQuw91wFDwNmbPehpLPzwM12kbcOizOYh19cDwRWuxYMAPmCFKxd2v5EFpAqArRaHCDWNmP4IkNwAwQVVbh6thEYgQOJkXn47Q4AgnJLrDJB8na2IgFgfDlXeunWMBgAbH846BLPtpOI78mjiIJf6ATo4ChRtEUuv7UmEn3tGqQFltLNJFfvb1az+Mvce9Mequ4eg29xIudQQjLIz/gTkNX05oemtrzznz5Sg0x5F3jKxiteF4PmrixJD428uRztwcj7lPpHU9fNebfAX0kBWegneaBIkCADChKb8AF8xj6eQFULiJIE31gOZ4Ho6RpRYNOJ5fgzixBP42vV67bjrICxRwE0mtn6MBAOhQUqCA4I45mJnsBsCIOkUFVKIZmDPcBwCgUZSiOjgFaZFaHNx9CB2GArw9exaeXvohDrtOw4ZDn2FOrI4/hq1qTisO7T0Or1ETbR5wdpJDlmiOIe+oCSMmjoEfwPkz/yQuxoqREQBAL0PhKW+kSRI535makF9wwazrVR47bIOML+ctbXKSw1b298FOWPuuL/FiGav89QfQFRehIlAE8SBz9PPWHDv1oEccAa2KMtTGpkPk56QutR7C3uNeGDUxt7uWADbrlDPN+Ma37NNJHrn2JTYs6qmz+mLdEKWFCriNmY1HuKCCSVWLuqthiIjQ8Y5vryZ5DF+EtQsG4IcZIqTe/QrylCbn9Zk3Hpz4i/Gbgm8vdfPjOhCzPz4JWVERiopk+HndPbafuE5MaCiUo2FwNnICuCNamQzlwVIM41ZvGE7JUKpNRabEFXVna6AVzce3BQXIP5KHHZ+sxaLJyfCBCaoLF9EeLkSseZE1nP4C2064mx8EMqFeJkdjsgQSTyOaahugi4jBQKvn3YxoqmuELiQSkV3HVcj7qRBeOaOR2c+Aknf/jC2ukzBjmA+utrejvb0DPmED4F5djlN6wFBVjNK2ZIjF5s2zqR4yeSOSJRJ4wsgzf8DUUAh5w2BkdwlRhEKFO1LFQ+CquoCL7eEQdhuHL7adgHuaBKke/P3y4eLrA29qRmOD3vYUYGxCXaMOIZGR3W8/UOXhp0Iv5IzO7LJtcHYuzDO2e8xYdxY1WhHmf1uAgvwjyNvxCdYumoxk8+TcYibjr3mnkL9ODPlrL2B9uRGmS0UorkvGsGGdBU+N/fuL4J87CmI3/nnx6SgwqXDhYjvChbHmTbgBp7/YhhPu3IN9zubahakZZ8+1IFwo7Oqn4vMvccJbBGmiAKYGGYrrkyCV2G5O7cR7USEU7qkQDxHY16+pDo26EER2ByVUeT+h0CsHozP53mfBnxNuvbXV3pwd5qg7TM1nca4lHEJh56AV+PzLE/AWSZEosJMjnbk5OBu53YHUi3wFYLwAuaIZCenp3Js9DOXY8vkxeImkSBSY0CArRn2SFBJvE5rPnkNLuBDd0/ocX57whkhq3qR2cR26mRogK65HklRis5nizhXKGzA4O8fsWy1ksnIES4eZv6gYcEpWCm1qJiSudThbo4Vo/rcoKMjHkbwd+GTtIkxO9gGcxLBVzTE2obZBh4iYgdY2OsttC0zNZ3FObenPU9j6xQn0SxVjiAAwXpBD0ZyA9HQuFg3lW/D5MS9OVyOPHTbw5rzAwqY+2t9bO61917d46Y5V/jougAFVxaVoSxajM/x5a46demAvjooKFXBPFWOIK39dMjbVokEXgRjbROqLZnzjW3XLn0cefYkNi3rqrL5YN7yEouI6JA8b1vUFTb1/P4r8czFKdIlnfHs1CYBbDCb/NQ+n8tdBLH8NL6wvh85JfeaNByfrCOO3xa292f/F0XALXroUMW7ggl1WAk1KJiTmYqgqKsL5WAkkwW4ICPSHS301Kts622vR1qYF4ApPH2+4qpvQpAegPobV89fihC4ZEok3AA2KZBUIEUkQ7eYCXz8foP4sqtu5Xq5WF6BE6YLA0BAIGipxugUATFDueRmv7o7E3EVTEVDzMV56uw5T39iINa++ilfN/15ZdBdiW07jVK0RhjNnUOMRjohgc1hoiiCrCIFIEg03uPDMH9DIZCgPToeUEwLGWhnkTcmQSDzh6ukDb1c1mjjjcGz1fKw9oUOyRAJvJ/2ivQAbFj2LD0/2fAOA26CxGBXfjG9Xv4Z9tVoAOjTmf4IXFvwdxRSI0BABGipPg5NDiT0vv4rdkXOxaGqQ2bb+SJfGdF2htXfMJSAQ/i71qO6eHLRtbdDChGaFDJXtAOCLBFE8AvoFIMjPBTpZEU7pmnGu8jJMAFqOvIl1eyMwa+6d8HXjnxefjnD1hI+3K9RNTeDCZDXmrz0BXbIEEm++udrg6gVfHxe0NCm7+ln4rgyGFCkknoBGVsjNIdb2yrttvBtRK5OjybxRsKefW2AoQgQNqOSCEiblHrz86m5Ezl2EqUE6KLY8j2fW5FkOYoY/J3pta4858+WoK1y9fOHj0oImZWesLsS7MgNSpBJ4Aj1zxJyb/bv67z7Gn68mwKiE8rIJAoEALuax3ivsHEsDWSE371g3V3j5+sClpQnctI5h9cJ3ITOkQCqxfZfldeimkaGwPBjp0tjunOhEI4OsPLjbt4YKyEo0SMmUgJNRhaKi84iVSBDsFoBAfxfUV1eiO6XbwJU6/hi2qjkuvuCkqwYn3VVUF5RA6cKfQ5a49vOEp4ua86dJjaOvz8e6Aj0GS8TwBGBUKnHZJIBA4GLW9T0UdurqwmOHDbw5b2lTX+x3UiussPJdX+LFMlb56zhgwJkzNfAIj0Bn+PPHU8960COOjLWQyZu4jbqTuuTi6wcf1ONsdyKhoEQJU1804xu/c46A0zzqS2xY1lNn9cUKnQxFp3RoPleJy1xQ4c11exExay7u9OMbv2dNMjUrIOMWK/gmiBAf0A8BQX4Q8NZnJ/HgxF86xRY8/8wa5F22fQMT41fB9r4eRh/Ql9LKocE0ZZPSfG+5ij6ZFkwZS/O77v88sCCRIh75mtqIyKjcSQvSAykwIZfGTRhDWUkJNOX9Ku7h2Ppt9EisD4WLckiakkOzljxEqcInabeGuAdRLcYx1n1FcxJ9KDBxBI0dmUGJ4ifoq3ojkWo/vZTdnwLjcmjs6HSKisqiJ7dWkJY0tH9+AgXf0X0/aRfN/6SpAYPomZ80pJevoly/AErMHU3TVh2j9pKVNDR4Cm0yv73B8fz1VLpyKAVP2USdL3ro+G4WRcbP4572N9bTtkdiySdcRDnSFMqZtYQeShXSk7u5B5Ic90ukz3+JMvwH0+KDdm4iJqLmQ6/S+Oh+5CLwJD8/T/IIHEz3vn2c2ohItf8lyu4fSHE5Y2l0ehRFZT1JWyu4fvQ2tjk6RkYl7VyQToGBCZQ7bgKNyUqihCnvU5VBT0VrxlD0QAmNGTeCkiIG0aQ1x6iVDKR4ZSh5D76NhgtjSXJbFglD42jq2ye7HiJ2PC8nOpKR6rc9QrE+4STKkVJKzixa8lAqCZ/czb3xw+Fcu83hMNLFz2ZQjE8kZQzPJNHIubRspohSF/9M2s45TN5Ijba3nvaI9w76blYkxc/j3kBkVz9S0f6Xsql/YBzljB1N6VFRlPXkVqrQEpGhitaN8qGwBz+z+Hw3vDnRW1t7zJk/R8l4kT6bEUM+kRk0PFNEI+cuo5miVFr8szlubHJEa5Ob3Id6ma+kou+fiCOv0BTKlqbR7XNX0ByxeSzzvCdvbOT6uPgZzYjxociM4ZQpGklzl80kUepiMk/LimvVTV+6koYGT6aNPRzfec7Ct6pPaFpwBi3N73zY4AAtSIygR75uIyIjKXcuoPTAQErIHUcTxmRRUsIUer/K4DSGrWPISHVfzaFEn0BKHDGWRmYkkviJr4grdY5yyAbjRdr6+xjyDhdRjjSVhs+cRaNDYrpqD6m+pyfivCg0JZukabfT3BVzSNylK58dlvDnvK1Nvbe/93ba+q7X8WIVq87qj57kq3LJLyCRckdPo1XHtPzxZKce9Iijju9oVmQ8zeMWCp66RETGOvpqTiL5BCbSiLEjKSNRTE98VU/aPmjGP741vHnU69iwqadO6oslBsUrNNR7MN02XEixktsoSxhKcVPfppNcoXI8vp2apC9aQ2OiB5JkzDgakRRBgyatoWOtxF+fncYDn78MVLVuFPmEPUifWa0HjF8LFyJy/isajBuHoRmVMgVqtd6ISEpFUlj393mTuhIny1oRlpoOYUCPa2vWXK1DiawSrX6DkJ4WA9/OC43GFpyTl6CmIwDxGSJE9fyrIi9tNQWQ1QgQJ81AVI+/5fPPnxeTGpUny9Aalop0YUDPK4fX2i8AaJUoL67AJYQgIX0Iwi2aGlvOQV5Sg46AeGSIopzeGmQfA5orZVDUauEdkYTUpDDzVRgT2mrkKDqvRUiyGIPD+gFoxef3C/FK3E7IlkWgpLgenvESpEVY23Pt8zJBXXkSZa1hSE0XomeYOJqrLUaoqwpQdsVRPzcSI1rOyVFS04GA+AyI+hCU/DnRW1v7iFGNqoIyXHEQq05zxB6O8tXUguoCBVShqRDbGcsSo7oKBWVXHGhhza+imw2G5krIFLXQekcgKTUJ3SntLIatuVpXAlllK/wGpSMtxrfrz9G9ziGzP9WhKUi9vAbDxpzE05W78McBXE+mlmoUKFQITRXb0YrPjk56l/Pd9M3+XttpQ1/ipfe0oaZAhhpBHKQZUebbvW5kPDmrS1dRVyJDZasfBqWnIaYrkay5Vs1s4c+j3sSGHZzUl05aP78fwlfisFO2DBElxaj3jIckLcJK276Mb2qrgbzoPLQhyRAPDrP4UbBrr8/O/cX4rcA2+wzGjUR3FEsy7kb10rP41x8sb5hkMBi/Ns2bJmPQm0Owp2g1csy3TV83LOcZNxwdji7JwN3VS3H2X3/ofuaBwbhG7H8tZjAY14ahDR5x92JyjsUvJTIYjN8ARjQZQzDy/okQ3aiNPljOM34JDGjziMO9k3P4f8mawegl7Mo+g8FgMBgMBoNxi8Ku7DMYDAaDwWAwGLcobLPPYDAYDAaDwWDcorDNPoPBYDAYDAaDcYvCNvsMBoPBYDAYDMYtym9ks38V9adkKDh5EgUFMsgr6tBqtP3ML4OhcjuWPj4bSz4rtz3lHEMlti99HLOXfIby/9J8GQwGg8FgMBiM3vKb2OxrfliAoSIpsoYORVaWFBmDoxE6cBRe3K20/WgvMeHCv57HvXc/iDeP6mxPWmBA2aevY/WmrfihWG170imGsk/x+upN2PpDMdRss89gMBgMBoPB+I3xG9jsG1BxvBBKkwdyXtiJQwf/jX/MGgyqP4y3Vn9h9UmtugG1ja0wWB0FoFWhvq4J7V0b7g4c2/4RvvtRgcv2ftHN0IrLai0AAdKe/RL/OVaMvFdyus8br+JyXR0uXzVZtoLx6mXU1V1G52FB2rP48j/HUJz3itUPtOhaGlBbr4a2+5ANJlxtVkJt73uIVo2G2ka09jAS0KrqUdfUDva9gsFgMBgMBoPRG34Dm/0rkBWdgcEtBsPuHI/bR07Cw1Mz4e8CuAjcAQBXyz7F/LGDEBISieiIYISKZmJzuQ4w1mLni+Mg7B+CqKgBCAofj7eKj2HV2FTM/VYNk7EKH96bCMmifTCefh/3Dh6M3694FdOSBiB82As43FGBD5+Yit8/vRElBAAtOPnBLGRFBSE0KgqhwTG4f/MFoOUkPpiVhaigUERFhSI45n5svqBHxYdPYOrvn8ZGrjHaSz7G06NiEdw/EtFR/REcOw7L93J/negc/5E3N+G5kQMRHBKOsNjxeEtu3vFfLcOn88diUEgIIqMjEBwqwszN5dABMNbuxIvjhOgfEoWoAUEIH/8WFAbAoPgA92ckYdj/5fF8sWAwGAwGg8Fg/K/y62/2tcUoKOkA3BOQNLAVtcXbsWL1TjQjDJMemQKT8hs8c/ccfFAahVnrPsHmPw0Hyj7Dyr/9jJbvXsDjqw/CbeLr+PTLDVj2wHAIQ7wQK06Er54giBuLmQ/PwlP3StF6Yh9+OlONHWv/hhrpH/DHp6ZDojmGPXtOoQb+CHczoe7zP2La/E9xPv5xvLN1K96Zdw+y43X4/I/TMP/T84h//B1s3foO5t2TjcT+bTi2Zw9O1QD+4W4w1X6Ox+56DB/KQ/DAGx/jk9emILQuD28sehsAusb/5uXF2OkxDlOHBsPYcBBbvz0NmJT45pm7MeeDUkTNWodPNv8Jw1GGz1b+DT9rW/DdC49j9UE3THz9U3y5YRkeGC5EiKsJ9T99he9LzkMj8IWLra4MBoPBYDAYDAb9yhiq36Tb3UFA5z8Xch8wlGb/7Rg1G/VUtEJKHi7edNvLB6mkMI/++XQm+br60Mg3FVS1ZgS5uwho0P3v0ZE6bVefmh/nUrSbG8XM/ZE0RESkpUPPJZLARUAJc3+gZvPntAcWULzAlcJnf08d+pO0NMOdXPwm0N/PGbv60p9cShnuLuQ34e9kcZhIe4AWxAvINXw2fd+hpWP/l0LuLt408s0KMhARafbRUwPdyMX3Povx3SjmoS+p1mikmrfHkAc8aOTas6QvWkFSDxfyvu1lOlhSSHn/fJoyfV3JZ+SbVK6tojUj3MlFMIjuf+8IWZhJ1F5LiuIqajZYHGMwGAwGg8FgMMz86lf2NYWFKDO6ImjsC1j/1jMY0d8FhqseSB6ZiSCqwq49JdDRVfz8l9EQ507Hn/f7YurLX+Lj+SmIfWABZg7xwvntCzAyJRcLdtTDBCMuFpWi0eSOwWIR3AHA1AhZ8XkY3YfhiUUTEAQAMKFBJscFoztSpBK4Ve/FvjIDPLLuwdSYTlmMqN67D2UGD2TdMxVdhwGYGmSQXzDCPUUKidsZ/PjTGejdszD1vgS4AYBBBXUrwTWwv9X4z6y4D5GuelSUV8LoNgAp6WGo2rUHJTrC1Z//gtHiXEz/8374Tn0ZX348H8kesXhgwUwM8TqP7QtGIiV3AXbUmx8a8I5ESnocguw9l8BgMBgMBoPB+J/nV97sG3CqsARXSID0yX/EY8+tw6qH4+DWegJffX0KBkMtLjSY4Bb5GL5vNcCgUaO27AA+XXY3hB6A28AH8FFBCX5cOQ4hrTKs//t3aDJpUVxcDqPbQIhEwZyBOhkKFQa4xQ5DrrBzZ6yBTKaAwS0WYkkoTBcvoN4EeISEIcisismkw8UL9TDBAyFhQWaxTDCZAI1MBoXBDbFiCUJN9ahrNMHFPRQRYdynWvJ24fAVIGj4mO7xhTkYIXQDjBdQKG+AySMN0nQ31F5ogMktEo993wqDQQN1bRkOfLoMdws9ALhh4AMfoaDkR6wcF4JW2Xr8/bsmmACYNO24audBXgaDwWAwGAwGA7/+Zl8FmawKBreBEGdGwBUeSM9Mg6eLAafyT0DlFoAgf1eYLh3D998dh7z4KPZsXYc1209Dd/47vLXuSxxUNMPVzwcCuCI0Vgg/akD1+SswUTvKdr6Hv+04De3pAshVBO+0TIg635pjOIPCEjXIOxXSNA+4BQQhwJXQnvcOFr2xDivnjsOY54/AKygArtSOvHcW4Y11KzF33Bg8f7AdZwpLoCZvpErT4CGIRFS4K6ApwLefHMSxXW/jyUWfoq6fBE8vngZD5/ip5vE7ClFYZoQgXgJJsBsCgvzharqEY99/h+PyYhzdsxXr1mzHaaMR5797C+u+PAhFsyv8fASAayhihX4wyV7F8DB/DLh3My7bqMpgMBgMBoPBYAC/9j372kO0MMmd3MP+QNvU3CF98Uoa6ulKHinP0xGtgao++QMlert03dPv4hFNM7bW0dVdT1KMwHzcxZ3CchfSdxeNRNRGe+clkIcLCC7eNHpdJam/eIAC3Xzo9tWnuPvpiYhav6AHAt3I5/bVdMpARIYK2jB9INcOLuQRdQe9frSdDBUbaPpAD3IBCC4eFHXH63S0vZW+eCCQ3Hxup9WnDERkpPodC0ga6MZ9Di7kGTWaFn9dTXoiarUZX1+8gjI93ClyznfURkSGqk/oD4ne5rbcONEztlKdUUO7nowhgYvZdvcwyl34HV00El3ZNoNCPIJo+KsnSW8hKYPBYDAYDAaD0YkLEXHvjfyV6M3wusuVKC6rRYdHfwgHD8HAAO5WnKv1CsjPXAb6J0GcGg7PzgamVpwrLMJFQSzE6QPh2+u/X1xFXUkRqtqDkCQZggH9Og/XoaSoCu1BSZAMGYDOw7aYWmtQIj+LKx5RSMlIQH+Ld+87RXcZlcVlqO3wQH/hYAwZGMDd+4+rqFfIwZkpRmp4l5U9cHFh7+RhMBgMBoPBYHTzq2/2f/e732H79u22hxnXwK/sSgaDwWAwGAzGb4xffbN/9OhRXLx40fYw4xr43e9+Z3uIwWAwGAwGg/E/zK++2WcwGAwGg8FgMBi/DL2+m53BYDAYDAaDwWDcXLDNPoPBYDAYDAaDcYvCNvsMBoPBYDAYDMYtCtvsMxgMBoPBYDBuWUwaNVRtBtvD/zOwzf4NQYPGyko0amwOG5pxtqIWbTaHGb8hDGV4d1oWnvq21fZMr2jbOR9DJ6+D4hpqyPW0/eVox6kfPsY3RWqYbE/91rlOX95YbmIdf+Pc8LxpP4UfPv4GReqb3VMGlL07DVlPfYtWXLtd7ad+wMffFKGPza6dtp2YP3Qy1t0whzrjOnPzBs/3WuP5v+6nmxYVDqwch7iBqZCk3ok15UbbDzjnBvv814Bt9m8AptoNmCGeireKdVbH2755BkPHLsdB2y8BjN8OqqPYs/8q/MMd/VQaHzrID+xFVb9wRAtszznD3NbjWtr+gmgOYt1TS7D+yGU4fU2X9ghWPzQXG6+leP4SXJcvbzB90ZHRB2583mgOrsNTS9bjyOWb3VMqHN2zH1f9w9Gvl3Zpj6zGQ3M3ojuFNTi47iksWX8EPM3MaHFk9UOYu7Ec11MBdPID2FvVD+E3yqHOsMnNnhrww83X4wbN91rjuS9++u/RVy3/G+hOrMGCt42Yf+gszp3fhyWDuZ8r7Qv/9Rj9BWCb/RuArlCGUx5pkKRa/mSuDmWFJdAMkUJi+0u6WhWUaq3NQQA6NRobW3BN3x1NGqiUalh/3TCjVaOhrgntdhPQhPZmFTRdVwe0UNXXQ2VnelpVPeqa2h0Xdkd2QQd1YyNarsUwPrucoFU3OJivDi2NSrQaAG1RPkrdbHzHq5cFpksolNUiSSqFr0kDlVIFu9arG9Foa7y5bWKmBL7QOmzLP5c++M6hFjZ4TsKG80rseibe/AvOnWihUqqt5mgo24PPdp6DIajnLzfzjmdqR7NK0+OqmlalhL3wsatfF058CS1U9XVosi9gH3EWxxb+sKcjb3479l1fcay9Ee1N9Xa1cNhGq0J9vYPYtIPDfsw48rF9tFA32PjOnDcJUgl8LT/qAJOmGU2WDtO1QNl81Sr2PCdtwHnlLjwT3+kpPl+YoGlusooBXYsSzVdtoxnXGHt9b6NraYSSSwDkl7ohTZIKj17ZZUDZns+w85wB3SnsiUkbzkO56xl0NTPTw3eGMuz5bCfOGYLQowJoVah3WLcsMeFSoQy1SVJIfU3QqJQOdOfRhS9G7a0fVrlpTwMO+3XHPN8EKSS9CUBL7GnS23WgB/b85Kw+cXo0N1nWIB1alM2wH758aw9nj/V671hLp331wE7uW9FzPbKPEWd/2o/q9Km4P8l6XXDYv7EdTfWWc+1djNqPFzN8MfrfghjXiZ5K/pJJ3jmvU7nB4rCxgf4x0ZeSFh8hLRF17FtMOQ+8Rh8tmUApwigK8o6kSX8vI65JB5VunEUZocEUGR1BceNfomUPS+nhLUqLDu2g2UeLc+6jFX97jsYkx1J0iB9Fjl9LMo35vP4c7XhxIiVFRFG8MJQCB06g1//TSkREHbufo2H3LaM3ZiSTr6sPTdncTKqfX6d7EsMoMm4QDQhJocU/cR1pq7bT4rGDqP8AIQnDAig8ex5tP2+eOa9dRB2lG2lWRigFR0ZTRNx4emnZwyR9eIv5rAOc2NW642mSjFtFMj33f0Pl+zQ97WHaojQSEZH+3A56cWISRUTFkzA0kAZOeJ3MZlO7/COaJQ7j5iMcRY9OTyWv7FWc73j0skvH9zQ7Kpbue2EhjRscS1FB3hRx57ukMM+LOkpp46wMCg2OpOiIOBr/0jJ6WGqeZ8f3NDtyID34lxU0NSOOYkJ8KfyONVR4g33Hp4U9On5cSFljVtIJPRF17KPFOQ/Qax8toQkpQooK8qbISX+nMoOBKt6dTHGhviRw86XQ6BhKnrONiHe8Dtr93DC6b9kbNCPZl1x9ptDm5g7atziHHnjtI1oyIYWEUUHkHTmJ/l5mjh4+/Zz5krRUtX0xjR3UnwYIhRQWEE7Z87aTOWx7YLy4kR5M/R1tOM/1TaSmHfMyKffFg1z+8sSxPX9Y6egkvx35zhZnc3SsPVF7yWZ6PDuGwgcmUuyAKMp+fjcRbxsV/fz6PZQYFklxgwZQSMpicjAtIt5+nPjYLno6t+NFmpgUQVHxQgoNHEgTXv8Pcd19T7Mjo+jxHxxPpmPfYsp58A3654sTKFUYQYG+CTR7WzkdfWcGZSZEU4h3MI149QRxPXTQjwuzaMzKE6R36AvOhgff+Ce9OCGVhBGB5Jswm7aVH6V3ZmRSQnQIeQePoFdPdM6pb7HHcQ1t2uX00SwxhQVHUnSEkEY9Op1SvbJpVbnBuV0/ltC7k+Mo1FdAbr6hFB2TTHO2NRN1/EgLs8bQSq4AOPSdoeJdmhwXSr4CN/INjaaY5Dm0rZmItFW0ffFYGtR/AAmFYRQQnk3ztp/vWg960kHfz46i2PteoIXjBlNsVBB5R9xJ73YVUT5dHMSok/WjKzc1FQ404Ks7HfT97EiKevwHc/z0Aj5NeNYB3ny38hN/feLq+IP0xj9fpAmpQooI9KWE2duo/Og7NCMzgaJDvCl4xKvUFb58a4+j9d7gQEuevuzDl/uO1iPbPswYztI/psdTmJ87ufmEULRwHL1R3OG4f2qnks2PU3ZMOA1MjKUBUdn0/O5m5zHKGy8OYvRXgG32rxsVfTI9kKKf3G2d/Jpd9ER0IN27VU1EepKvyCTvACGNX3GAlEYNHXw2kbxGv0XnjUTth5eQKHgovXjoMhlJRUeW55K/II7m7+ePCr38Zcr09KHoO5bTAaWRDFVraaRPLD21j1ugji7NpNDMhbSr1kBESto0JYAi5uykDtKTbJmYvPwiKXfeF1RcWU21qhJaOdSPslfKqYOI9A2VVK0yErUepCXpwSR99t90UU9E7fm0VOpJiQsPO7WL2g/TElEwDX3xEF02EqmOLKdcfwHFzd9va4oV/HZp6eiSIRQwZTNdNn/+yue/o+D4+bRfQ0QdR2lpZihlLtxFnNmbaEpABM3Z2UHUdoAWpQRS1gsHzfNZQSMCBBT1+C7S8OplH33JXyjTw5MixnLz1BxeSEleo+gtzng6vEREwUNfpEPcYLQ8158Ecdw8ubZ+FD3mBdrbYCBD5Rq63VtIT5s3F47n0gff8WlhFz3JlmWQ/6QNpCQivXwFZXoHkHD8Cs6+g89Sotdoeuu8kYzaZvr+iVgKuvefVKdSU6vGyXh6GS0Te5FfZC7N+6KYKqtrqVUvpxWZ3hQgHE8rDijJqDlIzyZ60ei3zjvVj9+XRK0Hl1B6sJSe/fdF4sJ2KUk9E2nhYa2t0RztX9GM/gPpj3vNOXd5K90fEk2P7WxzEsd2/NFqrSNvfusd+M4efHPk0169l+Yl96cRK46SiojoSjF9vaOYt42+ZCUN9cumlfIOItJTQ2U1OZoWXz/E62P7dBxdSpmhmbRwVy1x3U2hgIg5tLPDnDd+4+mDekeTMdekQCFNePkQXTK20jczw8kvJolGPfkVndXrqXi5hLykK6hYT1xcZvjTpA1Kx74w2xAonEAvH7pExtZvaGa4H8UkjaInvzpLen0xLZd4kXRFMdG1xN41tWmjA4tSKDDrBTpozo8VIwJIEPU47dL0xi49aZu/pydig+jef9aRSt1KGiORXraMMvwn0QauADj2nVFLzd8/QbFB99I/61SkbtWQkVrp4JJ0CpY+S//mFgvKXyolz8SF5NAMfQn9JdODPCPG0vIDSjJqDtPCJC8aZY4PPl0cxSj/+mGZm0Y7GjipO/oS+kumH43/oJ4cRaA1/JrwrgM8+W7lJ9761FnHA0k44WU6dMlIrd/MpHC/GEoa9SR9dVZP+uLlJPGS0opi7gse39rjeL23pyVfX/bhzX2e9cgRWtVemp8UQPd8eJ5UV9qplad/9d55lNx/BK04qiIioivFX9OO4g4nMcofL45i9Nfglr+N52pjNU5XVKCi4jQq63+BB/d0JSgsNSBVKoa7xWHjORnkzYmQin0BtEJWdBoC6bN4b9kohLq6wMNDAHffAPi5NuHrdZugmr4cf749GK4IRNak2xHtkwZpOv+9x23FxTjjmY0l7y/HqFBXuEXGQ+jdAlWzEabGL/DG+w0YN+9RDGw6jn9vWIXNx/th6Ig0eOAKZEWVcEtfgPVvPYj0+EGI9FahWa1H68Uq1GsAwYB4DAoELny6ChvaZ2DNqkmIEgDwTkNWmh/qz9c4sQto+nodNqmmY/mfb0ewKxCYNQm3R/sgTZpua4oVfHbBpEJR8UXEiSXwBwDoUCZTwJgqRXo/Exq/eAPvN4zDvEcHoun4v7Fh1WYc7zcUI9IEaPrXO/jnlfuw4qWR5vncieGRnkjNFMONVy/7tMlkOOM1HC98wM3TxdUVLgI/BHDGY90mFaYv/zNu5wbDpNuj4ZMmRXo/c1sPEZ559xWMG+AGt6hEDPJRo/nyjfOdYy0cWXQFsqJziBWLEQSgVVaE0wIpnn1vGWefhwcE7r4I8HOFq+AKKk9fQmJmNsICA+Dbz8l4V2QoqnRD+oL1eOvBdMQPioRvqwxFpwWQPvselo0KhauLBzwE7vAN8HOin4nXl+6mC/h01Qa0z1iDVZOiwIVtFtL86nG+xsGfWT2SkDiwGVVn1DDBhPNf/BP7Qn+POeN8nMSxHX/4WuroJL9N9nznoCw7nKMXj/YCXPj8TXxqmIFXns9BIAD4pWP65DSeNh4wqZqh1rfiYlU9NBBgQPwg2J8WX855AHw+toepEV+88T4axs3DowObcPzfG7Bq83H0GzoCaR5c3lRFSyAOtjuZ7pokeRbvLr0d/V3d4enhBq3P3Vi57n4IBS5w7+cOV28/+LmAi8tzsRCLgxz7wmyD5Nl3sfT2/nB194SHmxY+d6/EuvuFELi4o5+7K7z9/IBrib1raGNq+hfe+ecV3LfiJYw058edwyPhmZoJsXtv7BJAcKUSpy8lIjM7DIEBvujnClyRFeFcrBhirgA49p2rAFcqT+NSYiaywwIR4NsPuPApVm1ox4w1qzCJWyyQlpUGv/rzcGAG0CaD7IwXhr/wAZaPCoWriytcXQTwC3CupaMY5V0/rGqca08NLvPVHfN8q6IhEQf36h5okxNN+NYBx/nuY+Un/vrUWcclePbdpbi9vyvcPT3gpvXB3SvX4X6hAC7u/eDu6g0/Pxcnaw/fet9TS/cmvr7s4CT3+dYjRwi0laioj4M0OxKBPq3Y7qh/wQV8/uanMMx4Bc/nBAIA/NKnY3K6J3+M8q5TcBijvwa/0rD/JUw1+PL5B/Dggw/iwQcfxKNrDtp+4roxNRVDXjsQGeIgKzHbCgtxOigd0ng3QFeCAoUAd8yZiWQ3AGiFoqwWseki+GmOI+8YYcSE0eZ7UE1oOJ6PmjgxJNxu1gE6lBYq4DZmNh5J4m7aM6lqUXc1DBERAlw9uBuHOgwoeHs2Zj29FB8edsW0DYfw2ZxYuGrlKFS4Y/zcJ5DW+byJx3AsWrsAA36YAVHq3XglTwkT2nF473F4j7oLw707x23HpUsdCA4L47cLGhzPOwYaMQGjzfc2mhqOI78mDmJew/jtgl6GwlPeSJMkQgAApibkF1wwb/6v4uDuQ+gwFODt2bPw9NIPcdh1GjYc+gxzYnU4su9nwHI+jfk4WRMDsTgYGj69rObXiQ7yAgXcxz2GmUluAExQlypQF5sOkR+gOZ6HYzQCE7qNx/H8GvM8ubauY5/AY2YHmNT1qL+hvuPTwr5FMPedJhkCAXQoKVBAcMcczOSci1ZFGWrN9kFXjKKKQIjEg8z3pPOPp5UXQuE+HnOfSOP8BkBXUgCF4A7MmZnM9dGqQFltLNJFfk700/D60rX9MPYe98aou4ajO2wv4VJHMMLCHDycJYjD4DgBzp85A4PmON7/oABDn3ka2f2cxLE9f1jq6Cy/7frOAQ7nyKd9Ow7tPQ6vUROR2yUGnPrLY/girF0wAD/MECH17leQp3Q0K/5++Hxsl6sHsftQBwwFb2P2rKex9MPDcJ22AYc+m4NYVy5v3ERSWD2WYYltTTLWQVGhgmjGHAz3AQANFKXVCE5JQ6QbzHGZBskQgUNf2NpgrFOgQiXCjDnDwXWpQGl1MFLSIoFrib1raKM5sg8/wzI/GpF/sgYxYjGCXXtpV3ERKgJFEA/qHEMLeaEC7mkSDBH0tNvadzoUF1UgUCRGZ/P2w3tx3HsU7upeLNB+6RI6gsPgwAzo5AVQuI/DYzOT4AbApC6Fos48hhNd7Meok/XDqsb11IC/7pjn6yaC1GEAWsOvCf864DjfLf3kpD71qONG1CkqoBLNwBwuIaBRlKI6OAVpkW78a49tblmt9z215O2rSw0LnOQ+73rkAH2RDKe8UiFOFPD3334Ie497YdTE3O5YM8MXo87ixX6M/jrY1fyWwXUgZn98ErKiIhQVyfDzuntsP3HdGM6fw0UKQ2SE5VPal/HjziNwG34HcvoBpoZCyBsGIzsngDutLUKhwh2p4iFwbT6Lcy3hEArNxcNQgc+/PAFvkRSJll3aYrqEouI6JA8bZr7CDaj370eRfy5Gid1Qd7YGWtF8fFtQgPwjedjxyVosmpwMHwCmehnkjYORnWueDwDADTGT/4q8U/lYJ5bjtRfWo1zXhLpGHUIiI7s2aFDl4adCL+SMzuS1S2BqxtlzLQgXCs3f4g2o+PxLnPAWQcpnGK9dHjBekEPRnIB08189DOVb8PkxL4ikiRAY63C2RgvR/G9RUJCPI3k78MnaRZic7AOYVLhwsR3hwtiu+Zz+YhtOuKdBksqvl11MDZAV12Nwdja4WqOHXHYKHmliDBGY0Hz2HFrCheh26+f48oQ3N09TA2TFdRick4tgc3fq/XmQ3VDf8WjhAK7vZEgknoCpAYXyBgzOzgE3khZFhQq4p4oxRAAYqopR2pYMsdj89yw+7WFCvUyOxsHZ6J62CQ2FcjQMzkZ3+BRC4Z4K8RBXJ/rx+dIDxqY6NOpCEBnZHWeqvJ9Q6JWD0ZmO/lrmicTkGDRUnUbZRyuw2eUxrJg9CG5O4tiePyx1NDnNbzu+s/PMGIeDOfJpb2xCbYMOETEDu3MYzvwFwC0Gk/+ah1P56yCWv4YX1jt44wpvP3w+tl8DjHVnUaMVYf63BSjIP4K8HZ9g7aLJ4Lrjci5JKumxIHfSsybJICsPhnSY+eKA4RRkpVqkZkrg3hmXyRJIPOHAF3ZskMlQHizFMHMdM5ySoVSbikyJ+zXFXt/bmKC6cBHt4ULEdobV6S+w7YS7+eHc3thlQFVxKdqSxdxfAgDAVA+ZvBHJEgk8nfnOUIXi0jYkizv/om1EU10jdCGR6DZDhbyfCuGVMxp2zYAJDbJi1A/ORrZ5w6aXcy+7EA8RONfFXow6WT+sahxsNXBStzvnmySFxFEAWuFEE3e+dcDDcb5b+slJfbJXx2WycgRLh5nrjwGnZKXQpmZC4m7kX3t65JbFet9DS/6+7OEs923tsFyP7GPERbkCzcliiPvx929sqkWDLgIxA20744tRJ+sU+lBH/wvc2pv9/wJu4REYgGJ8t7UAKhNgaj+Hn/76KBbvjMAfF01HEACNTIby4HRIY7hvpMZaGeRNXMFx9fKFj0sLmpR6AGocW70Q78oMSJFK4Gk7mCU6GYpO6dB8rhKXTQBajuDNdXsRMWsu7vR1QUCgP1zqq1HZ9ZJ/LdrauGfBNUUyVPTvng9MzVDIKtEOAL4JEMUHoF9AEPwEgQgNEaCh8jRaAMCkxJ6XX8XuyLlYNDWI1y64esHXxwUtTUroAaiPrcbCd2UwpEjNC5ADeO0CjEolLpsEEAhcAPUxrF74HgoNKZBKPAGXAAT6u6C+urL7tw20bWjTAnD1hI+3K9RNTV3zmb/2BHTJEki8+fWyi0aGwvL+EEmiuatexouQlVwyL5Su8PL1gUtLEzi3HsPqhe9C1jlPjQyFCh3UtRe4dySrf8bqN3+8sb5z5dHCAZoiGSpCRJBEuwEabpOULo0x21cLmbzJbB9gOHMGNR7hiOi8nYJPe2hQJKtA/3QpOqcNaLhFp+uYEbUyOZqSJZB4OtGP15eAW2AoQgQNqDzdAgAwKffg5Vd3I3LuIkwN6hzfFgESkuOAovfw6GvnMP31F7gr4U7iuIc/bHTkzW9HvrN9k0UXDubIp72LL/x8gPqz1dw4uIrqghIoyXEbU7MCskru074JIsQH9ENAkF/PN67Aydi8PrbspBuXgED4u9Sjujv4oW1r495ioZGhsDwY6dJYmzdFdWNbkwwVMpRoUpApMe9oVUUoOh8LiSQYrua4DBFJEO3iyBe2NhhQISuBJiUT3V0W4XysBJJg12uKvb63cYWnjzdc1U1o6syP+WtxQpcMicS7K9/47TLgzJkaeIRHoOuOKE0RZBUh5ppma7eN7wxncKbGA+ERnbezuCEwNASChkpwZpig3PMyXt0dibmLpsKuGdBAVliO/iIJos1jXJSV4JJ5DD5dJpODGHWyfljVONhq4KTumOcbnC5FrBtgavoJa+Ytx/azjrZvTjThXQfgON8t/eSkPvWo44YKyEo0SMmUmL+kqVBUdB6xEgmCXZ2sPXzrfQ8t+fuyh7Pc51uP7KNBUdFphKaJEenG37+Lrx98UI+z1VxM4Wo1CkqUMPHGKH+89KmO/jewvYmf0UeMzbR/+SgKd3cld29f8nRzJR/hePq/784R96y2nkpXDqXgKZvI/BIR6vhuFkXGz+OeyjZepM9mxJBPZAYNzxTRyLnLaKYolRb/7OiJJg6D4hUa6j2YbhsupFjJbZQlDKW4qW/TyTbuvFG5kxakB1JgQi6NmzCGspISaMr7VWQgPZXYzIf0RbRmTDQNlIyhcSOSKGLQJFpzjHs+XbX/JcruH0hxOWNpdHoURWU9SVsrtM7tIiNd/GwGxfhEUsbwTBKNnEvLZooodfHPxGeZM7tI9T09EedFoSnZJE27neaumEPi1MXEyWUk5c4FlB4YSAm542jCmCxKSphC71cZiMhI9dseoVifcBLlSCklZxYteSiVhOYHqx3rZR996UoaGjyZNnYbT7Mi4ugZ86P2xouf0YwYH4rMGE6ZopE0d9lMEpnnqS9ZSdkDR9P024UkzLyNMmNDKG7qOzfYd3xa2MO6b86+KbTJ0r7IeJrX+ZYf+SrK9QugxNzRNG3VMdLyjacvoZVDg2nKJmX3Q236UptjHfTdrEiKn/cT5w8e/Zz5kkhF+1/Kpv6BcZQzdjSlR0VR1pNbqYIv8IhIe/xFSvPwJcmSPO5BViIncWzHH7bH+PLboe8c42iODrUnI9V9NYcSfQIpccRYGpmRSOInvqJ6o+M2+qI1NCZ6IEnGjKMRSRE0aNIacjwtx/0487FdjErauSCdAgMTKHfcBBqTlUQJU94nrjtzzjU6esKtZ01SfTKNgjOWUr75xRnaAwsoMeIR+rqNe9iya36OfNHDBhV9Mi2YMpbmm+u7lg4sSKSIR74mLn2vJfb63sZYv40eifWhcFEOSVNyaNaShyhV+CTtNj9E6tQu0pN8VS75BSRS7uhptOqY+YHXzpzvYbeN7/RyWpXrRwGJuTR62io6piUi1X56Kbs/Bcbl0NjR6RQVlUVPbq1wXO/NY0zeaDlGBMU90xkfjnVxFKP864dtvvbUgLfudM23kYxEdGXb76m//3j6O88DonyaOFsHyEG+W/mJtz7ZqeOqT2hacAYt7U4IWpAYQY98zQ3Kt/bY5pb1em9HS4d9OcBp7jtej+yiL6RlGf5013rzWw15+idjHX01J5F8AhNpxNiRlJEopie+qiejkxjlixdHMfpr4UJEv6GfZLh50TSeQnGFEoYAIdLSYhHg6NKTPYxqVBWU4UpYKtKFAQ6vWlnS+vn9EL4Sh52yZYgoKUa9ZzwkaRHW33INzaiUKVCr9UZEUiqSwhx/B4apDTXyIpzXhiBZPBhhFn92Nbacg7ykBh0B8cgQRTn8M1xPjFBXFaDsShhS04W90qQ3dplaqlGgUCE0VQyhnU4NzZWQKWqh9Y5AUmoSus02QV15EmWtDubTF716gVFdhYKyKwhLTbc7TxjVqJaVotErAZLU8F/Ed461uH7aagogqxEgTpqBKPOftW/kePz6OfEljGg5J0dJTQcC4jMgiup91Pak73FsBV9+8/iur/Bpf7WuBLLKVvgNSkdajG/Xn3QdtTG11UBedB7akGSIB4fB2bQc9XNtGNBcKYOiVgvviCSkJoXxXL27gdwwX1xL7PW9jUldiZNlrQ7ywwKHdrWhpkCGGkEcpBlRDm+NckhbDQpkNRDESZHRWQCMLTgnL0FNRwDiM0TohRlOcKyLvRjtzfphTU8N+OuOmavHsXz0/Tjy4Pf492IxT/+90IRvHegV11mfbOnL2mNFTy373teNy31T43rcnfwPDDt4An/J6Lw9h6//q6grkaGy1Q+D0tMQ49u7G1/44sVejP5asM3+TYkOR5dk4O7qpTj7rz+Y72G7FbhV7WIwGAzGL8t/a/24imPLJuLZK3/G92/dhbDe7QkZ/y1MzagqLMGxTc9h3olp2H9sBcS2t+L/D8LC9KbEgDaPONw7OadXvyJ583Cr2sVgMBiMX5b/1vrhDemLe3DkHbbR/01yNR+bl76MLaq7sH7r/7GNvhl2ZZ/BYDAYDAaDwbhFYd9LGQwGg8FgMBiMWxS22WcwGAwGg8FgMG5R2GafwWAwGAwGg8G4RWGbfQaDwWAwGAwG4xaFbfZ/CQxleHdaFp76thVAO0798DG+KVLDZPs5Xq61HYPBYDAYDAaDwcE2+78EqqPYs/8q/MP7AZqDWPfUEqw/chmOX3ukxZHVD2HuxnJ0/fB2r9qZ0R7B6ofmYmO5o5/tZjAYDAaDwWD8L8I2+zcMHVoalWg1ANqifJS6pUGS6gF4TsKG80rseia+65cztap61Ku03U0NZdjz2U6cMwTBpfOYnXYcWqiUali0hqFsDz7beQ6GoK7WHDo1GhtbYLA+akYLVX09LKfBYDAYDAaDwbi1YJv9G8DVko14VBKDOGkmkhNH448f/IymJAkk3oBm7yIMHfsK8g0A1EfwxuQkDEy7DSOGRCP1T3m4evo9TEmeiLcUV/GfZVkQDn4MX6ls2ml+wp9yH8Sqjc9jYupgiAZHIe7u93HKaMTp96YgeeJbUFz9D5ZlCTH4sa8AaKDY9CjE0fGQZg1B8oSlWP5IJh75tAkAoD7yBiYnDUTabSMwJDoVf8pjO34Gg8FgMBiMWxG22b9e2g9i2e//BMWdX+HMhQso2zoaZ/IqECySQOhmQPnhPJz2ioBQYEDpewuxqukR7KuqQvXFUux4RgrPhLn4+J1p6O83FX8rLkHJyfdxX5BlO8Bw5jAOyPdgw5fe+POBKlR9+wR89n+FPbUuSJj7Md6Z1h9+U/+G4pISnHz/Plz9eTlmLCnDpH+dwYULZdiSm4d3vlAjKNofMJTivYWr0PTIPlRVVeNi6Q48I3W3tYrBYDAYDAaDcQvANvvXhQlN/3oH/7xyH1a8NBLBrkBg1p0YHumJ1Ewx3HEFsqJziBWLEQQTVM1q6FsvoqpeAwgGIH5QIFxdBbhSeRqXEjORHRaIAN9+cLVqB7TKinBaIMWz7y3DqFBXuHh4QODuiwA/V7gKrqDy9CUkZmYjLDAAvv0u4+t1m6Cavhx/vj0YrghE1qTbEe2TBml6P8CkQrNaj9aLVeCmEY9BgSwMGAwGg8FgMG5F2C7vutDgyL6fgRETMNqXO2JqzMfJmhiIxcFw1cpRqHBHmmQIBPDA8EVrsWDAD5ghSsXdr+RBaQIAHYqLKhAoEmNQ1039lu10KClQQHDHHMxM5j7QqihDbWw6RH4AdMUoqgiESDyIu7dfcxx5xwgjJowGNyUTGo7noyZODIk/AI/hWLR2AQb8MAOi1LvxSp6Sve2HwWAwGAwG4xaFbfavB5MKFy62I1wYCw8AgAGnv9iGE+7cw7mmehnkjcmQSDwBAG4xk/HXvFPIXyeG/LUXsL7cCBiqUFzahmSxGJ0301i1MzWgUN6Awdk5CAAAaFFUqIB7qhhDBIChqhilbckQi7nWpuazONcSDqGQmxEMFfj8yxPwFkmRKAAAN8RM/ivyTuVjnViO115YD/YSHwaDwWAwGIxbE7bZvx5cPeHj7Qp1UxP0ANTHVmP+2hPQJZsfzi2SoSJEBEm0C5oVMlS2A4AvEkTxCOgXgCA/F8BwBmdqPBAeEdzljO52boBGBll5MNKlMdyVe2MtZPImJEsk8ARgOHMGNR7hiAjmWrt6+cLHpQVNSj0ANY6tXoh3ZQakSCXwNDVDIasEN40EiOID0C8gCH4uOii2PI9n1uR128ZgMBgMBoPBuOlhm/3rIgiTZk2H+5dPIDc3EyMWnobkjkREZUghdDOguqQc+oxhyHA34cKuxRiTIsXY8bch477tiF32KmbFuAKCeAxJ0OPfL47FmOmv47jOsh1gOCvHKZ0Y2eYr99CXorQ6HNIsbvMviB+CBP2/8eLYMZj++nHoAibgoSmu+HLuCIzIGon/qxmGcQkJyMwKh6vpAnYtHoMU6ViMvy0D922PxbJXZyGGLuLHje9je0GjrYEMBoPBYDAYjJsYFyJy+ptNDD5MUFeeRFlrGFLThQiwfim+BSa01chRdF6LkGQxBof16z7VVoMCWQ0EcVJkRHlbNuoVbTUFkNUIECfNQJQ3AKMaVQVluBKWinRhgPV7+k1tqJEX4bw2BMniwbCcBoPBYDAYDAbj1oJt9hkMBoPBYDAYjFsUdhsPg8FgMBgMBoNxi8I2+wwGg8FgMBgMxi0K2+wzGAwGg8FgMBi3KGyzz2AwGAwGg8Fg3KKwzT6DwWAwGAwGg3GLwjb7DAaDwbghaFvVuMp+kRuGdjXadLZHGTcN2laoWSAzbiHYZv9Goq2H7IfPsPGjj7E97xRUJtsP/MIYyvDutCw89W2r7RnGb5D2Uz/g42+KoP5vx8kNpQ075w/F5HUKGGxP8XKt7W4C2nZi/tDJWKfoq2XtOPXDx/imSI2+h4QBZe9OQ9ZT36L1F44tR3237F+IrPQ52HbhxmySDGXvYlrWU7jZypmx4j1MGjIRbxZpbE+ZsfYV2k/hh4+/QZGtoL9pbsb87aXuLfuxMCsdc7ZdwI2JZAbj14dt9m8IJij3v4p7hiQgd9bLeP/DtVg0TYzUez+y/eAvi+oo9uy/Cv9w9ktZv300OLjuKSxZfwSXnf7ShRZHVj+EuRvLf3uLj06OA3ur4BEeDYHtOT7M7fr1td1NgE5+AHurPBAe3UfLNAex7qklWH/kMpyGRA9UOLpnP676h6Nfn2Krrzjou/0wXnv+IMb8YwNmCh3+smCfUB3dg/1X/XFTlTNjJf7x3AfwWroFS4d52p41Y+krQHNwHZ5ash5HbryzfjmuNe+d8kvWut7o3o7Drz2Pg2P+gQ0zhdY/SMlg3MSwzf4NQCtbjfvuXYO6uz5G6fnTKMiX42zlXvx5XJTtRx2gg7qxES28l0i0UCnV0Noehg4tjUq0GgBtUT5K3dIgSfWwOK+Fqr4OTe03pnRqVUqoe04C0KnR2NjS66s8Jo0KSrX9v3Nr1Q2oa2q3X+xN7WhWabqvfGpVqK9X2dGlF3ZrVVDaM6YPtmhV9ahX2elDq0ZDXRMcD++JSRvOQ7nrGcTbrCg9NDaUYc9nO3HOEAQXi8Poq1ZmevTfSR/s7sR0qRCy2gRIJb4WR51rz7VLglTqy8WCPQ2d5IWxvQn19mx3qr0FJg1USjXsRqJWhXqefkztzVBpbNU14VKhDLUJUlhJ0httPSdhw3kldj0Tb7PJcJT7gK6lEUou+ZFf6oY0SSo87MaWEe1N9XZ8wq8xjO1oqrfUwF7fgOaKNya+/S+sntjfwaLi2AYrdC1oVLbCAC2K8kvhliaBZTnjjfc+4jAPbDFp0Nxk6TsdWpTNuGrregDQuiJj0Vasn5PUYxNs31eA56QNOK/chWcsBHUc2/wx2Y0OLY2NaLEb2M5xpvO15n0XjvLhWmsdjz/7ojs0V+A98W38a/VE9LcfyAzGzQkxrg9DNf1tfCAFjX+PzhhsTxJR6w56WjKOVsn03P8NlfT+9DR6eIuSiIg6SjfSrIxQCo6Mpoi48fTSsodJ+vAW7rMd+2hxzgP02kdLaEKKkKKCvCly0t+pzDxOu/wjmiUO49oKR9Gj01PJK3sVlRuIiLRUtX0xjR3UnwYIhRQWEE7Z87bTeTtzbN3xNEnGraLuKb5P09Mepi1KIxF10L7FOfTAax/RkgkpJIwKIu/ISfT3zklQB5VunEUZocEUGR1BceNfomUPS7vss0SzbzHl3LeC/vbcGEqOjaYQv0gav1ZGGvN5/bkd9OLEJIqIiidhaCANnPA6/aeViKiDdj83jO5b9gbNSPYlV58ptLlZRT+/fg8lhkVS3KABFJKymH7SkFO7O/YtppwHXqOPlkygFGEUBXlH0qS/lxF3uve2kOpnev2eRAqLjKNBA0IoZfFPnB36c7TjxYmUFBFF8cJQChw4gV7njLCm40damDWGVp7Q82psqHiXJseFkq/AjXxDoykmeQ5ta+6rVo77N0+m93bb0PH9bIqMepx+6IX2tu2iYu+jFxaOo8GxURTkHUF3vqsgcwjy50V7CW1+PJtiwgdSYuwAisp+nnY390F7zT5anHMfrfjbczQmOZaiQ/wocvxaknUGoraKti8eS4P6DyChMIwCwrNp3vbzXIx07Kbnht1Hy96YQcm+ruQzZTM1W3XeQd/PjqSox38wx3Xvte34cSFljVlJXEjw5z61y+mjWWIKC46k6AghjXp0OqV6ZdOqcoNNbBG1l2ymx7NjKHxgIsUOiKLs53dz4/FpTO1Usvlxyo4Jp4GJsTQgKpue393co29t1XZaPHYQ9R8gJGFYAIVnz6Pt3cnGb4MV7ST/aBaJwzidhKMepempXpS9qpwMvLXBmuurZRZ07KPFOQ/SG/98kSakCiki0JcSZm+j8qPv0IzMBIoO8abgEa/Sie7i5Tj2+HxFHfTjwiwas/IEF/uOYpsvJm1oL9lEs6UDqH9UNA2IuZ0WLHqAJJ1+dbIe9Vbna817vny4llrH68++6N4HfRmMmxG22b9O9CUrKctzID25q832FBERaY8uoSEBU2jzZfOBK5/T74Ljaf5+DVH7YVoiCqahLx6iy0Yi1ZHllOsvoLj5+4mISC9fQZneASQcv4IOKI2kOfgsJXqNprfOG4naDtCilEDKeuGgue0KGhEgoKjHd5GGiFoPLqH0YCk9+++LpCei9vylJPVMpIWHtVbzI9LS0SVDKGDKZuqe4u8oOH4+7dcQkV5OKzK9KUA4nlYcUJJRc5CeTfSi0W+dJyKi9sNLSBQ8lF48dJmMpKIjy3PJXxDH2WeFnuQvZ5KnTzTdsfwAKY0Gqlo7knxin6J9GiLqOEpLM0Mpc+EuqjUQkXITTQmIoDk7O4j0Mlom9iK/yFya90UxVVbXkqpkJQ31y6aV8g4i0lNDZTWpjM7s1pN8RSZ5Bwhp/IoDpDRq6OCzieQ1+i06b+ybLSUrh5Jf9krihm+gymoVGamDji7NpNDMhbSLM4I2TQmgiDk7qcO2B9kyyvCfRBuUTjQ2aqn5+ycoNuhe+meditStGjL2UatWvv775ENb9FTyl0zyG/8B1TvVvmc7D88IGruc88PhhUnkNYrzA39eqGnvvGTqP2IFHVUREV2h4q93UHFHH7SXv0yZnj4UfcdyOqA0kqFqLY30iaWn9mmIqJUOLkmnYOmz9O+LeiJqp/ylUvJMXEiHtZzfxF5+FJk7j74orqTqWpudkL6E/pLpR+M/qCfOlN5qqyfZsgzyn7SBuJDgyX1qowOLUigw6wU6yAlEK0YEkCDqcdqlsYkt9V6al9yfRqw4SpxcxfT1jmInGhOp986j5P4jaAUnMl0p/pp2FHdY9916kJakB5P02X8TJ1U+LZV6UuLCw5xFvDZY03ZgEaUEZtELB806rRhBAYIoenyXhr82WHF9tcwSbu6BJJzwMh26ZKTWb2ZSuF8MJY16kr46qyd98XKSeElpRTH3Zd1x7PH7ivQyWpbhT5M4ZzmIbf6YtKL9EP0pLYiGvfQzqYhIffxVGhnoToOeySNyth71WudrzXsn+dDnWsfnz77o3gd9GYyblFt+s9/eUEUV5eVUXl5BZ+qu2J6+TozU8MEE8gp+iLbb3etz5/0ky6nIfCFFe+x5SjEXW+WW6dQ/+jH6vnO/oD1Gz6cE0BRzJW7+eCr5+Y+ht7hL9Vyh9r+HNjUbSfnxdAq2anuUlgzxpQkf1JPRWEMfTAyk+Gd+onbzaer4lmaG+tK9W7uOcBgb6IMJfiRZXmS+qqqlY8+ndC+YzR/TVD9/GvMWd4WNG8ef7tnUTERK2jK9P0U/9j11m9BtnzUq2jLdnwLHvkMV5sslHd/OpNDA39O2diM1bJ5KwVEzaHOxgoqO7KT1z91OA8Km0MZzRqLLm2iyry+NeKOk68qv9tBzlOiZQk9+U929mXNqdzN9PNWP/Me81fXXj6NLhpD/PZuouU+2aOnQc4nkmfIkfVPdvRAaGzbT1OAomrG5mBRFR2jn+ufo9gFhNGXjObLd3lzeNJkCRH+mfL0zjY107q1R5DPsNTplIC6m+qgVf/99sdsWFX0yLZCGPH+UtE61t0RFn0zzp4CuWNDSkcXJ5HfPJmom/rww1nxAEwPjaV6edZ990V61ZTr5B46ld7oDkWaGBtLvt7V39f/MT939d3w7k0J976Wt7ZzffH1H0BslXepao/qEpgUOoeePavuo7WXaNDmARH/OJy4kHOU+kVH5MU0PjqbHugWio0uGkO8EbvPVHVtGqvlgIgXGzyMbuXg17sqjeXndvjTTs+9nqFuqDvp2Zij53ruVyIkNVhiV9PH0YGudji6hIb4T6IN6PX+8W/VzPbXMGtu5a3Y9TlEeg2nhQa7QG8peo2E+t9Gb1Qbe2NM78RVd3kSTA0T053y949h2EpOWXPr0PgqJnkM7Opc67RH6U7I/3f3RJSfrkZO6YsW15r2zfOhjrePxp7Mcsad7b/RlMG5Wbu270kw1+PL5B/Dggw/iwQcfxKNrDtp+4jox4eLFBtCAaES7254DAD1khafgnSZBogAATGjKL8CFODEk/hoczzsGGjEBo823PZoajiO/Jg5iiT8AHUoKFBDcMQczk7l7ClsVZaiNTYfIT4Mj+34GLNs25uNkTQzE4mC4th/G3uPeGHXXcHh3TqX9Ei51BCMszOYGcb0Mhae8kSZJ5O4xNTUhv+AC4sQS+APQlRRAIbgDc2Ymc/cRtypQVhuLdJEfoDmOvGOEERNGg5uGCQ3H81ETJ4bE33oY6EpRqHDDmNmPIMmN+6yqtg5XwyIQIbiKg7sPocNQgLdnz8LTSz/EYddp2HDoM8yJdYVWXgiF+3jMfSKt6z5Yj+GLsHbBAPwwQ4TUu19BntIEOLNbV4IChQB3zJkJTtJWKMpqEZsugl9fbIEHhi9aiwUDfsAMUSrufiUPShNw9eBuHOowoODt2Zj19FJ8eNgV0zYcwmdzYm3uY9ZCXqiAe5oEQwRONIYOxUUVCBSJMcgNAPquFW//fbLbBp0cBQo3iKSp8HCmfY927hj32EwuFkxqlCrqOD+APy9aD+3Fca9RmJjbNQqAvmivQ2mhAm5jZuMRLhBhUtWi7moYIiIEaD+8F8e9R+Gu4d39t1+6hI7gMIS5mf02fi6eSLO9I5tDJy+Awk0EaapH37TVylGocEeaZAgEvLkPaI7sw88YgQndyY/8kzWIEYsR7GoZW604tPc4vEZNhLVc/Bqj9RD2HvfCqIm53b4EbOK2HYf3Hof3qLvQLVU7Ll3qQHBYmJP6ZdknAM0RcOWsW6fG/JOoiRFDHKzhjXcrrqeWWWE7dyPqFBVQiWZgznAfAIBGUYrq4BSkRbrxxp6O11cw52saJEMEDmObPyYtP6nBsbyjMI2YiDFmk0wN+Th5MRbijAAn6xF/XbHiWvPeaT70rdbx+ZM/R6x1772+DMbNy6292XcdiNkfn4SsqAhFRTL8vO4e209cJy7w9fEGNTeiQW97DoDxAuSKZiSkp6MfABjKseXzY/ASSZHo2oyz51oQLhSCe/7MgIrPv8QJbxGkiQLA1IBCeQMGZ+cgAACgRVGhAu6pYgxxVeHCxXaEC2O72p7+YhtOuHMP5xqb6tCoC0FkZPeGRJX3Ewq9cjA60/rVFsYLciiaE5Cezh03lG/B58e8IJImQgATGgrlaBicjRxuEtAWFULhngrxEAFMzWdxriUcQqH5CTpDBT7/8gS8RVLzYtKN6VIRiuuSMWxY5y5Hjf37i+CfOwpitzqcrdFCNP9bFBTk40jeDnyydhEmJ/sAMKFeJkfj4GzkmucAAHCLweS/5uFU/jqI5a/hhfXl0Dmx29RQCHnDYGR3G4NChTtSxUPg2gdbAMAtZjL+mncK+evEkL/2AtaX61B3tgZa0Xx8W1CA/CN52PHJWiyanAxue2CBqR4yeSOSJRJ4OtEYhioUl7YhWSyGOwAY+6oVf/998aEtpgYZiuuTIJV49ynmuHaDkZ1t3pHo5ZCd8kCaeAgEJr68cEFTbQN0ETEYaDU3Yx+0v4Si4jokDxuGrkjcvx9F/rkYJXZDU10jdCGR6DZDhbyfCuGVMxqZ7pzfBmfnmnPSFhMaZMWoT5JC4o0+aWuql0HemAyJxJM/9wUmqC5cRHu4ELGd3Z7+AttOuHMPHlrGlrEJtQ06RMQMtH5YlFdjAYxNtWjQRSDGWmTruDU2oa5Rh5DIyO6+VXn4qdALOaMzndhg2SlgUl3AxfZwCLsNwhfbTsA9TYJU3tpgzfXUMivszF0mK0ewdJjZbwackpVCm5oJiTtf7DnxVWe+Jksg8TQ6jG3emLRMLVMzzp5TW/n11NYvcKKf2Ua+9cil9zpfc947y4c+1jrH/nTtm+691ZfBuIm5tTf7vzhuGDR2FOKbv8Xq1/ahVgtA14j8T17Agr8Xw2BUQnnZBIFAABeocWz1QrxXaECKVAJPVy/4+rigpUkJPQD1sdVY+K4MhhQpJJ4ANDLIyoORLo3hrloYayGTN3ELrasnfLxdoW5q6mo7f+0J6JIlkHgDboGhCBE0oPJ0CwDApNyDl1/djci5izA1yNoCo1KJyyYBBAIXQH0Mqxe+h0JDCqTcJLhFLl2KGG4SqJXJ0ZQsgcQTcPXyhY9LC5qUesBs37sys33Ww0AnK8IpXTPOVV6GCUDLkTexbm8EZs29E74uAQj0d0F9dSXaOhto29CmBQANimQV6N81B8DUrICssh0A4JsgQnxAPwQE+UHgxG6NTIby4HRIzR0Za2WQN3EbrN7bYkKzQgZueF8kiOIR0C8AQX6uCAj0h0t9NSq7jUAbZ4Q1miLIKkIgkkTDzYnGMJzBmRoPhEcEc8naR62u14empp+wZt5ybD/b8x0YGlkhp2esW59iTiMrRHl/ESTRZj9clKHkknmjy5sXLvD18wHqz6Kacz+uVhegREm9114nQ9EpHZrPVeIyF4h4c91eRMyaizt93RAYGgJBQyU4M0xQ7nkZr+6OxNxFUxGkKYKson93TvZAA1khp3Wsm3NtrVoWyVARYtaEL/fhCk8fb7iqm9DECYTV89fihC4ZEom3dWy5+IKTqxqcXFdRXVACJfg0Blx8/eCDepztFhkFJUqYLPt2C0RoiAANlafBSaXEnpdfxe7IuVjEJRuPDda4evrA21WNJs4gHFs9H2tP6JAskcCbN96tuZ5aZoXt3A0VkJVokJIp4TahUKGo6DxiJRIEu7rwxJ4TX5nzNUQkQbSbo9h24Y/JziEBwLUfPD1doG5SQg8T1Edfx/x1BdAPlkDsCYBvPeqDztea907zoY+1zrE/+6K7k5yHDootz+OZNXlddjAYNyW29/Uw+kozHXp1PEX3cyGBpx/5eXpQ4OB76e3jbUSkou+fiCOv0BTKlqbR7XNX0BxxKi3+WUtERrr42QyK8YmkjOGZJBo5l5bNFFHq4p9JS0T60pU0NHgKbVKa75fs+I5mRcbTvJ80RGSk+m2PUKxPOIlypJSSM4uWPJRKwid3m98AoqL9L2VT/8A4yhk7mtKjoijrya1UYe9hI9X39EScF4WmZJM07Xaau2IOiVMX08/cJGjl0GCasklpvu+5g76bFUnx88xvnjFepM9mxJBPZAYNzxTRyLnLaKao0z5LDKR4ZSh5D76NhgtjSXJbFglD42jq2yeJuwPWSMqdCyg9MJAScsfRhDFZlJQwhd6vMhDpS2zmQKQvWkNjogeSZMw4GpEUQYMmraFjreTEbj2VrhxKwVM2Ubeksygyfh73Fp9e26KnojVjKHqghMaMG0FJEYNo0ppj1EpERuVOWpAeSIEJuTRuwhjKSkqgKe9X9Xijg77EwrfONNbLaVWuHwUk5tLoaavomLZvWjnt34ndV7b9nvr7j6e/93io0qzn5I3UaCQn2ttvZ+mHiLhnzG9T4s8LY91XNCfRhwITR9DYkRmUKH6Cvqo39lp7g+IVGuo9mG4bLqRYyW2UJQyluKlv08nOZ25U++ml7P4UGJdDY0enU1RUFj25tYLLSUu/2cOs9eSNjZzWTrS1aEglFrHJn/tExvpt9EisD4WLckiakkOzljxEqcInabfGdo5GqvtqDiX6BFLiiLE0MiORxE98RfVGfo3JWEdfzUkkn8BEGjF2JGUkiumJr+pJa2O/av9LlN0/kOJyxtLo9CiKynqStpod7swGK4z1tO2RWPIJF1GONIVyZi2hh1KF9ORurtY5jHdbrqeWWdBj7qpPaFpwBi3N77zR/QAtSIygR742Vy+e2OPzlW2+Ooptvpi0xkgXt/6eYry5dSF1+EyaNTqEYizWBb71qHc6X2ve9yIf+lTr+P3ZF9159TVU0bpRPhT24GeWljAYNx0uRHQT/ZLHbxetshzFFZeAkASkDwnvvnplakF1gQKq0FSIhQE2VwSNUFcVoOxKGFLThQiwf7nQASaoK0+irNVRWyNazslRUtOBgPgMiKJ6/jm2E1NLNQoUKoSmiiHs2RE/RjWqCspwJSwV6T3s66QVn98vxCtxOyFbFoGS4np4xkuQFmF9Sc3QXAmZohZa7wgkpSYhzPaKmwWmthrIi85DG5IM8eAw7s/SQJ/s7kGvbAEAE9pq5Cg6r0VIshiDwyz+1mtoRqVMgVqtNyKSUpHEZ0RvaatBgawGgjgpMqK4+0r7opVTHNl99TiWj74fRx78Hv9eLO5xRbYn16G9FU7y4modSmSVaPUbhPS0GPh2/n2yF9q3fn4/hK/EYadsGSJKilHvGQ9JWoS1bcYWnJOXoKYjAPEZIlyzGeDR9joxqStxsqwVYanpTnP2al0JZJWt8BuUjrQYX/Ofc51ojKuoK5GhstUPg9LTENMlsjXGlnOQl9SgIyAeGaKonrdN9RaTGpUny9DqQKfexvt11bLrgSf2+uIrh7Hd65g0+1UdipTUy1gzbAxOPl2JXX8cwPmddz3qvc7W9CHvneXDDax1fdK91/oyGDcnbLPP+OXRHcWSjLtRvfQs/vUH+3c7M35rXMWxZRPx7JU/4/u37kKY/b3eTYYOR5dk4O7qpTj7rz84uO+ewbhFaN6EyYPexJA9RVidY755ncFg/E9ySyzhjN84hjZ4xN2LyTmWv7bI+G3jDemLe3DknVtlow8ABrR5xOHeyTnmt4EwGLcuxiYjQkbej4kittFnMP7XYVf2GQwGg8FgMBiMW5Rb5podg8FgMBgMBoPBsIZt9hkMBoPBYDAYjFsUttlnMBgMBoPBYDBuUdhmn8FgMBgMBoPBuEVhm30Gg8FgMBgMBuMWhW32GQwGg8FgMBiMWxS22WcwGAwGg8FgMG5R2GafwWAwGAwGg8G4RWGbfQaDwWAwGAwG4xaFbfYZDAaDwWAwGIxbFLbZZzAYDAaDwWAwblHYZp/BYDAYDAaDwbhFYZt9BoPBYDAYDAbjFoVt9hkMBoPBYDAYjFsUttlnMBgMBoPBYDBuUdhmn8FgMBgMBoPBuEVhm30Gg8FgMBgMBuMWhW32GQwGg8FgMBiMWxS22WcwGAwGg8FgMG5R2GafwWAwGAwGg8G4RWGbfQaDwWAwGAwG4xaFbfYZDAaDwWAwGIxbFLbZZzAYDAaDwWAwblH+Hyv8iEW1ZKkfAAAAAElFTkSuQmCC;" vertex="1" parent="1">
          <mxGeometry x="10" y="100" width="729.83" height="330" as="geometry" />
        </mxCell>
        <mxCell id="PZ8WvZYUdpvpFTueEGIm-3" value="Internaciones = {codHosp, cantHabit, direcInterPac, telInterPac, cuilPac, domiPac, nyApPac, direcHosp, ciudadHosp,&amp;nbsp;&lt;div&gt;finicioInter, fFinInter, medicoAtiende}&lt;/div&gt;" style="text;html=1;align=left;verticalAlign=middle;resizable=0;points=[];autosize=1;strokeColor=none;fillColor=none;" vertex="1" parent="1">
          <mxGeometry x="10" y="440" width="650" height="40" as="geometry" />
        </mxCell>
        <mxCell id="PZ8WvZYUdpvpFTueEGIm-4" value="Claves Candidatas = {cuilPac + fInicioInter}" style="text;html=1;align=center;verticalAlign=middle;resizable=0;points=[];autosize=1;strokeColor=none;fillColor=none;" vertex="1" parent="1">
          <mxGeometry x="15" y="480" width="250" height="30" as="geometry" />
        </mxCell>
        <mxCell id="PZ8WvZYUdpvpFTueEGIm-5" value="Atributos no primos = {codHosp,cantHab, direcInterPac,telInterPac,domiPac,nyApPac, direcHosp,ciudadHosp,fFinInter, medicoAtiende}" style="text;html=1;align=center;verticalAlign=middle;resizable=0;points=[];autosize=1;strokeColor=none;fillColor=none;" vertex="1" parent="1">
          <mxGeometry x="10" y="510" width="740" height="30" as="geometry" />
        </mxCell>
        <mxCell id="PZ8WvZYUdpvpFTueEGIm-6" value="DF 1" style="text;html=1;align=center;verticalAlign=middle;resizable=0;points=[];autosize=1;strokeColor=none;fillColor=none;" vertex="1" parent="1">
          <mxGeometry x="15" y="540" width="50" height="30" as="geometry" />
        </mxCell>
        <mxCell id="PZ8WvZYUdpvpFTueEGIm-7" value="codHosp--&amp;gt;cantHabit, direcHosp, ciudadHosp" style="text;html=1;align=center;verticalAlign=middle;resizable=0;points=[];autosize=1;strokeColor=none;fillColor=none;" vertex="1" parent="1">
          <mxGeometry y="560" width="270" height="30" as="geometry" />
        </mxCell>
        <mxCell id="PZ8WvZYUdpvpFTueEGIm-13" value="DF2" style="text;html=1;align=center;verticalAlign=middle;resizable=0;points=[];autosize=1;strokeColor=none;fillColor=none;" vertex="1" parent="1">
          <mxGeometry x="10" y="600" width="50" height="30" as="geometry" />
        </mxCell>
        <mxCell id="PZ8WvZYUdpvpFTueEGIm-14" value="cuilPac--&amp;gt;domiPac, nyApPac" style="text;html=1;align=center;verticalAlign=middle;resizable=0;points=[];autosize=1;strokeColor=none;fillColor=none;" vertex="1" parent="1">
          <mxGeometry y="630" width="180" height="30" as="geometry" />
        </mxCell>
        <mxCell id="PZ8WvZYUdpvpFTueEGIm-15" value="DF3" style="text;html=1;align=center;verticalAlign=middle;resizable=0;points=[];autosize=1;strokeColor=none;fillColor=none;" vertex="1" parent="1">
          <mxGeometry x="5" y="668" width="50" height="30" as="geometry" />
        </mxCell>
        <mxCell id="PZ8WvZYUdpvpFTueEGIm-16" value="cuilPac + fInicioInter--&amp;gt;codHosp,direcInterPac,telInterPac,medicoAtiende,fFinInter" style="text;html=1;align=center;verticalAlign=middle;resizable=0;points=[];autosize=1;strokeColor=none;fillColor=none;" vertex="1" parent="1">
          <mxGeometry y="698" width="460" height="30" as="geometry" />
        </mxCell>
        <mxCell id="PZ8WvZYUdpvpFTueEGIm-17" value="B)" style="text;html=1;align=center;verticalAlign=middle;resizable=0;points=[];autosize=1;strokeColor=none;fillColor=none;" vertex="1" parent="1">
          <mxGeometry x="20" y="758" width="40" height="30" as="geometry" />
        </mxCell>
        <mxCell id="PZ8WvZYUdpvpFTueEGIm-19" value="Internaciones = {codHosp, cantHabit, direcInterPac, telInterPac, cuilPac, domiPac, nyApPac, direcHosp, ciudadHosp,&amp;nbsp;&lt;div&gt;finicioInter, fFinInter, medicoAtiende}&lt;/div&gt;" style="text;html=1;align=left;verticalAlign=middle;resizable=0;points=[];autosize=1;strokeColor=none;fillColor=none;" vertex="1" parent="1">
          <mxGeometry x="49.91" y="800" width="650" height="40" as="geometry" />
        </mxCell>
        <mxCell id="PZ8WvZYUdpvpFTueEGIm-20" value="1FN" style="text;html=1;align=center;verticalAlign=middle;resizable=0;points=[];autosize=1;strokeColor=none;fillColor=none;" vertex="1" parent="1">
          <mxGeometry x="49.91" y="770" width="50" height="30" as="geometry" />
        </mxCell>
        <mxCell id="PZ8WvZYUdpvpFTueEGIm-21" value="2FN" style="text;html=1;align=center;verticalAlign=middle;resizable=0;points=[];autosize=1;strokeColor=none;fillColor=none;" vertex="1" parent="1">
          <mxGeometry x="45" y="848" width="50" height="30" as="geometry" />
        </mxCell>
        <mxCell id="PZ8WvZYUdpvpFTueEGIm-23" value="Hospital = {&lt;u&gt;codHosp, &lt;/u&gt;cantHabit,direcHosp, ciudadHosp}" style="text;html=1;align=center;verticalAlign=middle;resizable=0;points=[];autosize=1;strokeColor=none;fillColor=none;" vertex="1" parent="1">
          <mxGeometry x="30" y="878" width="320" height="30" as="geometry" />
        </mxCell>
        <mxCell id="PZ8WvZYUdpvpFTueEGIm-24" value="Paciente = {&lt;u&gt;CuilPac, &lt;/u&gt;domiPac, nyApPac}" style="text;html=1;align=center;verticalAlign=middle;resizable=0;points=[];autosize=1;strokeColor=none;fillColor=none;" vertex="1" parent="1">
          <mxGeometry x="30" y="908" width="240" height="30" as="geometry" />
        </mxCell>
        <mxCell id="PZ8WvZYUdpvpFTueEGIm-25" value="Internacion = {&lt;u&gt;CuilPac, fInicioInter,&lt;/u&gt;&amp;nbsp;codHosp,direcInterPac,telInterPac,medicoAtiende,fFinInter}" style="text;html=1;align=center;verticalAlign=middle;resizable=0;points=[];autosize=1;strokeColor=none;fillColor=none;" vertex="1" parent="1">
          <mxGeometry x="20" y="938" width="530" height="30" as="geometry" />
        </mxCell>
        <mxCell id="PZ8WvZYUdpvpFTueEGIm-26" value="3FN&lt;div&gt;BCFN&lt;/div&gt;" style="text;html=1;align=center;verticalAlign=middle;resizable=0;points=[];autosize=1;strokeColor=none;fillColor=none;" vertex="1" parent="1">
          <mxGeometry x="679.83" y="898" width="60" height="40" as="geometry" />
        </mxCell>
        <mxCell id="PZ8WvZYUdpvpFTueEGIm-27" value="" style="endArrow=classic;html=1;rounded=0;" edge="1" parent="1">
          <mxGeometry width="50" height="50" relative="1" as="geometry">
            <mxPoint x="570" y="920" as="sourcePoint" />
            <mxPoint x="670" y="920" as="targetPoint" />
          </mxGeometry>
        </mxCell>
        <mxCell id="PZ8WvZYUdpvpFTueEGIm-28" value="&lt;font style=&quot;font-size: 72px;&quot;&gt;}&lt;/font&gt;" style="text;html=1;align=center;verticalAlign=middle;resizable=0;points=[];autosize=1;strokeColor=none;fillColor=none;" vertex="1" parent="1">
          <mxGeometry x="530" y="868" width="50" height="100" as="geometry" />
        </mxCell>
      </root>
    </mxGraphModel>
  </diagram>
</mxfile>
